<ttFont>
        <CharString name=".notdef">
          -294 endchar
        </CharString>
        <CharString name=".null">
          -474 endchar
        </CharString>
        <CharString name="A">
          203 591 677 rmoveto
          -25 7 -7 -22 -11 -23 -13 -14 rlinecurve
          -116 10 -109 12 -118 19 rrcurveto
          -87 -29 -106 -101 -91 vvcurveto
          -17 9 -11 17 -1 vhcurveto
          24 22 27 16 30 12 1 7 rcurveline
          -10 6 -5 14 19 vvcurveto
          14 4 20 5 14 vhcurveto
          18 18 67 4 25 hhcurveto
          -146 -545 -13 -3 -30 -9 -13 -7 rlinecurve
          4 -27 rlineto
          8 48 51 1 48 hhcurveto
          40 47 -4 -3 23 hvcurveto
          3 16 rlineto
          -37 14 -5 32 39 vvcurveto
          19 4 45 11 71 vhcurveto
          3 20 29 2 32 hhcurveto
          32 22 -1 -3 20 hvcurveto
          -3 -106 -6 -64 -3 -23 -14 -3 -29 -9 -13 -7 4 -27 rcurveline
          7 47 50 2 47 hhcurveto
          56 45 -2 -7 56 hvcurveto
          3 26 -15 7 -29 7 -16 3 rlinecurve
          -5 34 -9 110 158 vvcurveto
          124 7 127 17 90 vhcurveto
          -189 -376 rmoveto
          -3 -20 -25 -1 -30 hhcurveto
          -25 -28 2 2 -18 hvcurveto
          48 275 rlineto
          22 43 -2 -4 23 hvcurveto
          3 -3 rlineto
          4 -61 3 -93 -87 vvcurveto
          endchar
        </CharString>
        <CharString name="AE">
          301 -21 18 rmoveto
          4 -27 rlineto
          8 48 51 1 48 hhcurveto
          40 47 -4 -3 23 hvcurveto
          3 16 rlineto
          -37 14 -5 32 39 vvcurveto
          23 3 30 34 160 vhcurveto
          3 19 25 2 21 hhcurveto
          18 13 -1 -3 14 hvcurveto
          -203 1 -120 203 vhcurveto
          81 16 64 43 63 85 -16 15 rcurveline
          -39 -40 -46 -22 -55 hhcurveto
          -100 -3 76 148 hvcurveto
          3 21 30 2 12 hhcurveto
          25 23 -2 -4 15 hvcurveto
          4 -23 9 -31 8 -20 25 4 rcurveline
          -6 29 -4 30 29 vvcurveto
          28 4 26 9 27 vhcurveto
          -22 5 rlineto
          -29 -25 -27 -7 -38 hhcurveto
          -21 -20 3 5 -21 hvcurveto
          1 50 9 98 18 47 rrcurveto
          5 12 34 2 13 hhcurveto
          33 30 -2 -15 32 hvcurveto
          -31 3 -25 6 -31 vhcurveto
          27 hlineto
          2 68 7 51 33 44 -6 21 rcurveline
          -8 -56 -105 -5 -139 hhcurveto
          -89 -85 6 25 -84 hvcurveto
          -87 -29 -106 -101 -91 vvcurveto
          -17 9 -11 17 -1 vhcurveto
          24 22 27 16 30 12 1 7 rcurveline
          -10 6 -5 14 19 vvcurveto
          14 4 20 5 14 vhcurveto
          18 18 67 4 25 hhcurveto
          -181 -561 -13 -3 -30 -9 -13 -7 rlinecurve
          319 577 rmoveto
          2 10 11 1 11 hhcurveto
          11 20 -1 -3 10 hvcurveto
          3 -17 -1 -24 -2 -17 -19 -159 rcurveline
          -3 -14 -19 -1 -16 hhcurveto
          -20 -17 1 3 -15 hvcurveto
          12 59 16 72 19 87 rrcurveto
          endchar
        </CharString>
        <CharString name="Aacute">
          203 591 677 rmoveto
          -25 7 -7 -22 -11 -23 -13 -14 rlinecurve
          -116 10 -109 12 -118 19 rrcurveto
          -87 -29 -106 -101 -91 vvcurveto
          -17 9 -11 17 -1 vhcurveto
          24 22 27 16 30 12 1 7 rcurveline
          -10 6 -5 14 19 vvcurveto
          14 4 20 5 14 vhcurveto
          18 18 67 4 25 hhcurveto
          -146 -545 -13 -3 -30 -9 -13 -7 rlinecurve
          4 -27 rlineto
          8 48 51 1 48 hhcurveto
          40 47 -4 -3 23 hvcurveto
          3 16 rlineto
          -37 14 -5 32 39 vvcurveto
          19 4 45 11 71 vhcurveto
          3 20 29 2 32 hhcurveto
          32 22 -1 -3 20 hvcurveto
          -3 -106 -6 -64 -3 -23 -14 -3 -29 -9 -13 -7 4 -27 rcurveline
          7 47 50 2 47 hhcurveto
          56 45 -2 -7 56 hvcurveto
          3 26 -15 7 -29 7 -16 3 rlinecurve
          -5 34 -9 110 158 vvcurveto
          124 7 127 17 90 vhcurveto
          -189 -376 rmoveto
          -3 -20 -25 -1 -30 hhcurveto
          -25 -28 2 2 -18 hvcurveto
          48 275 rlineto
          22 43 -2 -4 23 hvcurveto
          3 -3 rlineto
          4 -61 3 -93 -87 vvcurveto
          187 447 rmoveto
          -1 33 -11 55 -13 22 rrcurveto
          2 -5 -8 1 -9 hhcurveto
          -10 -10 -1 -2 -6 hvcurveto
          -44 -66 -64 -43 -91 -43 10 -24 rcurveline
          endchar
        </CharString>
        <CharString name="Acircumflex">
          203 591 677 rmoveto
          -25 7 -7 -22 -11 -23 -13 -14 rlinecurve
          -116 10 -109 12 -118 19 rrcurveto
          -87 -29 -106 -101 -91 vvcurveto
          -17 9 -11 17 -1 vhcurveto
          24 22 27 16 30 12 1 7 rcurveline
          -10 6 -5 14 19 vvcurveto
          14 4 20 5 14 vhcurveto
          18 18 67 4 25 hhcurveto
          -146 -545 -13 -3 -30 -9 -13 -7 rlinecurve
          4 -27 rlineto
          8 48 51 1 48 hhcurveto
          40 47 -4 -3 23 hvcurveto
          3 16 rlineto
          -37 14 -5 32 39 vvcurveto
          19 4 45 11 71 vhcurveto
          3 20 29 2 32 hhcurveto
          32 22 -1 -3 20 hvcurveto
          -3 -106 -6 -64 -3 -23 -14 -3 -29 -9 -13 -7 4 -27 rcurveline
          7 47 50 2 47 hhcurveto
          56 45 -2 -7 56 hvcurveto
          3 26 -15 7 -29 7 -16 3 rlinecurve
          -5 34 -9 110 158 vvcurveto
          124 7 127 17 90 vhcurveto
          -189 -376 rmoveto
          -3 -20 -25 -1 -30 hhcurveto
          -25 -28 2 2 -18 hvcurveto
          48 275 rlineto
          22 43 -2 -4 23 hvcurveto
          3 -3 rlineto
          4 -61 3 -93 -87 vvcurveto
          192 381 rmoveto
          10 24 -81 43 -58 43 -44 66 rlinecurve
          2 -7 -12 1 -12 hhcurveto
          -12 -12 -1 -2 -7 hvcurveto
          -44 -66 -58 -43 -81 -43 10 -24 rcurveline
          204 62 rlineto
          endchar
        </CharString>
        <CharString name="Adieresis">
          203 591 677 rmoveto
          -25 7 -7 -22 -11 -23 -13 -14 rlinecurve
          -116 10 -109 12 -118 19 rrcurveto
          -87 -29 -106 -101 -91 vvcurveto
          -17 9 -11 17 -1 vhcurveto
          24 22 27 16 30 12 1 7 rcurveline
          -10 6 -5 14 19 vvcurveto
          14 4 20 5 14 vhcurveto
          18 18 67 4 25 hhcurveto
          -146 -545 -13 -3 -30 -9 -13 -7 rlinecurve
          4 -27 rlineto
          8 48 51 1 48 hhcurveto
          40 47 -4 -3 23 hvcurveto
          3 16 rlineto
          -37 14 -5 32 39 vvcurveto
          19 4 45 11 71 vhcurveto
          3 20 29 2 32 hhcurveto
          32 22 -1 -3 20 hvcurveto
          -3 -106 -6 -64 -3 -23 -14 -3 -29 -9 -13 -7 4 -27 rcurveline
          7 47 50 2 47 hhcurveto
          56 45 -2 -7 56 hvcurveto
          3 26 -15 7 -29 7 -16 3 rlinecurve
          -5 34 -9 110 158 vvcurveto
          124 7 127 17 90 vhcurveto
          -189 -376 rmoveto
          -3 -20 -25 -1 -30 hhcurveto
          -25 -28 2 2 -18 hvcurveto
          48 275 rlineto
          22 43 -2 -4 23 hvcurveto
          3 -3 rlineto
          4 -61 3 -93 -87 vvcurveto
          -37 483 rmoveto
          -18 27 -43 34 -28 15 -34 -15 -40 -35 -16 -26 15 -29 46 -47 29 -19 28 19 47 47 14 29 rrcurveto
          222 hmoveto
          -18 27 -43 34 -28 15 -34 -15 -40 -35 -16 -26 15 -29 46 -47 29 -19 28 19 47 47 14 29 rrcurveto
          endchar
        </CharString>
        <CharString name="Agrave">
          203 591 677 rmoveto
          -25 7 -7 -22 -11 -23 -13 -14 rlinecurve
          -116 10 -109 12 -118 19 rrcurveto
          -87 -29 -106 -101 -91 vvcurveto
          -17 9 -11 17 -1 vhcurveto
          24 22 27 16 30 12 1 7 rcurveline
          -10 6 -5 14 19 vvcurveto
          14 4 20 5 14 vhcurveto
          18 18 67 4 25 hhcurveto
          -146 -545 -13 -3 -30 -9 -13 -7 rlinecurve
          4 -27 rlineto
          8 48 51 1 48 hhcurveto
          40 47 -4 -3 23 hvcurveto
          3 16 rlineto
          -37 14 -5 32 39 vvcurveto
          19 4 45 11 71 vhcurveto
          3 20 29 2 32 hhcurveto
          32 22 -1 -3 20 hvcurveto
          -3 -106 -6 -64 -3 -23 -14 -3 -29 -9 -13 -7 4 -27 rcurveline
          7 47 50 2 47 hhcurveto
          56 45 -2 -7 56 hvcurveto
          3 26 -15 7 -29 7 -16 3 rlinecurve
          -5 34 -9 110 158 vvcurveto
          124 7 127 17 90 vhcurveto
          -189 -376 rmoveto
          -3 -20 -25 -1 -30 hhcurveto
          -25 -28 2 2 -18 hvcurveto
          48 275 rlineto
          22 43 -2 -4 23 hvcurveto
          3 -3 rlineto
          4 -61 3 -93 -87 vvcurveto
          49 391 rmoveto
          10 24 -91 43 -64 43 -44 66 rlinecurve
          2 -7 -10 1 -9 hhcurveto
          -9 -8 -1 -2 -5 hvcurveto
          -13 -22 -11 -55 -1 -33 rrcurveto
          endchar
        </CharString>
        <CharString name="Aring">
          203 591 677 rmoveto
          -25 7 -7 -22 -11 -23 -13 -14 rlinecurve
          -116 10 -109 12 -118 19 rrcurveto
          -87 -29 -106 -101 -91 vvcurveto
          -17 9 -11 17 -1 vhcurveto
          24 22 27 16 30 12 1 7 rcurveline
          -10 6 -5 14 19 vvcurveto
          14 4 20 5 14 vhcurveto
          18 18 67 4 25 hhcurveto
          -146 -545 -13 -3 -30 -9 -13 -7 rlinecurve
          4 -27 rlineto
          8 48 51 1 48 hhcurveto
          40 47 -4 -3 23 hvcurveto
          3 16 rlineto
          -37 14 -5 32 39 vvcurveto
          19 4 45 11 71 vhcurveto
          3 20 29 2 32 hhcurveto
          32 22 -1 -3 20 hvcurveto
          -3 -106 -6 -64 -3 -23 -14 -3 -29 -9 -13 -7 4 -27 rcurveline
          7 47 50 2 47 hhcurveto
          56 45 -2 -7 56 hvcurveto
          3 26 -15 7 -29 7 -16 3 rlinecurve
          -5 34 -9 110 158 vvcurveto
          124 7 127 17 90 vhcurveto
          -189 -376 rmoveto
          -3 -20 -25 -1 -30 hhcurveto
          -25 -28 2 2 -18 hvcurveto
          48 275 rlineto
          22 43 -2 -4 23 hvcurveto
          3 -3 rlineto
          4 -61 3 -93 -87 vvcurveto
          -118 446 rmoveto
          -57 53 -26 58 vhcurveto
          60 18 50 42 63 vvcurveto
          61 -43 23 -60 vhcurveto
          -65 -14 -53 -46 -64 vvcurveto
          101 76 rmoveto
          37 22 -23 -36 -14 -2 -17 -5 -13 hvcurveto
          -5 -7 -17 -4 -9 hhcurveto
          -37 -22 25 35 14 2 17 5 13 hvcurveto
          5 7 17 3 9 hhcurveto
          endchar
        </CharString>
        <CharString name="Atilde">
          203 591 677 rmoveto
          -25 7 -7 -22 -11 -23 -13 -14 rlinecurve
          -116 10 -109 12 -118 19 rrcurveto
          -87 -29 -106 -101 -91 vvcurveto
          -17 9 -11 17 -1 vhcurveto
          24 22 27 16 30 12 1 7 rcurveline
          -10 6 -5 14 19 vvcurveto
          14 4 20 5 14 vhcurveto
          18 18 67 4 25 hhcurveto
          -146 -545 -13 -3 -30 -9 -13 -7 rlinecurve
          4 -27 rlineto
          8 48 51 1 48 hhcurveto
          40 47 -4 -3 23 hvcurveto
          3 16 rlineto
          -37 14 -5 32 39 vvcurveto
          19 4 45 11 71 vhcurveto
          3 20 29 2 32 hhcurveto
          32 22 -1 -3 20 hvcurveto
          -3 -106 -6 -64 -3 -23 -14 -3 -29 -9 -13 -7 4 -27 rcurveline
          7 47 50 2 47 hhcurveto
          56 45 -2 -7 56 hvcurveto
          3 26 -15 7 -29 7 -16 3 rlinecurve
          -5 34 -9 110 158 vvcurveto
          124 7 127 17 90 vhcurveto
          -189 -376 rmoveto
          -3 -20 -25 -1 -30 hhcurveto
          -25 -28 2 2 -18 hvcurveto
          48 275 rlineto
          22 43 -2 -4 23 hvcurveto
          3 -3 rlineto
          4 -61 3 -93 -87 vvcurveto
          -194 408 rmoveto
          31 20 30 8 32 57 80 -52 55 hhcurveto
          56 30 41 50 41 56 -24 17 rcurveline
          -33 -23 -28 -6 -35 hhcurveto
          -54 -55 20 31 -48 hvcurveto
          -67 -24 -58 -50 -44 -61 rrcurveto
          endchar
        </CharString>
        <CharString name="B">
          164 360 651 rmoveto
          -89 -111 1 6 -89 hvcurveto
          -78 -34 -93 -93 -85 vvcurveto
          -17 9 -11 17 -1 vhcurveto
          24 22 27 16 30 12 1 7 rcurveline
          -10 6 -5 14 19 vvcurveto
          14 4 20 5 14 vhcurveto
          16 16 54 5 30 1 rrcurveto
          4 -49 6 -97 -112 vvcurveto
          -117 -6 -125 -22 -100 vhcurveto
          25 -6 6 17 9 19 10 12 rlinecurve
          -19 50 83 -21 53 hhcurveto
          116 19 176 116 117 vvcurveto
          86 -62 39 -88 vhcurveto
          8 vlineto
          66 29 59 63 71 vvcurveto
          118 -99 0 -128 vhcurveto
          -46 -313 rmoveto
          98 23 -49 -98 -29 -6 -52 -9 -28 hvcurveto
          -10 -14 -26 -3 -17 hhcurveto
          -23 -37 9 14 -19 hvcurveto
          -4 67 -3 91 75 vvcurveto
          167 1 20 7 71 vhcurveto
          2 13 16 1 13 hhcurveto
          63 22 -27 -63 -34 -9 -44 -13 -25 hvcurveto
          -10 -14 -26 -3 -17 hhcurveto
          -14 hlineto
          endchar
        </CharString>
        <CharString name="C">
          60 349 -1 rmoveto
          -130 -10 168 131 80 14 109 29 75 hvcurveto
          16 18 26 4 25 hhcurveto
          39 48 -15 -27 29 hvcurveto
          1 -27 4 -31 7 -26 rrcurveto
          27 hlineto
          53 11 56 18 49 vhcurveto
          6 15 18 3 16 hhcurveto
          1 24 rlineto
          11 -61 -86 8 -62 hhcurveto
          -183 -72 -133 -167 -221 vvcurveto
          -209 106 -112 182 vhcurveto
          81 32 72 60 45 76 -15 15 rcurveline
          -44 -49 -42 -25 -61 hhcurveto
          endchar
        </CharString>
        <CharString name="CR">
          -294 endchar
        </CharString>
        <CharString name="Ccedilla">
          60 224 -217 rmoveto
          41 48 -9 -31 -9 -2 -7 -4 -7 hvcurveto
          -3 -7 -9 -2 -13 hhcurveto
          -29 -25 16 23 -14 hvcurveto
          -4 -2 -4 -16 -22 -45 -10 -15 rlinecurve
          -12 25 47 -9 26 hhcurveto
          52 28 42 38 28 53 rrcurveto
          58 -46 19 -68 vhcurveto
          -4 3 14 33 rlineto
          -1 11 10 -1 11 hhcurveto
          81 32 72 60 45 76 -15 15 rcurveline
          -44 -49 -42 -25 -61 hhcurveto
          -130 -10 168 131 80 14 109 29 75 hvcurveto
          16 18 26 4 25 hhcurveto
          39 48 -15 -27 29 hvcurveto
          1 -27 4 -31 7 -26 rrcurveto
          27 hlineto
          53 11 56 18 49 vhcurveto
          6 15 18 3 16 hhcurveto
          1 24 rlineto
          11 -61 -86 8 -62 hhcurveto
          -183 -72 -133 -167 -221 vvcurveto
          -182 80 -108 141 -25 vhcurveto
          -33 -104 rlineto
          endchar
        </CharString>
        <CharString name="D">
          207 374 651 rmoveto
          -149 -65 1 6 -89 hvcurveto
          -78 -34 -93 -93 -85 vvcurveto
          -17 9 -11 17 -1 vhcurveto
          24 22 27 16 30 12 1 7 rcurveline
          -10 6 -5 14 19 vvcurveto
          14 4 20 5 14 vhcurveto
          16 16 54 5 30 1 rrcurveto
          5 -49 5 -97 -112 vvcurveto
          -108 -7 -134 -21 -100 vhcurveto
          25 -6 6 17 9 19 10 12 rlinecurve
          -21 60 68 -19 65 hhcurveto
          194 36 130 168 197 vvcurveto
          185 -92 80 -185 vhcurveto
          -52 -65 rmoveto
          127 23 -141 -125 -77 -9 -89 -28 -68 hvcurveto
          -13 -21 -20 -4 -24 hhcurveto
          -29 -33 10 17 -24 hvcurveto
          -4 67 -3 95 67 vvcurveto
          134 2 57 6 67 vhcurveto
          2 12 15 1 10 hhcurveto
          endchar
        </CharString>
        <CharString name="E">
          58 318 -15 rmoveto
          94 29 99 97 98 vvcurveto
          17 -9 11 -17 1 vhcurveto
          -27 -24 -27 -14 -34 -12 -1 -7 rcurveline
          8 -7 3 -12 -17 vvcurveto
          -14 -3 -23 -5 -14 vhcurveto
          -9 -20 -23 -2 -21 hhcurveto
          -82 -47 50 82 91 88 27 91 hvcurveto
          12 hlineto
          5 43 rlineto
          -125 -58 61 125 10 hvcurveto
          14 18 26 6 26 hhcurveto
          39 47 -15 -27 29 hvcurveto
          5 -28 1 -31 -28 vvcurveto
          28 hlineto
          12 85 19 60 49 69 -23 15 rcurveline
          -13 -12 -12 -14 -16 -10 rrcurveto
          16 -48 -52 4 -41 hhcurveto
          -101 -35 -96 -57 -66 -82 2 -88 69 -42 88 -9 rrcurveto
          -9 vlineto
          -100 -93 -67 -100 -144 148 -48 144 hvcurveto
          endchar
        </CharString>
        <CharString name="Eacute">
          58 318 -15 rmoveto
          94 29 99 97 98 vvcurveto
          17 -9 11 -17 1 vhcurveto
          -27 -24 -27 -14 -34 -12 -1 -7 rcurveline
          8 -7 3 -12 -17 vvcurveto
          -14 -3 -23 -5 -14 vhcurveto
          -9 -20 -23 -2 -21 hhcurveto
          -82 -47 50 82 91 88 27 91 hvcurveto
          12 hlineto
          5 43 rlineto
          -125 -58 61 125 10 hvcurveto
          14 18 26 6 26 hhcurveto
          39 47 -15 -27 29 hvcurveto
          5 -28 1 -31 -28 vvcurveto
          28 hlineto
          12 85 19 60 49 69 -23 15 rcurveline
          -13 -12 -12 -14 -16 -10 rrcurveto
          16 -48 -52 4 -41 hhcurveto
          -101 -35 -96 -57 -66 -82 2 -88 69 -42 88 -9 rrcurveto
          -9 vlineto
          -100 -93 -67 -100 -144 148 -48 144 hvcurveto
          189 788 rmoveto
          -1 33 -11 55 -13 22 rrcurveto
          2 -5 -8 1 -9 hhcurveto
          -10 -10 -1 -2 -6 hvcurveto
          -44 -66 -64 -43 -91 -43 10 -24 rcurveline
          endchar
        </CharString>
        <CharString name="Ecircumflex">
          58 318 -15 rmoveto
          94 29 99 97 98 vvcurveto
          17 -9 11 -17 1 vhcurveto
          -27 -24 -27 -14 -34 -12 -1 -7 rcurveline
          8 -7 3 -12 -17 vvcurveto
          -14 -3 -23 -5 -14 vhcurveto
          -9 -20 -23 -2 -21 hhcurveto
          -82 -47 50 82 91 88 27 91 hvcurveto
          12 hlineto
          5 43 rlineto
          -125 -58 61 125 10 hvcurveto
          14 18 26 6 26 hhcurveto
          39 47 -15 -27 29 hvcurveto
          5 -28 1 -31 -28 vvcurveto
          28 hlineto
          12 85 19 60 49 69 -23 15 rcurveline
          -13 -12 -12 -14 -16 -10 rrcurveto
          16 -48 -52 4 -41 hhcurveto
          -101 -35 -96 -57 -66 -82 2 -88 69 -42 88 -9 rrcurveto
          -9 vlineto
          -100 -93 -67 -100 -144 148 -48 144 hvcurveto
          209 722 rmoveto
          10 24 -81 43 -58 43 -44 66 rlinecurve
          2 -7 -12 1 -12 hhcurveto
          -12 -12 -1 -2 -7 hvcurveto
          -44 -66 -58 -43 -81 -43 10 -24 rcurveline
          204 62 rlineto
          endchar
        </CharString>
        <CharString name="Edieresis">
          58 318 -15 rmoveto
          94 29 99 97 98 vvcurveto
          17 -9 11 -17 1 vhcurveto
          -27 -24 -27 -14 -34 -12 -1 -7 rcurveline
          8 -7 3 -12 -17 vvcurveto
          -14 -3 -23 -5 -14 vhcurveto
          -9 -20 -23 -2 -21 hhcurveto
          -82 -47 50 82 91 88 27 91 hvcurveto
          12 hlineto
          5 43 rlineto
          -125 -58 61 125 10 hvcurveto
          14 18 26 6 26 hhcurveto
          39 47 -15 -27 29 hvcurveto
          5 -28 1 -31 -28 vvcurveto
          28 hlineto
          12 85 19 60 49 69 -23 15 rcurveline
          -13 -12 -12 -14 -16 -10 rrcurveto
          16 -48 -52 4 -41 hhcurveto
          -101 -35 -96 -57 -66 -82 2 -88 69 -42 88 -9 rrcurveto
          -9 vlineto
          -100 -93 -67 -100 -144 148 -48 144 hvcurveto
          -31 824 rmoveto
          -18 27 -43 34 -28 15 -34 -15 -40 -35 -16 -26 15 -29 46 -47 29 -19 28 19 47 47 14 29 rrcurveto
          222 hmoveto
          -18 27 -43 34 -28 15 -34 -15 -40 -35 -16 -26 15 -29 46 -47 29 -19 28 19 47 47 14 29 rrcurveto
          endchar
        </CharString>
        <CharString name="Egrave">
          58 318 -15 rmoveto
          94 29 99 97 98 vvcurveto
          17 -9 11 -17 1 vhcurveto
          -27 -24 -27 -14 -34 -12 -1 -7 rcurveline
          8 -7 3 -12 -17 vvcurveto
          -14 -3 -23 -5 -14 vhcurveto
          -9 -20 -23 -2 -21 hhcurveto
          -82 -47 50 82 91 88 27 91 hvcurveto
          12 hlineto
          5 43 rlineto
          -125 -58 61 125 10 hvcurveto
          14 18 26 6 26 hhcurveto
          39 47 -15 -27 29 hvcurveto
          5 -28 1 -31 -28 vvcurveto
          28 hlineto
          12 85 19 60 49 69 -23 15 rcurveline
          -13 -12 -12 -14 -16 -10 rrcurveto
          16 -48 -52 4 -41 hhcurveto
          -101 -35 -96 -57 -66 -82 2 -88 69 -42 88 -9 rrcurveto
          -9 vlineto
          -100 -93 -67 -100 -144 148 -48 144 hvcurveto
          82 732 rmoveto
          10 24 -91 43 -64 43 -44 66 rlinecurve
          2 -7 -10 1 -9 hhcurveto
          -9 -8 -1 -2 -5 hvcurveto
          -13 -22 -11 -55 -1 -33 rrcurveto
          endchar
        </CharString>
        <CharString name="Eth">
          207 374 651 rmoveto
          -149 -65 1 6 -89 hvcurveto
          -78 -34 -93 -93 -85 vvcurveto
          -17 9 -11 17 -1 vhcurveto
          24 22 27 16 30 12 1 7 rcurveline
          -10 6 -5 14 19 vvcurveto
          14 4 20 5 14 vhcurveto
          16 16 54 5 30 1 4 -46 5 -88 1 -103 -69 -3 rcurveline
          -1 -13 -3 -15 -3 -10 3 -4 rcurveline
          16 2 28 3 29 2 -1 -105 -7 -125 -20 -95 25 -6 rcurveline
          6 17 9 19 10 12 rrcurveto
          -21 60 68 -19 65 hhcurveto
          194 36 130 168 197 vvcurveto
          185 -92 80 -185 vhcurveto
          -52 -65 rmoveto
          127 23 -141 -125 -77 -9 -89 -28 -68 hvcurveto
          -13 -21 -20 -4 -24 hhcurveto
          -29 -33 10 17 -24 hvcurveto
          -4 64 -3 89 66 vvcurveto
          101 2 rlineto
          5 vlineto
          -4 9 -3 15 -2 13 -25 -3 -38 -1 -25 -1 rrcurveto
          -4 hlineto
          112 2 55 6 62 vhcurveto
          2 12 15 1 10 hhcurveto
          endchar
        </CharString>
        <CharString name="Euro">
          66 35 290 rmoveto
          55 3 rlineto
          1 hlineto
          -3 -14 -2 -13 -2 -14 -42 3 rcurveline
          -3 -11 -7 -16 -7 -12 3 -6 rcurveline
          55 3 rlineto
          -149 3 96 -79 151 hhcurveto
          65 22 58 47 43 55 -17 17 rcurveline
          -31 -37 -39 -21 -48 hhcurveto
          -84 -21 63 79 -6 hvcurveto
          1 56 102 2 50 hhcurveto
          6 vlineto
          -6 13 0 6 -4 13 rrcurveto
          -3 -53 -93 -2 -53 hhcurveto
          44 vlineto
          1 55 103 2 51 hhcurveto
          6 vlineto
          -6 13 0 6 -4 13 rrcurveto
          -3 -52 -92 -2 -53 hhcurveto
          4 48 10 55 15 36 rrcurveto
          12 15 22 2 20 hhcurveto
          33 40 -13 -22 23 hvcurveto
          1 -23 4 -26 6 -22 rrcurveto
          25 hlineto
          1 43 9 47 15 39 rrcurveto
          5 13 13 3 12 hhcurveto
          1 23 rlineto
          9 -50 -72 7 -53 hhcurveto
          -121 -30 -94 -84 -38 -109 rrcurveto
          -1 hlineto
          -52 3 -3 -11 -7 -16 -7 -12 rlinecurve
          endchar
        </CharString>
        <CharString name="F">
          33 93 666 rmoveto
          -87 -29 -106 -101 -91 vvcurveto
          -17 9 -11 17 -1 vhcurveto
          24 22 27 16 30 12 1 7 rcurveline
          -10 6 -5 14 19 vvcurveto
          14 4 20 5 14 vhcurveto
          15 15 52 6 31 1 rrcurveto
          5 -56 7 -101 -99 vvcurveto
          -168 -9 -91 -4 -30 vhcurveto
          -14 -3 -29 -9 -13 -7 4 -27 rcurveline
          7 47 50 2 47 hhcurveto
          56 45 -2 -7 56 hvcurveto
          3 26 -15 7 -29 7 -16 3 rlinecurve
          -5 31 -8 93 -1 134 rrcurveto
          2 16 15 0 11 hhcurveto
          25 33 -1 -4 25 hvcurveto
          4 -23 9 -31 8 -20 25 4 rcurveline
          -6 29 -4 30 29 vvcurveto
          28 4 26 9 27 vhcurveto
          -22 5 rlineto
          -29 -28 -34 -6 -48 hhcurveto
          -14 -14 1 3 -14 hvcurveto
          83 4 81 4 50 vhcurveto
          -5 30 26 -3 30 hhcurveto
          20 30 2 6 20 hvcurveto
          -26 5 -44 7 -26 vhcurveto
          25 hlineto
          4 61 16 67 30 54 -19 10 rcurveline
          -24 -23 -45 -3 -33 -105 -105 21 -105 hhcurveto
          endchar
        </CharString>
        <CharString name="G">
          102 342 83 rmoveto
          -130 -3 126 130 60 12 110 24 56 hvcurveto
          14 18 26 3 25 hhcurveto
          43 54 -18 -29 33 hvcurveto
          1 -27 4 -31 7 -26 rrcurveto
          27 hlineto
          53 11 56 18 49 vhcurveto
          6 15 18 3 16 hhcurveto
          1 24 rlineto
          14 -66 -90 10 -67 hhcurveto
          -183 -63 -126 -145 -193 vvcurveto
          -182 99 -98 182 vhcurveto
          29 10 28 13 26 17 rrcurveto
          -1 vlineto
          4 -14 1 -21 -15 vvcurveto
          -18 -3 -36 -7 -17 vhcurveto
          -5 -14 -20 -4 -14 hhcurveto
          -19 -14 5 10 -6 hvcurveto
          -7 -1 -12 -30 -16 -27 -22 -24 rlinecurve
          -17 1 11 -9 17 hhcurveto
          92 101 111 84 38 hvcurveto
          5 100 7 98 10 100 9 16 12 12 13 11 -15 17 rcurveline
          -35 -52 -82 -16 -59 hhcurveto
          -14 -15 1 2 -15 hvcurveto
          -3 -22 21 -4 23 -6 17 -9 rlinecurve
          5 -22 3 -23 1 -22 5 -108 rcurveline
          -2 -12 -13 -1 -14 hhcurveto
          endchar
        </CharString>
        <CharString name="H">
          270 635 651 rmoveto
          45 3 42 7 18 vhcurveto
          5 14 20 4 14 hhcurveto
          19 14 -5 -10 6 hvcurveto
          7 1 12 30 16 27 22 24 rlinecurve
          17 -1 -11 9 -17 hhcurveto
          -97 -160 -139 -86 -45 hvcurveto
          5 -55 4 -93 2 -92 rrcurveto
          -5 -22 -32 -3 -42 hhcurveto
          -42 -34 4 5 -22 hvcurveto
          2 92 7 92 5 33 16 5 26 9 15 8 -4 27 rcurveline
          -6 -28 -31 -3 -28 hhcurveto
          -69 -59 12 1 -39 hvcurveto
          -85 -31 -102 -98 -90 vvcurveto
          -17 9 -11 17 -1 vhcurveto
          24 22 27 16 30 12 1 7 rcurveline
          -10 6 -5 14 19 vvcurveto
          14 4 20 5 14 vhcurveto
          15 15 52 6 32 1 rrcurveto
          4 -53 4 -94 -109 vvcurveto
          -168 -9 -91 -4 -30 vhcurveto
          -14 -3 -29 -9 -13 -7 4 -27 rcurveline
          7 47 50 2 47 hhcurveto
          56 44 -2 -7 56 hvcurveto
          3 26 -15 7 -29 7 -16 3 rlinecurve
          -5 34 -7 94 -1 153 rrcurveto
          4 25 28 3 45 hhcurveto
          45 26 -3 -4 25 hvcurveto
          -1 -153 -7 -94 -3 -31 -12 -3 -23 -9 -11 -7 4 -27 rcurveline
          7 46 52 2 46 hhcurveto
          50 56 -2 -7 50 hvcurveto
          3 26 -18 7 -33 7 -19 3 rlinecurve
          -6 34 -9 89 169 vvcurveto
          endchar
        </CharString>
        <CharString name="I">
          -89 275 336 rmoveto
          124 7 125 5 32 vhcurveto
          16 3 29 7 15 7 -3 26 rcurveline
          -7 -56 -45 -2 -56 hhcurveto
          -47 -50 2 7 -47 hvcurveto
          -4 -27 13 -7 29 -9 14 -3 rlinecurve
          5 -37 10 -127 -124 vvcurveto
          -168 -9 -91 -4 -30 vhcurveto
          -14 -3 -29 -9 -13 -7 4 -27 rcurveline
          7 47 50 2 47 hhcurveto
          56 45 -2 -7 56 hvcurveto
          3 26 -15 7 -29 7 -16 3 rlinecurve
          -5 34 -9 110 158 vvcurveto
          endchar
        </CharString>
        <CharString name="IJ">
          297 495 164 rmoveto
          -141 -27 -99 -112 -85 vhcurveto
          17 -21 108 49 119 77 73 93 rlinecurve
          -4 30 -9 119 168 vvcurveto
          104 10 119 5 37 vhcurveto
          14 3 29 9 13 7 -4 27 rcurveline
          -7 -47 -50 -2 -47 hhcurveto
          -56 -45 2 7 -56 hvcurveto
          -3 -26 15 -7 29 -7 16 -3 rlinecurve
          5 -32 7 -127 -104 vvcurveto
          -220 -18 rmoveto
          124 7 125 5 32 vhcurveto
          16 3 29 7 15 7 -3 26 rcurveline
          -7 -56 -45 -2 -56 hhcurveto
          -47 -50 2 7 -47 hvcurveto
          -4 -27 13 -7 29 -9 14 -3 rlinecurve
          5 -37 10 -127 -124 vvcurveto
          -168 -9 -91 -4 -30 vhcurveto
          -14 -3 -29 -9 -13 -7 4 -27 rcurveline
          7 47 50 2 47 hhcurveto
          56 45 -2 -7 56 hvcurveto
          3 26 -15 7 -29 7 -16 3 rlinecurve
          -5 34 -9 110 158 vvcurveto
          endchar
        </CharString>
        <CharString name="Iacute">
          -89 275 336 rmoveto
          124 7 125 5 32 vhcurveto
          16 3 29 7 15 7 -3 26 rcurveline
          -7 -56 -45 -2 -56 hhcurveto
          -47 -50 2 7 -47 hvcurveto
          -4 -27 13 -7 29 -9 14 -3 rlinecurve
          5 -37 10 -127 -124 vvcurveto
          -168 -9 -91 -4 -30 vhcurveto
          -14 -3 -29 -9 -13 -7 4 -27 rcurveline
          7 47 50 2 47 hhcurveto
          56 45 -2 -7 56 hvcurveto
          3 26 -15 7 -29 7 -16 3 rlinecurve
          -5 34 -9 110 158 vvcurveto
          59 437 rmoveto
          -1 33 -11 55 -13 22 rrcurveto
          2 -5 -8 1 -9 hhcurveto
          -10 -10 -1 -2 -6 hvcurveto
          -44 -66 -64 -43 -91 -43 10 -24 rcurveline
          endchar
        </CharString>
        <CharString name="Icircumflex">
          -89 275 336 rmoveto
          37 vlineto
          18 0 18 1 18 vhcurveto
          12 0 12 1 11 vhcurveto
          9 0 8 1 8 vhcurveto
          16 1 16 1 14 vhcurveto
          7 vlineto
          1 4 0 5 4 vvcurveto
          1 5 -1 3 1 4 rrcurveto
          6 1 6 5 vvcurveto
          1 4 -1 3 1 3 rrcurveto
          3 0 3 1 3 vhcurveto
          4 0 3 1 3 vhcurveto
          2 0 2 1 2 vhcurveto
          4 hlineto
          6 2 7 1 8 2 15 5 rcurveline
          14 4 rlineto
          1 2 1 1 2 hhcurveto
          0 0 1 1 vhcurveto
          -3 26 rlineto
          -2 -1 -1 -1 hhcurveto
          -1 -7 -7 -1 -7 hhcurveto
          -27 -3 rlineto
          -8 hlineto
          -2 -3 -1 -2 hhcurveto
          -1 -20 -21 -1 -21 hhcurveto
          -28 hlineto
          -47 hlineto
          -7 -7 1 -8 hhcurveto
          -18 1 -18 2 -18 2 rrcurveto
          -2 -3 0 1 -2 hvcurveto
          -5 -5 1 1 -4 hvcurveto
          -4 -27 7 -4 11 -4 11 -4 rlinecurve
          12 -4 rlineto
          -1 4 3 -1 3 hhcurveto
          -1 2 1 0 1 hhcurveto
          1 hlineto
          3 -27 2 -28 4 -49 2 -28 1 -31 1 -33 rlinecurve
          1 -30 1 -31 -31 vvcurveto
          -51 -1 -43 -1 -37 vhcurveto
          -6 -1 -6 -6 -12 -1 -11 -10 -2 -1 -3 -2 vvcurveto
          -3 -46 rlineto
          -5 vlineto
          -2 -20 rlineto
          -4 -1 -4 -4 vvcurveto
          -1 -2 0 -2 -2 -4 -1 -4 -3 vvcurveto
          -7 -2 -10 -2 -10 -4 -8 -2 -7 -3 -6 -2 rrcurveto
          -1 0 -1 0 hvcurveto
          -7 -3 4 -27 rlineto
          1 4 5 1 5 hhcurveto
          20 3 21 2 20 1 rrcurveto
          11 hlineto
          1 20 19 0 19 hhcurveto
          28 hlineto
          16 15 0 -1 15 hvcurveto
          3 3 -1 2 hhcurveto
          23 -1 23 -2 25 -3 rrcurveto
          1 1 -1 2 hhcurveto
          3 26 rlineto
          -1 hlineto
          -7 3 -8 3 -9 2 -1 1 -2 0 -2 1 rrcurveto
          -1 -2 1 -2 hhcurveto
          1 -3 -3 1 -2 hhcurveto
          -6 2 rlineto
          -3 hlineto
          -8 2 -2 9 -2 15 -1 20 rlinecurve
          -5 54 -4 89 115 vvcurveto
          101 371 rmoveto
          10 24 -68 36 -51 50 -44 66 rlinecurve
          2 -7 -12 1 -12 hhcurveto
          -12 -12 -1 -2 -7 hvcurveto
          -44 -66 -51 -50 -68 -36 10 -24 rcurveline
          184 62 rlineto
          endchar
        </CharString>
        <CharString name="Idieresis">
          -89 275 336 rmoveto
          124 7 125 5 32 vhcurveto
          16 3 29 7 15 7 -3 26 rcurveline
          -7 -56 -45 -2 -56 hhcurveto
          -47 -50 2 7 -47 hvcurveto
          -4 -27 13 -7 29 -9 14 -3 rlinecurve
          5 -37 10 -127 -124 vvcurveto
          -168 -9 -91 -4 -30 vhcurveto
          -14 -3 -29 -9 -13 -7 4 -27 rcurveline
          7 47 50 2 47 hhcurveto
          56 45 -2 -7 56 hvcurveto
          3 26 -15 7 -29 7 -16 3 rlinecurve
          -5 34 -9 110 158 vvcurveto
          -105 473 rmoveto
          -18 27 -43 34 -28 15 -34 -15 -40 -35 -16 -26 15 -29 46 -47 29 -19 28 19 47 47 14 29 rrcurveto
          222 hmoveto
          -18 27 -43 34 -28 15 -34 -15 -40 -35 -16 -26 15 -29 46 -47 29 -19 28 19 47 47 14 29 rrcurveto
          endchar
        </CharString>
        <CharString name="Igrave">
          -89 275 336 rmoveto
          124 7 125 5 32 vhcurveto
          16 3 29 7 15 7 -3 26 rcurveline
          -7 -56 -45 -2 -56 hhcurveto
          -47 -50 2 7 -47 hvcurveto
          -4 -27 13 -7 29 -9 14 -3 rlinecurve
          5 -37 10 -127 -124 vvcurveto
          -168 -9 -91 -4 -30 vhcurveto
          -14 -3 -29 -9 -13 -7 4 -27 rcurveline
          7 47 50 2 47 hhcurveto
          56 45 -2 -7 56 hvcurveto
          3 26 -15 7 -29 7 -16 3 rlinecurve
          -5 34 -9 110 158 vvcurveto
          29 381 rmoveto
          10 24 -91 43 -64 43 -44 66 rlinecurve
          2 -7 -10 1 -9 hhcurveto
          -9 -8 -1 -2 -5 hvcurveto
          -13 -22 -11 -55 -1 -33 rrcurveto
          endchar
        </CharString>
        <CharString name="Itilde">
          -89 35 733 rmoveto
          31 20 30 8 32 57 70 -52 45 hhcurveto
          56 30 41 50 41 56 -24 17 rcurveline
          -33 -23 -28 -6 -35 hhcurveto
          -54 -35 20 31 -48 hvcurveto
          -67 -24 -58 -50 -44 -61 rrcurveto
          264 -414 rmoveto
          124 7 125 5 32 vhcurveto
          16 3 29 7 15 7 -3 26 rcurveline
          -7 -56 -45 -2 -56 hhcurveto
          -47 -50 2 7 -47 hvcurveto
          -4 -27 13 -7 29 -9 14 -3 rlinecurve
          5 -37 10 -127 -124 vvcurveto
          -168 -9 -91 -4 -30 vhcurveto
          -14 -3 -29 -9 -13 -7 4 -27 rcurveline
          7 47 50 2 47 hhcurveto
          56 45 -2 -7 56 hvcurveto
          3 26 -15 7 -29 7 -16 3 rlinecurve
          -5 34 -9 110 158 vvcurveto
          endchar
        </CharString>
        <CharString name="J">
          -90 87 664 rmoveto
          -85 -31 -102 -98 -90 vvcurveto
          -17 9 -11 17 -1 vhcurveto
          24 22 27 16 30 12 1 7 rcurveline
          -10 6 -5 14 19 vvcurveto
          14 4 20 5 14 vhcurveto
          15 15 52 6 32 1 rrcurveto
          4 -53 4 -94 -81 vvcurveto
          -190 vlineto
          -141 -27 -99 -112 -85 vhcurveto
          17 -21 108 49 119 77 73 93 rlinecurve
          -4 30 -9 119 168 vvcurveto
          104 9 116 5 37 vhcurveto
          16 5 26 9 15 8 -4 27 rcurveline
          -6 -28 -31 -3 -28 hhcurveto
          -69 -59 12 1 -39 hvcurveto
          endchar
        </CharString>
        <CharString name="Jcircumflex">
          -90 375 707 rmoveto
          10 24 -68 36 -51 50 -44 66 rlinecurve
          2 -7 -12 1 -12 hhcurveto
          -12 -12 -1 -2 -7 hvcurveto
          -44 -66 -51 -50 -68 -36 10 -24 rcurveline
          184 62 rlineto
          -104 -105 rmoveto
          -85 -31 -102 -98 -90 vvcurveto
          -17 9 -11 17 -1 vhcurveto
          24 22 27 16 30 12 1 7 rcurveline
          -10 6 -5 14 19 vvcurveto
          14 4 20 5 14 vhcurveto
          15 15 52 6 32 1 rrcurveto
          4 -53 4 -94 -81 vvcurveto
          -190 vlineto
          -141 -27 -99 -112 -85 vhcurveto
          17 -21 108 49 119 77 73 93 rlinecurve
          -4 30 -9 119 168 vvcurveto
          104 9 116 5 37 vhcurveto
          16 5 26 9 15 8 -4 27 rcurveline
          -6 -28 -31 -3 -28 hhcurveto
          -69 -59 12 1 -39 hvcurveto
          endchar
        </CharString>
        <CharString name="K">
          209 288 611 rmoveto
          16 5 26 9 15 8 -4 27 rcurveline
          -6 -28 -31 -3 -28 hhcurveto
          -69 -59 12 1 -39 hvcurveto
          -85 -31 -102 -98 -90 vvcurveto
          -17 9 -11 17 -1 vhcurveto
          24 22 27 16 30 12 1 7 rcurveline
          -10 6 -5 14 19 vvcurveto
          14 4 20 5 14 vhcurveto
          15 15 52 6 31 1 rrcurveto
          1 hlineto
          5 -53 6 -94 -109 vvcurveto
          -168 -9 -91 -4 -30 vhcurveto
          -14 -3 -29 -9 -13 -7 4 -27 rcurveline
          7 47 50 2 47 hhcurveto
          56 45 -2 -7 56 hvcurveto
          3 26 -15 7 -29 7 -16 3 rlinecurve
          -4 28 -8 82 -2 118 70 72 rcurveline
          55 -133 rlineto
          18 -44 14 -43 -45 vvcurveto
          -15 -2 -19 -4 -15 vhcurveto
          -75 95 153 -64 120 hhcurveto
          28 59 7 28 4 -1 4 -2 4 hvcurveto
          -30 14 -25 18 -23 23 -8 -3 rcurveline
          -4 -27 -46 -10 -27 -3 -24 17 -32 48 -14 27 -208 395 rcurveline
          183 187 13 3 30 9 13 7 rlinecurve
          -4 27 rlineto
          -8 -38 -69 -1 -38 hhcurveto
          -30 -72 4 3 -23 hvcurveto
          -3 -16 rlineto
          17 -13 5 -11 -21 vvcurveto
          -38 -6 -45 -140 -185 vhcurveto
          117 6 125 5 40 vhcurveto
          endchar
        </CharString>
        <CharString name="L">
          47 348 -15 rmoveto
          85 31 102 98 90 vvcurveto
          17 -9 11 -17 1 vhcurveto
          -24 -22 -27 -16 -30 -12 -1 -7 rcurveline
          10 -6 5 -14 -19 vvcurveto
          -14 -4 -21 -5 -14 vhcurveto
          -20 -28 -35 -5 -34 hhcurveto
          -14 -26 2 5 -13 hvcurveto
          -5 50 -3 96 120 vvcurveto
          124 7 125 5 32 vhcurveto
          16 3 29 7 15 7 -3 26 rcurveline
          -7 -56 -45 -2 -56 hhcurveto
          -47 -50 2 7 -47 hvcurveto
          -4 -27 13 -7 29 -9 14 -3 rlinecurve
          5 -37 10 -127 -124 vvcurveto
          -109 -7 -134 -21 -100 vhcurveto
          25 -6 6 17 9 19 10 12 rlinecurve
          -21 60 68 -19 88 hhcurveto
          endchar
        </CharString>
        <CharString name="Ldotaccent">
          47 495 385 rmoveto
          -18 27 -43 34 -28 15 -34 -15 -40 -35 -16 -26 15 -29 46 -47 29 -19 28 19 47 47 14 29 rrcurveto
          -147 -400 rmoveto
          85 31 102 98 90 vvcurveto
          17 -9 11 -17 1 vhcurveto
          -24 -22 -27 -16 -30 -12 -1 -7 rcurveline
          10 -6 5 -14 -19 vvcurveto
          -14 -4 -21 -5 -14 vhcurveto
          -20 -28 -35 -5 -34 hhcurveto
          -14 -26 2 5 -13 hvcurveto
          -5 50 -3 96 120 vvcurveto
          124 7 125 5 32 vhcurveto
          16 3 29 7 15 7 -3 26 rcurveline
          -7 -56 -45 -2 -56 hhcurveto
          -47 -50 2 7 -47 hvcurveto
          -4 -27 13 -7 29 -9 14 -3 rlinecurve
          5 -37 10 -127 -124 vvcurveto
          -109 -7 -134 -21 -100 vhcurveto
          25 -6 6 17 9 19 10 12 rlinecurve
          -21 60 68 -19 88 hhcurveto
          endchar
        </CharString>
        <CharString name="Lslash">
          47 348 -15 rmoveto
          85 31 102 98 90 vvcurveto
          17 -9 11 -17 1 vhcurveto
          -24 -22 -27 -16 -30 -12 -1 -7 rcurveline
          10 -6 5 -14 -19 vvcurveto
          -14 -4 -21 -5 -14 vhcurveto
          -20 -28 -35 -5 -34 hhcurveto
          -14 -26 2 5 -13 hvcurveto
          -5 50 -3 96 120 vvcurveto
          12 vlineto
          130 48 -8 46 -7 3 -24 -12 -45 -18 -30 -11 rlinecurve
          -16 -6 2 101 6 91 4 27 rlinecurve
          16 3 29 7 15 7 -3 26 rcurveline
          -7 -56 -45 -2 -56 hhcurveto
          -47 -50 2 7 -47 hvcurveto
          -4 -27 13 -7 29 -9 14 -3 rlinecurve
          5 -36 9 -118 1 -119 -81 -23 rcurveline
          10 -48 9 -4 62 22 -2 -101 -8 -115 -18 -89 rlinecurve
          25 -6 6 17 9 19 10 12 rlinecurve
          -21 60 68 -19 88 hhcurveto
          endchar
        </CharString>
        <CharString name="M">
          389 146 664 rmoveto
          -87 -29 -109 -99 -91 vvcurveto
          -17 9 -11 17 -1 vhcurveto
          24 22 27 16 30 12 1 7 rcurveline
          -10 6 -5 14 19 vvcurveto
          14 4 20 5 14 vhcurveto
          17 17 61 4 27 1 -89 -545 rcurveline
          -14 -3 -29 -8 -13 -7 4 -27 rcurveline
          6 40 28 2 40 hhcurveto
          28 42 -2 -3 28 hvcurveto
          3 16 rlineto
          -36 19 -6 40 39 vvcurveto
          42 3 118 7 78 vhcurveto
          12 130 8 1 rlineto
          41 -102 63 -197 -109 vvcurveto
          -12 0 -10 -1 -11 vhcurveto
          13 -7 51 36 44 20 55 19 rlinecurve
          60 4 47 85 266 vhcurveto
          7 -1 21 -140 11 -159 1 -141 rlinecurve
          -12 -3 -23 -9 -11 -7 4 -27 rcurveline
          7 46 52 2 46 hhcurveto
          50 49 -2 -7 50 hvcurveto
          3 26 -18 7 -33 7 -19 3 rlinecurve
          -21 106 -29 294 108 vvcurveto
          19 2 36 4 19 vhcurveto
          15 4 19 7 13 7 -5 25 rcurveline
          -6 -39 -70 -2 -39 hhcurveto
          -45 -50 2 4 -34 hvcurveto
          -3 -17 rlineto
          16 -5 10 -12 -16 vvcurveto
          -92 -326 7 -6 -1 -17 -10 -3 rcurveline
          -6 28 rlineto
          -47 217 -22 76 31 vvcurveto
          20 14 9 20 5 vhcurveto
          -3 18 rlineto
          -6 -25 -33 -2 -25 hhcurveto
          -69 -59 12 1 -39 hvcurveto
          endchar
        </CharString>
        <CharString name="N">
          232 111 326 rmoveto
          -138 -9 -121 -4 -30 vhcurveto
          -14 -3 -29 -9 -13 -7 4 -27 rcurveline
          7 47 43 2 47 hhcurveto
          69 10 -4 -5 46 hvcurveto
          3 26 -15 7 -29 7 -16 3 rlinecurve
          -54 46 -5 124 178 vvcurveto
          77 vlineto
          4 2 rlineto
          215 -357 23 -56 -54 vvcurveto
          4 35 47 2 35 hhcurveto
          41 45 -3 -6 41 hvcurveto
          3 26 -23 8 -21 5 -26 4 rlinecurve
          -6 34 -9 89 169 vvcurveto
          124 9 137 6 30 vhcurveto
          19 3 33 7 18 7 -3 26 rcurveline
          -6 -40 -48 -3 -40 hhcurveto
          -64 -35 5 4 -26 hvcurveto
          -3 -21 rlineto
          84 -21 9 -81 -214 vvcurveto
          -94 vlineto
          -4 -2 rlineto
          -198 323 2 28 31 vvcurveto
          14 10 14 14 4 vhcurveto
          -3 18 rlineto
          -6 -25 -23 -2 -25 hhcurveto
          -69 -59 12 1 -39 hvcurveto
          -87 -29 -109 -99 -91 vvcurveto
          -17 9 -11 17 -1 vhcurveto
          24 22 27 16 30 12 1 7 rcurveline
          -10 6 -5 14 19 vvcurveto
          14 4 20 5 14 vhcurveto
          15 15 53 5 29 2 rrcurveto
          5 -61 7 -118 -77 vvcurveto
          endchar
        </CharString>
        <CharString name="Nacute">
          232 111 326 rmoveto
          -138 -9 -121 -4 -30 vhcurveto
          -14 -3 -29 -9 -13 -7 4 -27 rcurveline
          7 47 43 2 47 hhcurveto
          69 10 -4 -5 46 hvcurveto
          3 26 -15 7 -29 7 -16 3 rlinecurve
          -54 46 -5 124 178 vvcurveto
          77 vlineto
          4 2 rlineto
          215 -357 23 -56 -54 vvcurveto
          4 35 47 2 35 hhcurveto
          41 45 -3 -6 41 hvcurveto
          3 26 -23 8 -21 5 -26 4 rlinecurve
          -6 34 -9 89 169 vvcurveto
          124 9 137 6 30 vhcurveto
          19 3 33 7 18 7 -3 26 rcurveline
          -6 -40 -48 -3 -40 hhcurveto
          -64 -35 5 4 -26 hvcurveto
          -3 -21 rlineto
          84 -21 9 -81 -214 vvcurveto
          -94 vlineto
          -4 -2 rlineto
          -198 323 2 28 31 vvcurveto
          14 10 14 14 4 vhcurveto
          -3 18 rlineto
          -6 -25 -23 -2 -25 hhcurveto
          -69 -59 12 1 -39 hvcurveto
          -87 -29 -109 -99 -91 vvcurveto
          -17 9 -11 17 -1 vhcurveto
          24 22 27 16 30 12 1 7 rcurveline
          -10 6 -5 14 19 vvcurveto
          14 4 20 5 14 vhcurveto
          15 15 53 5 29 2 rrcurveto
          5 -61 7 -118 -77 vvcurveto
          460 447 rmoveto
          -1 33 -11 55 -13 22 rrcurveto
          2 -5 -8 1 -9 hhcurveto
          -10 -10 -1 -2 -6 hvcurveto
          -44 -66 -64 -43 -91 -43 10 -24 rcurveline
          endchar
        </CharString>
        <CharString name="Ntilde">
          232 111 326 rmoveto
          -138 -9 -121 -4 -30 vhcurveto
          -14 -3 -29 -9 -13 -7 4 -27 rcurveline
          7 47 43 2 47 hhcurveto
          69 10 -4 -5 46 hvcurveto
          3 26 -15 7 -29 7 -16 3 rlinecurve
          -54 46 -5 124 178 vvcurveto
          77 vlineto
          4 2 rlineto
          215 -357 23 -56 -54 vvcurveto
          4 35 47 2 35 hhcurveto
          41 45 -3 -6 41 hvcurveto
          3 26 -23 8 -21 5 -26 4 rlinecurve
          -6 34 -9 89 169 vvcurveto
          124 9 137 6 30 vhcurveto
          19 3 33 7 18 7 -3 26 rcurveline
          -6 -40 -48 -3 -40 hhcurveto
          -64 -35 5 4 -26 hvcurveto
          -3 -21 rlineto
          84 -21 9 -81 -214 vvcurveto
          -94 vlineto
          -4 -2 rlineto
          -198 323 2 28 31 vvcurveto
          14 10 14 14 4 vhcurveto
          -3 18 rlineto
          -6 -25 -23 -2 -25 hhcurveto
          -69 -59 12 1 -39 hvcurveto
          -87 -29 -109 -99 -91 vvcurveto
          -17 9 -11 17 -1 vhcurveto
          24 22 27 16 30 12 1 7 rcurveline
          -10 6 -5 14 19 vvcurveto
          14 4 20 5 14 vhcurveto
          15 15 53 5 29 2 rrcurveto
          5 -61 7 -118 -77 vvcurveto
          85 408 rmoveto
          31 20 30 8 32 57 80 -52 55 hhcurveto
          56 30 41 50 41 56 -24 17 rcurveline
          -33 -23 -28 -6 -35 hhcurveto
          -54 -55 20 31 -48 hvcurveto
          -67 -24 -58 -50 -44 -61 rrcurveto
          endchar
        </CharString>
        <CharString name="O">
          348 666 rmoveto
          -62 -37 -24 -64 -72 vvcurveto
          -32 14 -66 32 5 4 1 3 5 vhcurveto
          9 32 13 27 20 27 -2 6 rcurveline
          -29 -17 48 22 -6 hvcurveto
          15 4 15 6 15 hhcurveto
          63 42 -74 -198 -66 -10 -96 -27 -62 hvcurveto
          -11 -16 -20 -6 -21 hhcurveto
          -119 -27 161 119 69 9 102 18 67 hvcurveto
          -19 11 rlineto
          -119 -70 -68 -115 -138 vvcurveto
          -180 124 -110 180 vhcurveto
          182 63 112 146 193 vvcurveto
          184 -96 95 -184 vhcurveto
          endchar
        </CharString>
        <CharString name="OE">
          340 642 83 rmoveto
          -100 -3 76 148 hvcurveto
          3 21 30 1 12 hhcurveto
          25 23 -1 -4 15 hvcurveto
          4 -23 9 -31 8 -20 25 4 rcurveline
          -6 29 -4 30 29 vvcurveto
          28 4 26 9 27 vhcurveto
          -22 5 rlineto
          -29 -25 -27 -6 -38 hhcurveto
          -21 -20 2 5 -21 hvcurveto
          1 50 9 98 18 47 rrcurveto
          5 12 34 2 13 hhcurveto
          33 30 -2 -15 32 hvcurveto
          -31 3 -25 6 -31 vhcurveto
          27 hlineto
          2 68 7 51 33 44 -6 21 rcurveline
          -8 -58 -82 -5 -88 -70 -52 15 -104 hhcurveto
          -183 -63 -126 -145 -193 vvcurveto
          -162 82 -118 162 vhcurveto
          51 11 55 23 51 38 rrcurveto
          -48 37 51 -24 91 hhcurveto
          78 26 59 53 51 65 -16 15 rcurveline
          -39 -40 -46 -22 -55 hhcurveto
          -299 hmoveto
          -130 -3 126 130 60 12 110 24 56 hvcurveto
          14 18 26 3 25 hhcurveto
          27 31 -7 -14 27 hvcurveto
          -2 -63 -10 -110 -136 vvcurveto
          -111 -4 -44 -24 -14 vhcurveto
          endchar
        </CharString>
        <CharString name="Oacute">
          348 666 rmoveto
          -62 -37 -24 -64 -72 vvcurveto
          -32 14 -66 32 5 4 1 3 5 vhcurveto
          9 32 13 27 20 27 -2 6 rcurveline
          -29 -17 48 22 -6 hvcurveto
          15 4 15 6 15 hhcurveto
          63 42 -74 -198 -66 -10 -96 -27 -62 hvcurveto
          -11 -16 -20 -6 -21 hhcurveto
          -119 -27 161 119 69 9 102 18 67 hvcurveto
          -19 11 rlineto
          -119 -70 -68 -115 -138 vvcurveto
          -180 124 -110 180 vhcurveto
          182 63 112 146 193 vvcurveto
          184 -96 95 -184 vhcurveto
          192 107 rmoveto
          -1 33 -11 55 -13 22 rrcurveto
          2 -5 -8 1 -9 hhcurveto
          -10 -10 -1 -2 -6 hvcurveto
          -44 -66 -64 -43 -91 -43 10 -24 rcurveline
          endchar
        </CharString>
        <CharString name="Ocircumflex">
          348 666 rmoveto
          -62 -37 -24 -64 -72 vvcurveto
          -32 14 -66 32 5 4 1 3 5 vhcurveto
          9 32 13 27 20 27 -2 6 rcurveline
          -29 -17 48 22 -6 hvcurveto
          15 4 15 6 15 hhcurveto
          63 42 -74 -198 -66 -10 -96 -27 -62 hvcurveto
          -11 -16 -20 -6 -21 hhcurveto
          -119 -27 161 119 69 9 102 18 67 hvcurveto
          -19 11 rlineto
          -119 -70 -68 -115 -138 vvcurveto
          -180 124 -110 180 vhcurveto
          182 63 112 146 193 vvcurveto
          184 -96 95 -184 vhcurveto
          202 41 rmoveto
          10 24 -81 43 -58 43 -44 66 rlinecurve
          2 -7 -12 1 -12 hhcurveto
          -12 -12 -1 -2 -7 hvcurveto
          -44 -66 -58 -43 -81 -43 10 -24 rcurveline
          204 62 rlineto
          endchar
        </CharString>
        <CharString name="Odieresis">
          348 666 rmoveto
          -62 -37 -24 -64 -72 vvcurveto
          -32 14 -66 32 5 4 1 3 5 vhcurveto
          9 32 13 27 20 27 -2 6 rcurveline
          -29 -17 48 22 -6 hvcurveto
          15 4 15 6 15 hhcurveto
          63 42 -74 -198 -66 -10 -96 -27 -62 hvcurveto
          -11 -16 -20 -6 -21 hhcurveto
          -119 -27 161 119 69 9 102 18 67 hvcurveto
          -19 11 rlineto
          -119 -70 -68 -115 -138 vvcurveto
          -180 124 -110 180 vhcurveto
          182 63 112 146 193 vvcurveto
          184 -96 95 -184 vhcurveto
          -32 143 rmoveto
          -18 27 -43 34 -28 15 -34 -15 -40 -35 -16 -26 15 -29 46 -47 29 -19 28 19 47 47 14 29 rrcurveto
          222 hmoveto
          -18 27 -43 34 -28 15 -34 -15 -40 -35 -16 -26 15 -29 46 -47 29 -19 28 19 47 47 14 29 rrcurveto
          endchar
        </CharString>
        <CharString name="Ograve">
          348 666 rmoveto
          -62 -37 -24 -64 -72 vvcurveto
          -32 14 -66 32 5 4 1 3 5 vhcurveto
          9 32 13 27 20 27 -2 6 rcurveline
          -29 -17 48 22 -6 hvcurveto
          15 4 15 6 15 hhcurveto
          63 42 -74 -198 -66 -10 -96 -27 -62 hvcurveto
          -11 -16 -20 -6 -21 hhcurveto
          -119 -27 161 119 69 9 102 18 67 hvcurveto
          -19 11 rlineto
          -119 -70 -68 -115 -138 vvcurveto
          -180 124 -110 180 vhcurveto
          182 63 112 146 193 vvcurveto
          184 -96 95 -184 vhcurveto
          58 51 rmoveto
          10 24 -91 43 -64 43 -44 66 rlinecurve
          2 -7 -10 1 -9 hhcurveto
          -9 -8 -1 -2 -5 hvcurveto
          -13 -22 -11 -55 -1 -33 rrcurveto
          endchar
        </CharString>
        <CharString name="Oslash">
          348 666 rmoveto
          -62 -37 -24 -64 -72 vvcurveto
          -32 14 -66 32 5 4 1 3 5 vhcurveto
          9 32 13 27 20 27 -2 6 rcurveline
          -29 -17 48 22 -6 hvcurveto
          15 4 15 6 15 hhcurveto
          25 22 -12 -27 17 hvcurveto
          -12 -32 -140 -368 -1 -3 -1 -4 -2 -3 rlinecurve
          -33 58 -10 86 72 vvcurveto
          69 9 102 18 67 vhcurveto
          -19 11 rlineto
          -119 -70 -68 -115 -138 vvcurveto
          -131 65 -94 106 -42 vhcurveto
          -31 -71 8 -10 14 -9 11 -5 rlinecurve
          5 hlineto
          31 84 rlineto
          -8 30 31 -4 34 hhcurveto
          182 63 112 146 193 vvcurveto
          131 -49 85 -94 39 vhcurveto
          14 38 13 30 11 26 -4 3 rcurveline
          -13 -5 -18 -2 -14 -1 -9 -27 -8 -25 -9 -25 rrcurveto
          8 -30 -33 4 -37 hhcurveto
          101 -356 rmoveto
          -66 -10 -96 -27 -62 vhcurveto
          -11 -16 -20 -6 -21 hhcurveto
          -32 -25 11 19 -20 hvcurveto
          151 396 rlineto
          13 -43 7 -61 -81 vvcurveto
          endchar
        </CharString>
        <CharString name="Otilde">
          348 666 rmoveto
          -62 -37 -24 -64 -72 vvcurveto
          -32 14 -66 32 5 4 1 3 5 vhcurveto
          9 32 13 27 20 27 -2 6 rcurveline
          -29 -17 48 22 -6 hvcurveto
          15 4 15 6 15 hhcurveto
          63 42 -74 -198 -66 -10 -96 -27 -62 hvcurveto
          -11 -16 -20 -6 -21 hhcurveto
          -119 -27 161 119 69 9 102 18 67 hvcurveto
          -19 11 rlineto
          -119 -70 -68 -115 -138 vvcurveto
          -180 124 -110 180 vhcurveto
          182 63 112 146 193 vvcurveto
          184 -96 95 -184 vhcurveto
          -165 68 rmoveto
          31 20 30 8 32 57 80 -52 55 hhcurveto
          56 30 41 50 41 56 -24 17 rcurveline
          -33 -23 -28 -6 -35 hhcurveto
          -54 -55 20 31 -48 hvcurveto
          -67 -24 -58 -50 -44 -61 rrcurveto
          endchar
        </CharString>
        <CharString name="P">
          97 279 336 rmoveto
          111 5 92 3 44 vhcurveto
          2 11 17 1 11 hhcurveto
          71 18 -52 -71 -66 -16 -76 -66 hvcurveto
          -12 hlineto
          -4 -46 rlineto
          -1 8 10 0 8 hhcurveto
          128 124 84 129 143 -92 22 -143 -1 hvcurveto
          -89 -1 -112 2 -88 6 rrcurveto
          -78 -34 -93 -93 -85 vvcurveto
          -17 9 -11 17 -1 vhcurveto
          24 22 27 16 30 12 1 7 rcurveline
          -10 6 -5 14 19 vvcurveto
          14 4 20 5 14 vhcurveto
          16 16 54 5 30 1 rrcurveto
          5 -55 7 -102 -100 vvcurveto
          -168 -9 -91 -4 -30 vhcurveto
          -14 -3 -29 -9 -13 -7 4 -27 rcurveline
          7 47 50 2 47 hhcurveto
          56 45 -2 -7 56 hvcurveto
          3 26 -15 7 -29 7 -16 3 rlinecurve
          -5 34 -9 110 158 vvcurveto
          endchar
        </CharString>
        <CharString name="Q">
          172 471 -241 rmoveto
          156 31 163 90 67 vvcurveto
          11 -7 5 -7 4 vhcurveto
          -32 -9 -31 -2 -32 3 -4 -8 rcurveline
          3 -4 1 -5 -5 vvcurveto
          -22 -22 -28 -15 -15 vhcurveto
          -95 -91 64 42 -94 hvcurveto
          110 61 142 125 223 vvcurveto
          185 -99 94 -185 vhcurveto
          -167 -57 -135 -146 -176 vvcurveto
          -155 122 -76 155 10 vhcurveto
          62 37 24 64 72 vvcurveto
          32 -14 66 -32 -5 -4 -1 -3 -5 vhcurveto
          -9 -32 -13 -27 -20 -27 2 -6 rcurveline
          29 17 -48 -22 6 hvcurveto
          -15 -4 -15 -6 -15 hhcurveto
          -85 -20 132 85 60 12 83 23 56 hvcurveto
          11 16 20 5 20 hhcurveto
          129 15 -143 -129 -115 -38 -181 -115 -8 hvcurveto
          1 -1 -15 4 -14 3 -14 2 rlinecurve
          -74 -22 -86 -50 -50 -59 18 -16 rcurveline
          27 32 38 9 39 hhcurveto
          87 110 -56 -55 70 hvcurveto
          endchar
        </CharString>
        <CharString name="R">
          275 336 rmoveto
          111 5 92 3 44 vhcurveto
          2 11 17 1 11 hhcurveto
          69 19 -45 -69 -60 -22 -63 -60 hvcurveto
          -11 hlineto
          -4 -41 rlineto
          12 26 -2 -2 12 hvcurveto
          45 -119 15 -66 -42 vvcurveto
          -30 -9 -25 -9 -9 vhcurveto
          3 -18 rlineto
          3 34 53 2 34 hhcurveto
          44 58 -1 -8 44 hvcurveto
          4 27 -13 7 -30 9 -13 3 rlinecurve
          -144 292 rlineto
          66 34 47 57 74 vvcurveto
          140 -96 17 -140 -89 -112 1 6 -88 vhcurveto
          -78 -34 -93 -93 -85 vvcurveto
          -17 9 -11 17 -1 vhcurveto
          24 22 27 16 30 12 1 7 rcurveline
          -10 6 -5 14 19 vvcurveto
          14 4 20 5 14 vhcurveto
          16 16 54 5 30 1 rrcurveto
          5 -55 7 -102 -100 vvcurveto
          -168 -9 -91 -4 -30 vhcurveto
          -14 -3 -29 -9 -13 -7 4 -27 rcurveline
          7 47 50 2 47 hhcurveto
          56 45 -2 -7 56 hvcurveto
          3 26 -15 7 -29 7 -16 3 rlinecurve
          -5 34 -9 110 158 vvcurveto
          endchar
        </CharString>
        <CharString name="Racute">
          275 336 rmoveto
          111 5 92 3 44 vhcurveto
          2 11 17 1 11 hhcurveto
          69 19 -45 -69 -60 -22 -63 -60 hvcurveto
          -11 hlineto
          -4 -41 rlineto
          12 26 -2 -2 12 hvcurveto
          45 -119 15 -66 -42 vvcurveto
          -30 -9 -25 -9 -9 vhcurveto
          3 -18 rlineto
          3 34 53 2 34 hhcurveto
          44 58 -1 -8 44 hvcurveto
          4 27 -13 7 -30 9 -13 3 rlinecurve
          -144 292 rlineto
          66 34 47 57 74 vvcurveto
          140 -96 17 -140 -89 -112 1 6 -88 vhcurveto
          -78 -34 -93 -93 -85 vvcurveto
          -17 9 -11 17 -1 vhcurveto
          24 22 27 16 30 12 1 7 rcurveline
          -10 6 -5 14 19 vvcurveto
          14 4 20 5 14 vhcurveto
          16 16 54 5 30 1 rrcurveto
          5 -55 7 -102 -100 vvcurveto
          -168 -9 -91 -4 -30 vhcurveto
          -14 -3 -29 -9 -13 -7 4 -27 rcurveline
          7 47 50 2 47 hhcurveto
          56 45 -2 -7 56 hvcurveto
          3 26 -15 7 -29 7 -16 3 rlinecurve
          -5 34 -9 110 158 vvcurveto
          290 437 rmoveto
          -1 33 -11 55 -13 22 rrcurveto
          2 -5 -8 1 -9 hhcurveto
          -10 -10 -1 -2 -6 hvcurveto
          -44 -66 -64 -43 -91 -43 10 -24 rcurveline
          endchar
        </CharString>
        <CharString name="Rcaron">
          275 336 rmoveto
          111 5 92 3 44 vhcurveto
          2 11 17 1 11 hhcurveto
          69 19 -45 -69 -60 -22 -63 -60 hvcurveto
          -11 hlineto
          -4 -41 rlineto
          12 26 -2 -2 12 hvcurveto
          45 -119 15 -66 -42 vvcurveto
          -30 -9 -25 -9 -9 vhcurveto
          3 -18 rlineto
          3 34 53 2 34 hhcurveto
          44 58 -1 -8 44 hvcurveto
          4 27 -13 7 -30 9 -13 3 rlinecurve
          -144 292 rlineto
          66 34 47 57 74 vvcurveto
          140 -96 17 -140 -89 -112 1 6 -88 vhcurveto
          -78 -34 -93 -93 -85 vvcurveto
          -17 9 -11 17 -1 vhcurveto
          24 22 27 16 30 12 1 7 rcurveline
          -10 6 -5 14 19 vvcurveto
          14 4 20 5 14 vhcurveto
          16 16 54 5 30 1 rrcurveto
          5 -55 7 -102 -100 vvcurveto
          -168 -9 -91 -4 -30 vhcurveto
          -14 -3 -29 -9 -13 -7 4 -27 rcurveline
          7 47 50 2 47 hhcurveto
          56 45 -2 -7 56 hvcurveto
          3 26 -15 7 -29 7 -16 3 rlinecurve
          -5 34 -9 110 158 vvcurveto
          53 488 rmoveto
          -204 62 -10 -24 81 -43 58 -43 44 -66 rlinecurve
          -2 7 12 -1 12 hhcurveto
          12 12 1 2 7 hvcurveto
          44 66 58 43 81 43 -10 24 rcurveline
          endchar
        </CharString>
        <CharString name="Rcommaaccent">
          275 336 rmoveto
          111 5 92 3 44 vhcurveto
          2 11 17 1 11 hhcurveto
          69 19 -45 -69 -60 -22 -63 -60 hvcurveto
          -11 hlineto
          -4 -41 rlineto
          12 26 -2 -2 12 hvcurveto
          45 -119 15 -66 -42 vvcurveto
          -30 -9 -25 -9 -9 vhcurveto
          3 -18 rlineto
          3 34 53 2 34 hhcurveto
          44 58 -1 -8 44 hvcurveto
          4 27 -13 7 -30 9 -13 3 rlinecurve
          -144 292 rlineto
          66 34 47 57 74 vvcurveto
          140 -96 17 -140 -89 -112 1 6 -88 vhcurveto
          -78 -34 -93 -93 -85 vvcurveto
          -17 9 -11 17 -1 vhcurveto
          24 22 27 16 30 12 1 7 rcurveline
          -10 6 -5 14 19 vvcurveto
          14 4 20 5 14 vhcurveto
          16 16 54 5 30 1 rrcurveto
          5 -55 7 -102 -100 vvcurveto
          -168 -9 -91 -4 -30 vhcurveto
          -14 -3 -29 -9 -13 -7 4 -27 rcurveline
          7 47 50 2 47 hhcurveto
          56 45 -2 -7 56 hvcurveto
          3 26 -15 7 -29 7 -16 3 rlinecurve
          -5 34 -9 110 158 vvcurveto
          182 -431 rmoveto
          -18 24 -37 26 -28 11 -28 -11 -38 -26 -18 -24 9 -27 22 -29 24 -20 -11 -23 -22 -16 -31 -17 10 -24 rcurveline
          91 20 65 66 10 70 rrcurveto
          endchar
        </CharString>
        <CharString name="S">
          4 11 -93 rmoveto
          -34 56 80 -18 65 hhcurveto
          99 42 146 186 122 91 -275 100 113 vvcurveto
          49 41 23 42 38 41 -14 -25 29 vhcurveto
          4 -21 2 -39 -22 vvcurveto
          27 hlineto
          3 54 17 75 38 35 rrcurveto
          20 vlineto
          15 -54 -63 7 -56 hhcurveto
          -115 -43 -121 -115 -141 -90 266 -104 -113 vvcurveto
          -69 -38 -25 -61 -68 -88 34 48 5 1 6 2 5 vhcurveto
          16 17 29 14 22 hhcurveto
          7 5 -2 -4 4 hvcurveto
          7 4 1 32 6 31 12 29 rlinecurve
          11 -5 -8 6 -10 hhcurveto
          -58 -91 -108 -138 -18 1 -16 3 -14 hvcurveto
          endchar
        </CharString>
        <CharString name="Scaron">
          4 11 -93 rmoveto
          -34 56 80 -18 65 hhcurveto
          99 42 146 186 122 91 -275 100 113 vvcurveto
          49 41 23 42 38 41 -14 -25 29 vhcurveto
          4 -21 2 -39 -22 vvcurveto
          27 hlineto
          3 54 17 75 38 35 rrcurveto
          20 vlineto
          15 -54 -63 7 -56 hhcurveto
          -115 -43 -121 -115 -141 -90 266 -104 -113 vvcurveto
          -69 -38 -25 -61 -68 -88 34 48 5 1 6 2 5 vhcurveto
          16 17 29 14 22 hhcurveto
          7 5 -2 -4 4 hvcurveto
          7 4 1 32 6 31 12 29 rlinecurve
          11 -5 -8 6 -10 hhcurveto
          -58 -91 -108 -138 -18 1 -16 3 -14 hvcurveto
          282 917 rmoveto
          -204 62 -10 -24 81 -43 58 -43 44 -66 rlinecurve
          -2 7 12 -1 12 hhcurveto
          12 12 1 2 7 hvcurveto
          44 66 58 43 81 43 -10 24 rcurveline
          endchar
        </CharString>
        <CharString name="T">
          11 390 651 rmoveto
          -129 -82 15 -108 hhcurveto
          -78 -34 -93 -93 -85 vvcurveto
          -17 9 -11 17 -1 vhcurveto
          24 22 27 16 30 12 1 7 rcurveline
          -10 6 -5 14 19 vvcurveto
          14 4 20 5 14 vhcurveto
          13 23 34 6 26 hhcurveto
          21 17 -3 -4 11 hvcurveto
          5 -57 6 -102 -96 vvcurveto
          -168 -9 -91 -4 -30 vhcurveto
          -14 -3 -29 -9 -13 -7 4 -27 rcurveline
          7 47 50 2 47 hhcurveto
          56 45 -2 -7 56 hvcurveto
          3 26 -15 7 -29 7 -16 3 rlinecurve
          -5 34 -9 110 158 vvcurveto
          87 3 93 4 56 vhcurveto
          41 -4 40 -9 33 -14 29 -12 rcurveline
          12 49 21 58 30 41 -25 14 rcurveline
          -9 -14 -11 -12 -13 -9 rrcurveto
          -6 -24 -27 -3 -24 hhcurveto
          endchar
        </CharString>
        <CharString name="Thorn">
          140 278 482 rmoveto
          3 11 15 2 11 hhcurveto
          72 17 -58 -72 -70 -12 -81 -66 hvcurveto
          -12 hlineto
          -4 -46 rlineto
          -1 8 10 0 8 hhcurveto
          124 124 84 129 137 -105 28 -137 -1 hvcurveto
          -20 -21 -1 -21 hhcurveto
          2 39 3 29 2 14 16 3 29 7 15 7 -3 26 rcurveline
          -7 -56 -45 -2 -56 hhcurveto
          -47 -50 2 7 -47 hvcurveto
          -4 -27 13 -7 29 -9 14 -3 rlinecurve
          5 -37 10 -127 -124 vvcurveto
          -168 -9 -91 -4 -30 vhcurveto
          -14 -3 -29 -9 -13 -7 4 -27 rcurveline
          7 47 50 2 47 hhcurveto
          56 45 -2 -7 56 hvcurveto
          3 26 -15 7 -29 7 -16 3 rlinecurve
          -5 34 -9 110 158 vvcurveto
          48 1 49 1 43 vhcurveto
          2 1 2 2 vvcurveto
          endchar
        </CharString>
        <CharString name="U">
          241 99 582 rmoveto
          1 -8 0 -8 -8 -39 -14 -179 -99 vvcurveto
          -170 47 -86 170 vhcurveto
          48 19 46 26 37 36 -2 -24 -5 -24 -6 -9 4 -18 rcurveline
          7 47 40 2 47 hhcurveto
          56 5 -2 -7 56 hvcurveto
          3 26 -15 7 -29 7 -16 3 rlinecurve
          -5 34 -9 110 158 vvcurveto
          124 7 125 5 32 vhcurveto
          16 3 29 7 15 7 -3 26 rcurveline
          -7 -56 -45 -2 -56 hhcurveto
          -47 -50 2 7 -47 hvcurveto
          -4 -27 13 -7 29 -9 14 -3 rlinecurve
          5 -37 10 -127 -124 vvcurveto
          -126 -1 -54 -2 -29 vhcurveto
          -20 -26 -29 -14 -34 hhcurveto
          -92 0 90 103 72 5 129 6 72 hvcurveto
          4 48 7 25 34 19 -3 18 rcurveline
          -6 -19 -25 -2 -19 hhcurveto
          -66 -45 12 1 -39 hvcurveto
          -87 -29 -109 -99 -91 vvcurveto
          -17 9 -11 17 -1 vhcurveto
          24 22 27 16 30 12 1 7 rcurveline
          -10 6 -5 14 19 vvcurveto
          14 4 20 5 14 vhcurveto
          15 15 53 5 29 2 rrcurveto
          endchar
        </CharString>
        <CharString name="Uacute">
          241 99 582 rmoveto
          1 -8 0 -8 -8 -39 -14 -179 -99 vvcurveto
          -170 47 -86 170 vhcurveto
          48 19 46 26 37 36 -2 -24 -5 -24 -6 -9 4 -18 rcurveline
          7 47 40 2 47 hhcurveto
          56 5 -2 -7 56 hvcurveto
          3 26 -15 7 -29 7 -16 3 rlinecurve
          -5 34 -9 110 158 vvcurveto
          124 7 125 5 32 vhcurveto
          16 3 29 7 15 7 -3 26 rcurveline
          -7 -56 -45 -2 -56 hhcurveto
          -47 -50 2 7 -47 hvcurveto
          -4 -27 13 -7 29 -9 14 -3 rlinecurve
          5 -37 10 -127 -124 vvcurveto
          -126 -1 -54 -2 -29 vhcurveto
          -20 -26 -29 -14 -34 hhcurveto
          -92 0 90 103 72 5 129 6 72 hvcurveto
          4 48 7 25 34 19 -3 18 rcurveline
          -6 -19 -25 -2 -19 hhcurveto
          -66 -45 12 1 -39 hvcurveto
          -87 -29 -109 -99 -91 vvcurveto
          -17 9 -11 17 -1 vhcurveto
          24 22 27 16 30 12 1 7 rcurveline
          -10 6 -5 14 19 vvcurveto
          14 4 20 5 14 vhcurveto
          15 15 53 5 29 2 rrcurveto
          484 191 rmoveto
          -1 33 -11 55 -13 22 rrcurveto
          2 -5 -8 1 -9 hhcurveto
          -10 -10 -1 -2 -6 hvcurveto
          -44 -66 -64 -43 -91 -43 10 -24 rcurveline
          endchar
        </CharString>
        <CharString name="Ucircumflex">
          241 99 582 rmoveto
          1 -8 0 -8 -8 -39 -14 -179 -99 vvcurveto
          -170 47 -86 170 vhcurveto
          48 19 46 26 37 36 -2 -24 -5 -24 -6 -9 4 -18 rcurveline
          7 47 40 2 47 hhcurveto
          56 5 -2 -7 56 hvcurveto
          3 26 -15 7 -29 7 -16 3 rlinecurve
          -5 34 -9 110 158 vvcurveto
          124 7 125 5 32 vhcurveto
          16 3 29 7 15 7 -3 26 rcurveline
          -7 -56 -45 -2 -56 hhcurveto
          -47 -50 2 7 -47 hvcurveto
          -4 -27 13 -7 29 -9 14 -3 rlinecurve
          5 -37 10 -127 -124 vvcurveto
          -126 -1 -54 -2 -29 vhcurveto
          -20 -26 -29 -14 -34 hhcurveto
          -92 0 90 103 72 5 129 6 72 hvcurveto
          4 48 7 25 34 19 -3 18 rcurveline
          -6 -19 -25 -2 -19 hhcurveto
          -66 -45 12 1 -39 hvcurveto
          -87 -29 -109 -99 -91 vvcurveto
          -17 9 -11 17 -1 vhcurveto
          24 22 27 16 30 12 1 7 rcurveline
          -10 6 -5 14 19 vvcurveto
          14 4 20 5 14 vhcurveto
          15 15 53 5 29 2 rrcurveto
          472 125 rmoveto
          10 24 -81 43 -58 43 -44 66 rlinecurve
          2 -7 -12 1 -12 hhcurveto
          -12 -12 -1 -2 -7 hvcurveto
          -44 -66 -58 -43 -81 -43 10 -24 rcurveline
          204 62 rlineto
          endchar
        </CharString>
        <CharString name="Udieresis">
          241 99 582 rmoveto
          1 -8 0 -8 -8 -39 -14 -179 -99 vvcurveto
          -170 47 -86 170 vhcurveto
          48 19 46 26 37 36 -2 -24 -5 -24 -6 -9 4 -18 rcurveline
          7 47 40 2 47 hhcurveto
          56 5 -2 -7 56 hvcurveto
          3 26 -15 7 -29 7 -16 3 rlinecurve
          -5 34 -9 110 158 vvcurveto
          124 7 125 5 32 vhcurveto
          16 3 29 7 15 7 -3 26 rcurveline
          -7 -56 -45 -2 -56 hhcurveto
          -47 -50 2 7 -47 hvcurveto
          -4 -27 13 -7 29 -9 14 -3 rlinecurve
          5 -37 10 -127 -124 vvcurveto
          -126 -1 -54 -2 -29 vhcurveto
          -20 -26 -29 -14 -34 hhcurveto
          -92 0 90 103 72 5 129 6 72 hvcurveto
          4 48 7 25 34 19 -3 18 rcurveline
          -6 -19 -25 -2 -19 hhcurveto
          -66 -45 12 1 -39 hvcurveto
          -87 -29 -109 -99 -91 vvcurveto
          -17 9 -11 17 -1 vhcurveto
          24 22 27 16 30 12 1 7 rcurveline
          -10 6 -5 14 19 vvcurveto
          14 4 20 5 14 vhcurveto
          15 15 53 5 29 2 rrcurveto
          237 227 rmoveto
          -18 27 -43 34 -28 15 -34 -15 -40 -35 -16 -26 15 -29 46 -47 29 -19 28 19 47 47 14 29 rrcurveto
          222 hmoveto
          -18 27 -43 34 -28 15 -34 -15 -40 -35 -16 -26 15 -29 46 -47 29 -19 28 19 47 47 14 29 rrcurveto
          endchar
        </CharString>
        <CharString name="Ugrave">
          241 99 582 rmoveto
          1 -8 0 -8 -8 -39 -14 -179 -99 vvcurveto
          -170 47 -86 170 vhcurveto
          48 19 46 26 37 36 -2 -24 -5 -24 -6 -9 4 -18 rcurveline
          7 47 40 2 47 hhcurveto
          56 5 -2 -7 56 hvcurveto
          3 26 -15 7 -29 7 -16 3 rlinecurve
          -5 34 -9 110 158 vvcurveto
          124 7 125 5 32 vhcurveto
          16 3 29 7 15 7 -3 26 rcurveline
          -7 -56 -45 -2 -56 hhcurveto
          -47 -50 2 7 -47 hvcurveto
          -4 -27 13 -7 29 -9 14 -3 rlinecurve
          5 -37 10 -127 -124 vvcurveto
          -126 -1 -54 -2 -29 vhcurveto
          -20 -26 -29 -14 -34 hhcurveto
          -92 0 90 103 72 5 129 6 72 hvcurveto
          4 48 7 25 34 19 -3 18 rcurveline
          -6 -19 -25 -2 -19 hhcurveto
          -66 -45 12 1 -39 hvcurveto
          -87 -29 -109 -99 -91 vvcurveto
          -17 9 -11 17 -1 vhcurveto
          24 22 27 16 30 12 1 7 rcurveline
          -10 6 -5 14 19 vvcurveto
          14 4 20 5 14 vhcurveto
          15 15 53 5 29 2 rrcurveto
          320 135 rmoveto
          10 24 -91 43 -64 43 -44 66 rlinecurve
          2 -7 -10 1 -9 hhcurveto
          -9 -8 -1 -2 -5 hvcurveto
          -13 -22 -11 -55 -1 -33 rrcurveto
          endchar
        </CharString>
        <CharString name="V">
          180 435 32 rmoveto
          157 282 45 115 96 vvcurveto
          31 -4 33 -14 28 vhcurveto
          18 4 20 5 18 7 -4 27 rcurveline
          -7 -47 -34 -2 -47 hhcurveto
          -47 -36 3 5 -43 hvcurveto
          -3 -20 rlineto
          46 -21 13 -41 -59 vvcurveto
          -65 -9 -109 -69 -265 vhcurveto
          -64 237 -32 184 -11 111 16 5 26 9 15 8 -4 27 rcurveline
          -6 -28 -31 -3 -28 hhcurveto
          -69 -59 12 1 -39 hvcurveto
          -85 -31 -102 -98 -90 vvcurveto
          -17 9 -11 17 -1 vhcurveto
          24 22 27 16 30 12 1 7 rcurveline
          -10 6 -5 14 19 vvcurveto
          14 4 20 5 14 vhcurveto
          15 15 52 6 31 1 7 -17 5 -18 5 -18 rrcurveto
          95 -368 13 -82 -38 vvcurveto
          -17 -18 -9 -16 -4 vhcurveto
          3 -16 rlineto
          4 47 49 1 47 hhcurveto
          47 67 -2 -7 47 hvcurveto
          4 24 -19 6 -30 7 -18 4 rlinecurve
          endchar
        </CharString>
        <CharString name="W">
          495 756 32 rmoveto
          150 282 46 115 96 vvcurveto
          31 -4 33 -14 28 vhcurveto
          18 4 20 5 18 7 -4 27 rcurveline
          -7 -47 -34 -2 -47 hhcurveto
          -47 -36 3 5 -43 hvcurveto
          -3 -20 rlineto
          46 -21 13 -41 -59 vvcurveto
          -65 -10 -109 -62 -265 vhcurveto
          -65 241 -32 186 -10 110 18 4 24 7 18 7 -3 26 rcurveline
          -112 -10 -94 -1 -112 1 -157 1 -68 12 -36 1 rrcurveto
          -85 -31 -102 -98 -90 vvcurveto
          -17 9 -11 17 -1 vhcurveto
          24 22 27 16 30 12 1 7 rcurveline
          -10 6 -5 14 19 vvcurveto
          14 4 20 5 14 vhcurveto
          15 15 52 6 31 1 7 -17 5 -18 5 -18 rrcurveto
          95 -368 13 -82 -38 vvcurveto
          -17 -18 -9 -16 -4 vhcurveto
          3 -16 rlineto
          4 47 39 1 37 hhcurveto
          47 67 -2 -7 47 hvcurveto
          4 24 -18 3 -14 4 -15 10 rlinecurve
          33 95 27 77 21 63 rrcurveto
          34 -152 3 -47 -27 vvcurveto
          -17 -18 -12 -16 -4 vhcurveto
          3 -16 rlineto
          6 47 46 2 47 hhcurveto
          47 63 -2 -7 47 hvcurveto
          4 24 -19 6 -30 7 -18 4 rlinecurve
          -367 586 rmoveto
          69 9 -31 -69 -65 -10 -109 -62 -265 hvcurveto
          -65 241 -31 175 -10 110 rrcurveto
          8 31 39 5 30 hhcurveto
          endchar
        </CharString>
        <CharString name="X">
          173 308 611 rmoveto
          16 5 27 9 15 8 -4 27 rcurveline
          -6 -28 -37 -3 -28 hhcurveto
          -69 -74 12 1 -39 hvcurveto
          -85 -31 -102 -98 -90 vvcurveto
          -17 9 -11 17 -1 vhcurveto
          24 22 27 16 30 12 1 7 rcurveline
          -10 6 -5 14 19 vvcurveto
          14 4 20 5 14 vhcurveto
          15 15 52 6 31 1 163 -255 rcurveline
          -74 -103 -54 -81 -71 -106 -18 -4 -30 -9 -14 -7 5 -26 rcurveline
          7 47 53 2 47 hhcurveto
          40 55 -3 -6 40 hvcurveto
          3 26 -17 7 -20 7 -18 4 rlinecurve
          45 6 46 56 150 vhcurveto
          95 -153 10 -48 -43 vvcurveto
          -9 -1 -8 -3 -6 vhcurveto
          4 -15 rlineto
          5 40 46 1 40 hhcurveto
          47 47 -2 -7 47 hvcurveto
          4 27 -15 7 -22 6 -19 4 rlinecurve
          -206 343 84 111 61 68 56 57 rlinecurve
          18 4 23 8 15 7 -4 27 rcurveline
          -7 -47 -37 -2 -47 hhcurveto
          -40 -36 2 5 -40 hvcurveto
          -4 -16 rlineto
          16 -8 7 -17 -18 vvcurveto
          -27 -4 -27 -56 -118 vhcurveto
          -64 105 -6 40 39 vvcurveto
          endchar
        </CharString>
        <CharString name="Y">
          76 186 37 rmoveto
          -14 -3 -30 -9 -13 -7 4 -27 rcurveline
          7 47 51 2 47 hhcurveto
          50 56 -2 -7 50 hvcurveto
          3 26 -17 8 -24 5 -19 4 rlinecurve
          -5 37 -8 92 165 vvcurveto
          176 286 19 4 24 8 15 8 rlinecurve
          -4 26 rlineto
          -7 -39 -34 -2 -39 hhcurveto
          -37 -40 3 4 -37 hvcurveto
          -3 -16 rlineto
          16 -8 6 -14 -17 vvcurveto
          -35 -7 -32 -58 -173 vhcurveto
          -41 90 rlineto
          -20 43 -12 44 45 vvcurveto
          15 2 19 4 15 vhcurveto
          75 -95 -153 64 -120 hhcurveto
          -28 -59 -7 -28 -4 1 -4 2 -4 hvcurveto
          30 -14 25 -18 23 -23 8 3 rcurveline
          4 27 46 10 27 3 24 -17 32 -48 14 -27 162 -322 rcurveline
          -25 vlineto
          -138 -8 -70 -4 -30 vhcurveto
          endchar
        </CharString>
        <CharString name="Yacute">
          76 186 37 rmoveto
          -14 -3 -30 -9 -13 -7 4 -27 rcurveline
          7 47 51 2 47 hhcurveto
          50 56 -2 -7 50 hvcurveto
          3 26 -17 8 -24 5 -19 4 rlinecurve
          -5 37 -8 92 165 vvcurveto
          176 286 19 4 24 8 15 8 rlinecurve
          -4 26 rlineto
          -7 -39 -34 -2 -39 hhcurveto
          -37 -40 3 4 -37 hvcurveto
          -3 -16 rlineto
          16 -8 6 -14 -17 vvcurveto
          -35 -7 -32 -58 -173 vhcurveto
          -41 90 rlineto
          -20 43 -12 44 45 vvcurveto
          15 2 19 4 15 vhcurveto
          75 -95 -153 64 -120 hhcurveto
          -28 -59 -7 -28 -4 1 -4 2 -4 hvcurveto
          30 -14 25 -18 23 -23 8 3 rcurveline
          4 27 46 10 27 3 24 -17 32 -48 14 -27 162 -322 rcurveline
          -25 vlineto
          -138 -8 -70 -4 -30 vhcurveto
          371 736 rmoveto
          -1 33 -11 55 -13 22 rrcurveto
          2 -5 -8 1 -9 hhcurveto
          -10 -10 -1 -2 -6 hvcurveto
          -44 -66 -64 -43 -91 -43 10 -24 rcurveline
          endchar
        </CharString>
        <CharString name="Ydieresis">
          76 186 37 rmoveto
          -14 -3 -30 -9 -13 -7 4 -27 rcurveline
          7 47 51 2 47 hhcurveto
          50 56 -2 -7 50 hvcurveto
          3 26 -17 8 -24 5 -19 4 rlinecurve
          -5 37 -8 92 165 vvcurveto
          176 286 19 4 24 8 15 8 rlinecurve
          -4 26 rlineto
          -7 -39 -34 -2 -39 hhcurveto
          -37 -40 3 4 -37 hvcurveto
          -3 -16 rlineto
          16 -8 6 -14 -17 vvcurveto
          -35 -7 -32 -58 -173 vhcurveto
          -41 90 rlineto
          -20 43 -12 44 45 vvcurveto
          15 2 19 4 15 vhcurveto
          75 -95 -153 64 -120 hhcurveto
          -28 -59 -7 -28 -4 1 -4 2 -4 hvcurveto
          30 -14 25 -18 23 -23 8 3 rcurveline
          4 27 46 10 27 3 24 -17 32 -48 14 -27 162 -322 rcurveline
          -25 vlineto
          -138 -8 -70 -4 -30 vhcurveto
          114 772 rmoveto
          -18 27 -43 34 -28 15 -34 -15 -40 -35 -16 -26 15 -29 46 -47 29 -19 28 19 47 47 14 29 rrcurveto
          222 hmoveto
          -18 27 -43 34 -28 15 -34 -15 -40 -35 -16 -26 15 -29 46 -47 29 -19 28 19 47 47 14 29 rrcurveto
          endchar
        </CharString>
        <CharString name="Z">
          32 387 -205 rmoveto
          156 30 163 72 66 vvcurveto
          11 -7 6 -8 3 vhcurveto
          -7 -15 -18 -4 -23 hhcurveto
          -12 -13 1 2 -12 hvcurveto
          -6 -8 rlineto
          4 -3 2 -5 -6 vvcurveto
          -22 -23 -29 -15 -14 vhcurveto
          -126 -1 -69 125 -111 47 238 490 rcurveline
          14 29 14 26 13 20 11 15 12 14 15 15 -22 18 rcurveline
          -28 -28 -42 -7 -40 -129 -38 21 -108 hhcurveto
          -78 -34 -107 -99 -85 vvcurveto
          -17 9 -11 17 -1 vhcurveto
          24 22 27 16 30 12 1 7 rcurveline
          -10 6 -5 14 19 vvcurveto
          14 4 20 5 14 vhcurveto
          13 23 34 6 26 hhcurveto
          31 24 -8 -5 21 hvcurveto
          61 -17 38 14 -261 -454 -27 -47 -30 -41 -34 -36 rlinecurve
          17 -17 rlineto
          16 29 20 7 29 hhcurveto
          93 115 -105 -68 66 hvcurveto
          endchar
        </CharString>
        <CharString name="Zcaron">
          32 387 -205 rmoveto
          156 30 163 72 66 vvcurveto
          11 -7 6 -8 3 vhcurveto
          -7 -15 -18 -4 -23 hhcurveto
          -12 -13 1 2 -12 hvcurveto
          -6 -8 rlineto
          4 -3 2 -5 -6 vvcurveto
          -22 -23 -29 -15 -14 vhcurveto
          -126 -1 -69 125 -111 47 238 490 rcurveline
          14 29 14 26 13 20 11 15 12 14 15 15 -22 18 rcurveline
          -28 -28 -42 -7 -40 -129 -38 21 -108 hhcurveto
          -78 -34 -107 -99 -85 vvcurveto
          -17 9 -11 17 -1 vhcurveto
          24 22 27 16 30 12 1 7 rcurveline
          -10 6 -5 14 19 vvcurveto
          14 4 20 5 14 vhcurveto
          13 23 34 6 26 hhcurveto
          31 24 -8 -5 21 hvcurveto
          61 -17 38 14 -261 -454 -27 -47 -30 -41 -34 -36 rlinecurve
          17 -17 rlineto
          16 29 20 7 29 hhcurveto
          93 115 -105 -68 66 hvcurveto
          11 997 rmoveto
          -204 62 -10 -24 81 -43 58 -43 44 -66 rlinecurve
          -2 7 12 -1 12 hhcurveto
          12 12 1 2 7 hvcurveto
          44 66 58 43 81 43 -10 24 rcurveline
          endchar
        </CharString>
        <CharString name="a">
          94 310 31 rmoveto
          -12 -4 -14 -5 -11 -6 4 -24 rcurveline
          6 40 40 2 40 hhcurveto
          43 46 -1 -6 43 hvcurveto
          2 23 -15 5 -18 5 -15 3 rlinecurve
          -4 28 -8 89 132 vvcurveto
          101 6 105 4 29 vhcurveto
          15 3 18 5 15 7 -2 22 rcurveline
          -6 -43 -47 -4 -147 hhcurveto
          -36 -80 2 7 -53 hvcurveto
          -6 -23 15 -9 18 -7 17 -6 rlinecurve
          -132 -472 -11 -3 -24 -8 -12 -6 rlinecurve
          4 -24 rlineto
          7 41 48 2 40 hhcurveto
          23 45 -2 -5 23 hvcurveto
          3 16 rlineto
          -28 13 -7 26 30 vvcurveto
          17 3 31 9 59 vhcurveto
          3 13 27 2 22 hhcurveto
          16 35 -1 -5 16 hvcurveto
          -2 -88 -5 -46 -2 -19 rrcurveto
          10 221 rmoveto
          -2 -16 -22 -2 -24 hhcurveto
          -21 -24 2 2 -14 hvcurveto
          43 232 rlineto
          3 9 12 2 12 hhcurveto
          12 14 -1 -5 10 hvcurveto
          5 -43 4 -43 -123 vvcurveto
          endchar
        </CharString>
        <CharString name="aacute">
          101 317 31 rmoveto
          -12 -4 -14 -5 -11 -6 4 -24 rcurveline
          6 40 40 2 40 hhcurveto
          43 46 -1 -6 43 hvcurveto
          2 23 -15 5 -18 5 -15 3 rlinecurve
          -4 28 -8 89 132 vvcurveto
          101 6 105 4 29 vhcurveto
          15 3 18 5 15 7 -2 22 rcurveline
          -6 -43 -47 -4 -147 hhcurveto
          -36 -80 2 7 -53 hvcurveto
          -6 -23 15 -9 18 -7 17 -6 rlinecurve
          -132 -472 -11 -3 -24 -8 -12 -6 rlinecurve
          4 -24 rlineto
          7 41 48 2 40 hhcurveto
          23 45 -2 -5 23 hvcurveto
          3 16 rlineto
          -28 13 -7 26 30 vvcurveto
          17 3 31 9 59 vhcurveto
          3 13 27 2 22 hhcurveto
          16 35 -1 -5 16 hvcurveto
          -2 -88 -5 -46 -2 -19 rrcurveto
          10 221 rmoveto
          -2 -16 -22 -2 -24 hhcurveto
          -21 -24 2 2 -14 hvcurveto
          43 232 rlineto
          3 9 12 2 12 hhcurveto
          12 14 -1 -5 10 hvcurveto
          5 -43 4 -43 -123 vvcurveto
          202 390 rmoveto
          -1 33 -11 66 -13 22 rrcurveto
          1 -3 -6 1 -7 hhcurveto
          -13 -13 -1 -2 -6 hvcurveto
          -44 -75 -64 -69 -91 -49 10 -24 rcurveline
          endchar
        </CharString>
        <CharString name="acircumflex">
          94 310 31 rmoveto
          -12 -4 -14 -5 -11 -6 4 -24 rcurveline
          6 40 40 2 40 hhcurveto
          43 46 -1 -6 43 hvcurveto
          2 23 -15 5 -18 5 -15 3 rlinecurve
          -4 28 -8 89 132 vvcurveto
          101 6 105 4 29 vhcurveto
          15 3 18 5 15 7 -2 22 rcurveline
          -6 -43 -47 -4 -147 hhcurveto
          -36 -80 2 7 -53 hvcurveto
          -6 -23 15 -9 18 -7 17 -6 rlinecurve
          -132 -472 -11 -3 -24 -8 -12 -6 rlinecurve
          4 -24 rlineto
          7 41 48 2 40 hhcurveto
          23 45 -2 -5 23 hvcurveto
          3 16 rlineto
          -28 13 -7 26 30 vvcurveto
          17 3 31 9 59 vhcurveto
          3 13 27 2 22 hhcurveto
          16 35 -1 -5 16 hvcurveto
          -2 -88 -5 -46 -2 -19 rrcurveto
          10 221 rmoveto
          -2 -16 -22 -2 -24 hhcurveto
          -21 -24 2 2 -14 hvcurveto
          43 232 rlineto
          3 9 12 2 12 hhcurveto
          12 14 -1 -5 10 hvcurveto
          5 -43 4 -43 -123 vvcurveto
          209 300 rmoveto
          10 24 -81 49 -70 70 -44 75 rlinecurve
          1 -3 -6 1 -12 hhcurveto
          -12 -6 -1 -1 -3 hvcurveto
          -44 -75 -70 -70 -81 -49 10 -24 rcurveline
          206 79 rlineto
          endchar
        </CharString>
        <CharString name="acute">
          -202 272 664 rmoveto
          -1 33 -11 66 -13 22 rrcurveto
          1 -3 -6 1 -7 hhcurveto
          -13 -13 -1 -2 -6 hvcurveto
          -44 -75 -64 -69 -91 -49 10 -24 rcurveline
          endchar
        </CharString>
        <CharString name="acute.cap">
          -202 272 773 rmoveto
          -1 33 -11 55 -13 22 rrcurveto
          2 -5 -8 1 -9 hhcurveto
          -10 -10 -1 -2 -6 hvcurveto
          -44 -66 -64 -43 -91 -43 10 -24 rcurveline
          endchar
        </CharString>
        <CharString name="adieresis">
          94 310 31 rmoveto
          -12 -4 -14 -5 -11 -6 4 -24 rcurveline
          6 40 40 2 40 hhcurveto
          43 46 -1 -6 43 hvcurveto
          2 23 -15 5 -18 5 -15 3 rlinecurve
          -4 28 -8 89 132 vvcurveto
          101 6 105 4 29 vhcurveto
          15 3 18 5 15 7 -2 22 rcurveline
          -6 -43 -47 -4 -147 hhcurveto
          -36 -80 2 7 -53 hvcurveto
          -6 -23 15 -9 18 -7 17 -6 rlinecurve
          -132 -472 -11 -3 -24 -8 -12 -6 rlinecurve
          4 -24 rlineto
          7 41 48 2 40 hhcurveto
          23 45 -2 -5 23 hvcurveto
          3 16 rlineto
          -28 13 -7 26 30 vvcurveto
          17 3 31 9 59 vhcurveto
          3 13 27 2 22 hhcurveto
          16 35 -1 -5 16 hvcurveto
          -2 -88 -5 -46 -2 -19 rrcurveto
          10 221 rmoveto
          -2 -16 -22 -2 -24 hhcurveto
          -21 -24 2 2 -14 hvcurveto
          43 232 rlineto
          3 9 12 2 12 hhcurveto
          12 14 -1 -5 10 hvcurveto
          5 -43 4 -43 -123 vvcurveto
          -15 414 rmoveto
          -18 27 -43 34 -28 15 -34 -15 -40 -35 -16 -26 15 -29 46 -47 29 -19 28 19 47 47 14 29 rrcurveto
          222 hmoveto
          -18 27 -43 34 -28 15 -34 -15 -40 -35 -16 -26 15 -29 46 -47 29 -19 28 19 47 47 14 29 rrcurveto
          endchar
        </CharString>
        <CharString name="ae">
          202 363 540 rmoveto
          -66 -113 2 7 -53 hvcurveto
          -6 -23 15 -9 18 -7 17 -6 rlinecurve
          -149 -472 -11 -3 -24 -8 -12 -6 rlinecurve
          4 -24 rlineto
          7 41 48 2 40 hhcurveto
          23 45 -2 -5 23 hvcurveto
          3 16 rlineto
          -28 13 -7 26 30 vvcurveto
          17 -1 34 29 124 vhcurveto
          3 14 22 1 17 hhcurveto
          12 15 -1 -2 10 hvcurveto
          -179 18 -90 168 vhcurveto
          73 19 63 43 44 60 -16 19 rcurveline
          -28 -35 -32 -25 -44 hhcurveto
          -84 -3 80 100 hvcurveto
          3 12 22 1 13 hhcurveto
          21 21 -1 -4 20 hvcurveto
          4 -19 7 -25 7 -17 24 4 rcurveline
          -5 24 -4 25 24 vvcurveto
          23 4 27 7 22 vhcurveto
          -21 6 rlineto
          -25 -23 -29 -6 -40 hhcurveto
          -11 -15 1 3 -12 hvcurveto
          1 vlineto
          1 41 7 79 15 38 rrcurveto
          2 13 16 1 7 hhcurveto
          25 29 -2 -12 23 hvcurveto
          -23 3 -23 5 -23 vhcurveto
          26 hlineto
          2 46 9 48 25 39 -6 21 rcurveline
          -7 -48 -135 -5 -97 hhcurveto
          -85 -53 rmoveto
          10 11 -1 -3 9 hvcurveto
          2 -5 1 -5 -8 vvcurveto
          -11 -1 -11 -2 -18 vhcurveto
          -15 -109 rlineto
          -3 -12 -16 -1 -13 hhcurveto
          -15 -13 0 3 -11 hvcurveto
          39 169 rlineto
          2 7 10 1 9 hhcurveto
          endchar
        </CharString>
        <CharString name="agrave">
          94 310 31 rmoveto
          -12 -4 -14 -5 -11 -6 4 -24 rcurveline
          6 40 40 2 40 hhcurveto
          43 46 -1 -6 43 hvcurveto
          2 23 -15 5 -18 5 -15 3 rlinecurve
          -4 28 -8 89 132 vvcurveto
          101 6 105 4 29 vhcurveto
          15 3 18 5 15 7 -2 22 rcurveline
          -6 -43 -47 -4 -147 hhcurveto
          -36 -80 2 7 -53 hvcurveto
          -6 -23 15 -9 18 -7 17 -6 rlinecurve
          -132 -472 -11 -3 -24 -8 -12 -6 rlinecurve
          4 -24 rlineto
          7 41 48 2 40 hhcurveto
          23 45 -2 -5 23 hvcurveto
          3 16 rlineto
          -28 13 -7 26 30 vvcurveto
          17 3 31 9 59 vhcurveto
          3 13 27 2 22 hhcurveto
          16 35 -1 -5 16 hvcurveto
          -2 -88 -5 -46 -2 -19 rrcurveto
          10 221 rmoveto
          -2 -16 -22 -2 -24 hhcurveto
          -21 -24 2 2 -14 hvcurveto
          43 232 rlineto
          3 9 12 2 12 hhcurveto
          12 14 -1 -5 10 hvcurveto
          5 -43 4 -43 -123 vvcurveto
          62 293 rmoveto
          10 24 -91 49 -64 69 -44 75 rlinecurve
          2 -6 -13 1 -13 hhcurveto
          -7 -6 -1 -1 -3 hvcurveto
          -13 -22 -11 -66 -1 -33 rrcurveto
          endchar
        </CharString>
        <CharString name="ampersand">
          129 318 -15 rmoveto
          91 28 93 92 9 95 12 132 rcurveline
          26 -2 29 -2 23 -3 3 4 rcurveline
          2 26 3 22 8 26 -5 5 rcurveline
          -18 -66 -95 -13 -63 hhcurveto
          -115 -54 65 120 10 hvcurveto
          14 18 26 6 26 hhcurveto
          39 47 -15 -27 29 hvcurveto
          5 -28 1 -31 -28 vvcurveto
          28 hlineto
          12 85 19 60 49 69 -23 15 rcurveline
          -13 -12 -12 -14 -16 -10 rrcurveto
          16 -48 -52 4 -41 hhcurveto
          -101 -35 -96 -57 -66 -82 2 -88 69 -42 88 -9 rrcurveto
          -9 vlineto
          -100 -93 -67 -100 -144 148 -48 144 hvcurveto
          67 348 rmoveto
          9 -20 4 -44 1 -63 rrcurveto
          -112 vlineto
          -9 -20 -23 -2 -21 hhcurveto
          -82 -47 50 82 86 79 29 86 3 hvcurveto
          endchar
        </CharString>
        <CharString name="aring">
          94 310 31 rmoveto
          -12 -4 -14 -5 -11 -6 4 -24 rcurveline
          6 40 40 2 40 hhcurveto
          43 46 -1 -6 43 hvcurveto
          2 23 -15 5 -18 5 -15 3 rlinecurve
          -4 28 -8 89 132 vvcurveto
          101 6 105 4 29 vhcurveto
          15 3 18 5 15 7 -2 22 rcurveline
          -6 -43 -47 -4 -147 hhcurveto
          -36 -80 2 7 -53 hvcurveto
          -6 -23 15 -9 18 -7 17 -6 rlinecurve
          -132 -472 -11 -3 -24 -8 -12 -6 rlinecurve
          4 -24 rlineto
          7 41 48 2 40 hhcurveto
          23 45 -2 -5 23 hvcurveto
          3 16 rlineto
          -28 13 -7 26 30 vvcurveto
          17 3 31 9 59 vhcurveto
          3 13 27 2 22 hhcurveto
          16 35 -1 -5 16 hvcurveto
          -2 -88 -5 -46 -2 -19 rrcurveto
          10 221 rmoveto
          -2 -16 -22 -2 -24 hhcurveto
          -21 -24 2 2 -14 hvcurveto
          43 232 rlineto
          3 9 12 2 12 hhcurveto
          12 14 -1 -5 10 hvcurveto
          5 -43 4 -43 -123 vvcurveto
          -100 385 rmoveto
          -57 53 -26 58 vhcurveto
          60 18 50 42 63 vvcurveto
          61 -43 23 -60 vhcurveto
          -65 -14 -53 -46 -64 vvcurveto
          101 76 rmoveto
          37 22 -23 -36 -14 -2 -17 -5 -13 hvcurveto
          -5 -7 -17 -4 -9 hhcurveto
          -37 -22 25 35 14 2 17 5 13 hvcurveto
          5 7 17 3 9 hhcurveto
          endchar
        </CharString>
        <CharString name="asciicircum">
          44 259 550 rmoveto
          180 -272 34 18 -75 132 -38 80 -76 188 rlinecurve
          -53 -10 -76 -188 -35 -70 -75 -132 rlinecurve
          34 -18 rlineto
          endchar
        </CharString>
        <CharString name="asciitilde">
          163 25 178 rmoveto
          58 30 47 29 53 86 114 -109 86 hhcurveto
          73 27 88 81 35 86 -24 16 rcurveline
          -61 -40 -49 -33 -63 hhcurveto
          -81 -101 56 59 -69 hvcurveto
          -78 -11 -94 -94 -38 -88 rrcurveto
          endchar
        </CharString>
        <CharString name="asterisk">
          -103 240 679 rmoveto
          -3 2 rlineto
          -7 -17 -5 -2 -7 hvcurveto
          -6 14 -8 20 -8 3 -9 -4 -8 -19 -5 -14 rrcurveto
          2 -7 -17 5 -7 hhcurveto
          -3 -2 16 -27 13 -38 8 -36 rlinecurve
          -27 25 -26 31 -14 27 -4 -1 rcurveline
          -3 -6 -4 -17 -2 -7 -15 1 -21 3 -7 -5 -1 -10 12 -16 10 -12 -5 -5 -13 -12 -4 -6 1 -3 rcurveline
          30 39 -7 -11 36 hvcurveto
          -11 -36 -39 -7 -30 hhcurveto
          -1 -3 4 -6 13 -12 5 -5 rlinecurve
          -10 -12 -12 -16 1 -10 7 -5 21 3 15 1 2 -7 4 -17 3 -6 4 -1 rcurveline
          14 27 26 31 27 25 -8 -37 -13 -38 -16 -26 3 -2 rcurveline
          7 17 5 2 7 hvcurveto
          5 -14 8 -19 9 -4 8 3 8 20 6 14 rrcurveto
          -2 7 17 -5 7 hhcurveto
          3 2 -17 26 -15 39 -7 36 rlinecurve
          28 -25 26 -32 15 -26 4 1 rcurveline
          3 6 4 17 2 7 15 -2 20 -3 8 6 1 8 -13 17 -9 13 5 5 13 12 4 6 -1 3 rcurveline
          -32 -1 -41 7 -36 12 36 12 41 7 32 -1 1 3 rcurveline
          -4 6 -13 12 -5 5 9 13 13 17 -1 8 -8 6 -20 -3 -15 -2 -2 7 -4 17 -3 6 -4 1 rcurveline
          -15 -27 -26 -31 -28 -25 7 36 15 38 17 27 rrcurveto
          endchar
        </CharString>
        <CharString name="at">
          386 462 169 rmoveto
          -78 10 -91 42 -15 vhcurveto
          184 20 121 181 185 vvcurveto
          217 -156 96 -217 vhcurveto
          -265 -38 -178 -218 -267 vvcurveto
          -237 133 -114 237 vhcurveto
          44 10 53 23 37 26 -7 13 rcurveline
          -14 -36 -45 -8 -38 hhcurveto
          -198 -94 120 198 146 62 154 100 107 hvcurveto
          34 50 69 15 60 hhcurveto
          200 105 -98 -200 -101 -36 -122 -83 -58 hvcurveto
          -12 52 -2 96 53 vvcurveto
          93 6 93 3 27 vhcurveto
          14 2 17 5 13 6 -1 25 rcurveline
          -6 -40 -68 -4 -106 hhcurveto
          -33 -78 2 7 -39 hvcurveto
          -7 -25 14 -9 17 -6 15 -6 rlinecurve
          -121 -426 -10 -3 -22 -7 -11 -6 rlinecurve
          4 -26 rlineto
          7 38 44 2 37 hhcurveto
          21 42 -2 -5 21 hvcurveto
          4 19 rlineto
          -26 12 -8 24 27 vvcurveto
          16 3 28 8 49 vhcurveto
          2 13 19 2 21 hhcurveto
          17 27 -1 -3 12 hvcurveto
          1 65 rmoveto
          -2 -15 -15 -1 -22 hhcurveto
          -19 -16 1 2 -13 hvcurveto
          38 209 rlineto
          3 8 10 1 8 hhcurveto
          10 10 -1 -3 8 hvcurveto
          6 -40 2 -35 -113 vvcurveto
          endchar
        </CharString>
        <CharString name="atilde">
          94 310 31 rmoveto
          -12 -4 -14 -5 -11 -6 4 -24 rcurveline
          6 40 40 2 40 hhcurveto
          43 46 -1 -6 43 hvcurveto
          2 23 -15 5 -18 5 -15 3 rlinecurve
          -4 28 -8 89 132 vvcurveto
          101 6 105 4 29 vhcurveto
          15 3 18 5 15 7 -2 22 rcurveline
          -6 -43 -47 -4 -147 hhcurveto
          -36 -80 2 7 -53 hvcurveto
          -6 -23 15 -9 18 -7 17 -6 rlinecurve
          -132 -472 -11 -3 -24 -8 -12 -6 rlinecurve
          4 -24 rlineto
          7 41 48 2 40 hhcurveto
          23 45 -2 -5 23 hvcurveto
          3 16 rlineto
          -28 13 -7 26 30 vvcurveto
          17 3 31 9 59 vhcurveto
          3 13 27 2 22 hhcurveto
          16 35 -1 -5 16 hvcurveto
          -2 -88 -5 -46 -2 -19 rrcurveto
          10 221 rmoveto
          -2 -16 -22 -2 -24 hhcurveto
          -21 -24 2 2 -14 hvcurveto
          43 232 rlineto
          3 9 12 2 12 hhcurveto
          12 14 -1 -5 10 hvcurveto
          5 -43 4 -43 -123 vvcurveto
          -176 344 rmoveto
          31 20 30 8 32 57 80 -52 55 hhcurveto
          56 30 41 50 41 56 -24 17 rcurveline
          -33 -23 -28 -6 -35 hhcurveto
          -54 -55 20 31 -48 hvcurveto
          -67 -24 -58 -50 -44 -61 rrcurveto
          endchar
        </CharString>
        <CharString name="b">
          95 282 -15 rmoveto
          99 17 158 93 99 vvcurveto
          79 -61 28 -78 vhcurveto
          7 vlineto
          56 24 62 52 61 vvcurveto
          99 -112 0 -99 vhcurveto
          -68 -125 -8 -69 hhcurveto
          -23 vlineto
          13 -3 15 -5 11 -7 rrcurveto
          4 -28 7 -92 -111 vvcurveto
          -98 -6 -102 -19 -83 vhcurveto
          25 -6 5 14 8 15 8 10 rlinecurve
          -16 40 81 -16 45 hhcurveto
          -5 293 rmoveto
          82 18 -41 -82 -24 -5 -42 -7 -24 hvcurveto
          -7 -12 -22 -3 -14 hhcurveto
          -22 -27 8 14 -18 hvcurveto
          -3 55 -1 73 62 vvcurveto
          138 1 34 6 58 vhcurveto
          4 10 13 2 11 hhcurveto
          53 18 -31 -53 -31 -6 -35 -12 -23 hvcurveto
          -8 -13 -21 -3 -14 hhcurveto
          -11 hlineto
          endchar
        </CharString>
        <CharString name="backslash">
          -123 275 -45 rmoveto
          14 6 31 10 10 12 -23 57 -29 77 -20 58 -109 318 rcurveline
          -27 80 -20 62 -22 82 rrcurveto
          -4 hlineto
          -15 -9 -30 -6 -17 -6 19 -49 25 -69 34 -100 178 -523 rcurveline
          endchar
        </CharString>
        <CharString name="bar">
          -236 151 -199 rmoveto
          769 1 108 1 71 vhcurveto
          -5 1 -14 -10 -35 -10 -17 -7 rlinecurve
          3 -106 4 -79 -751 vvcurveto
          7 -3 13 4 33 8 9 5 rlinecurve
          endchar
        </CharString>
        <CharString name="braceleft">
          -174 224 711 rmoveto
          -59 -17 -86 -63 -62 -95 37 -60 -95 vvcurveto
          -31 -41 -26 -31 -7 vhcurveto
          4 -19 rlineto
          30 -5 38 -25 -29 -95 -37 -60 -95 vvcurveto
          -62 86 -63 59 -17 vhcurveto
          6 19 -35 18 -29 33 -12 37 rlinecurve
          92 45 101 82 vvcurveto
          -13 31 -49 31 -29 17 rrcurveto
          4 vlineto
          29 17 49 31 13 31 rrcurveto
          82 -45 101 92 vvcurveto
          12 37 28 34 35 18 rrcurveto
          endchar
        </CharString>
        <CharString name="braceright">
          -186 71 693 rmoveto
          35 -18 21 -34 12 -37 rrcurveto
          -92 -45 -101 -82 vvcurveto
          13 -31 56 -31 29 -17 rrcurveto
          -4 vlineto
          -29 -17 -56 -31 -13 -31 rrcurveto
          -82 45 -101 -92 vvcurveto
          -12 -37 -22 -33 -35 -18 6 -19 rcurveline
          59 17 86 63 62 95 -37 60 95 vvcurveto
          29 38 25 30 5 vhcurveto
          4 19 rlineto
          -31 7 -41 26 31 95 37 60 95 vvcurveto
          62 -86 63 -59 17 vhcurveto
          endchar
        </CharString>
        <CharString name="bracketleft">
          -148 296 -175 rmoveto
          -34 1 -65 7 -33 9 rrcurveto
          812 vlineto
          33 9 65 7 34 1 rrcurveto
          21 vlineto
          -61 -1 -87 1 -60 15 -7 -5 rcurveline
          7 -48 3 -199 -206 vvcurveto
          -206 -3 -201 -7 -48 vhcurveto
          7 -5 60 15 87 1 61 -1 rlinecurve
          endchar
        </CharString>
        <CharString name="bracketright">
          -148 30 -196 rmoveto
          61 1 87 -1 60 -15 7 5 rcurveline
          -7 48 -3 201 206 vvcurveto
          206 3 199 7 48 vhcurveto
          -7 5 -60 -15 -87 -1 -61 1 rlinecurve
          -21 vlineto
          34 -1 65 -7 33 -9 rrcurveto
          -812 vlineto
          -33 -9 -65 -7 -34 -1 rrcurveto
          endchar
        </CharString>
        <CharString name="brokenbar">
          -229 156 340 rmoveto
          230 1 110 1 71 vhcurveto
          -5 1 -14 -10 -35 -10 -17 -7 rlinecurve
          3 -106 3 -81 1 -212 7 -3 rcurveline
          13 4 33 8 9 5 rrcurveto
          -538 vmoveto
          230 1 110 1 71 vhcurveto
          -5 1 -14 -10 -35 -10 -17 -7 rlinecurve
          3 -106 3 -81 1 -212 7 -3 rcurveline
          13 4 33 8 9 5 rrcurveto
          endchar
        </CharString>
        <CharString name="bullet">
          -103 359 302 rmoveto
          -65 45 -46 37 -41 72 rrcurveto
          -20 hlineto
          -41 -72 -46 -36 -66 -47 rrcurveto
          -14 vlineto
          69 -44 43 -51 41 -72 rrcurveto
          20 hlineto
          41 72 44 50 67 46 rrcurveto
          endchar
        </CharString>
        <CharString name="c">
          -20 303 74 rmoveto
          -106 -6 101 106 53 10 88 21 49 hvcurveto
          12 15 22 2 20 hhcurveto
          33 40 -13 -22 23 hvcurveto
          1 -23 4 -26 6 -22 rrcurveto
          25 hlineto
          1 43 9 47 15 39 rrcurveto
          5 13 13 3 12 hhcurveto
          1 23 rlineto
          9 -50 -72 7 -53 hhcurveto
          -159 -39 -113 -135 -161 vvcurveto
          -153 97 -82 153 vhcurveto
          65 22 58 47 43 55 -17 17 rcurveline
          -31 -37 -39 -21 -48 hhcurveto
          endchar
        </CharString>
        <CharString name="caron">
          -42 216 715 rmoveto
          -206 79 -10 -24 81 -49 70 -70 44 -75 rlinecurve
          -1 3 6 -1 12 hhcurveto
          12 6 1 1 3 hvcurveto
          44 75 70 70 81 49 -10 24 rcurveline
          endchar
        </CharString>
        <CharString name="caron.cap">
          -46 214 824 rmoveto
          -204 62 -10 -24 81 -43 58 -43 44 -66 rlinecurve
          -2 7 12 -1 12 hhcurveto
          12 12 1 2 7 hvcurveto
          44 66 58 43 81 43 -10 24 rcurveline
          endchar
        </CharString>
        <CharString name="ccedilla">
          -20 192 -107 rmoveto
          41 48 -9 -31 -9 -2 -7 -4 -7 hvcurveto
          -3 -7 -9 -2 -13 hhcurveto
          -29 -25 16 23 -14 hvcurveto
          -4 -2 -4 -16 -22 -45 -10 -15 rlinecurve
          -12 25 47 -9 26 hhcurveto
          52 28 42 38 28 53 rrcurveto
          58 -46 19 -68 vhcurveto
          -4 3 9 22 rlineto
          10 9 -1 10 hhcurveto
          65 22 58 47 43 55 -17 17 rcurveline
          -31 -37 -39 -21 -48 hhcurveto
          -106 -6 101 106 53 10 88 21 49 hvcurveto
          12 15 22 2 20 hhcurveto
          33 40 -13 -22 23 hvcurveto
          1 -23 4 -26 6 -22 rrcurveto
          25 hlineto
          1 43 9 47 15 39 rrcurveto
          5 13 13 3 12 hhcurveto
          1 23 rlineto
          9 -50 -72 7 -53 hhcurveto
          -159 -39 -113 -135 -161 vvcurveto
          -131 71 -79 117 -20 vhcurveto
          -30 -93 rlineto
          endchar
        </CharString>
        <CharString name="cedilla">
          -254 54 -107 rmoveto
          41 48 -9 -31 -9 -2 -7 -4 -7 hvcurveto
          -3 -7 -9 -2 -13 hhcurveto
          -29 -25 16 23 -14 hvcurveto
          -4 -2 -4 -16 -22 -45 -10 -15 rlinecurve
          -12 25 47 -9 26 hhcurveto
          52 28 42 38 28 53 rrcurveto
          58 -46 19 -68 vhcurveto
          -4 3 23 52 -39 -2 -38 -117 rlineto
          endchar
        </CharString>
        <CharString name="cent">
          66 372 543 rmoveto
          1 29 3 23 3 28 -6 3 rcurveline
          -11 -9 -14 -8 -14 -6 rrcurveto
          -25 1 -21 -22 vvcurveto
          -141 -43 -116 -126 -146 vvcurveto
          -137 97 -76 134 -7 vhcurveto
          -1 -14 -9 -81 10 -10 13 -6 12 -1 rlinecurve
          6 1 5 110 rlineto
          7 vlineto
          58 24 52 44 39 50 -17 17 rcurveline
          -31 -37 -39 -21 -48 hhcurveto
          -3 hlineto
          5 97 13 278 22 -6 21 -10 14 -13 rlinecurve
          1 -23 4 -26 6 -22 rrcurveto
          25 hlineto
          1 43 9 47 15 39 rrcurveto
          5 13 13 3 12 hhcurveto
          1 23 -44 8 -60 6 -49 2 rlinecurve
          -51 -336 rmoveto
          -7 -109 rlineto
          -64 22 -9 79 85 vvcurveto
          47 11 85 20 43 vhcurveto
          12 15 22 2 20 hhcurveto
          5 hlineto
          endchar
        </CharString>
        <CharString name="circumflex">
          -42 422 574 rmoveto
          10 24 -81 49 -70 70 -44 75 rlinecurve
          1 -3 -6 1 -12 hhcurveto
          -12 -6 -1 -1 -3 hvcurveto
          -44 -75 -70 -70 -81 -49 10 -24 rcurveline
          206 79 rlineto
          endchar
        </CharString>
        <CharString name="circumflex.cap">
          -46 418 707 rmoveto
          10 24 -81 43 -58 43 -44 66 rlinecurve
          2 -7 -12 1 -12 hhcurveto
          -12 -12 -1 -2 -7 hvcurveto
          -44 -66 -58 -43 -81 -43 10 -24 rcurveline
          204 62 rlineto
          endchar
        </CharString>
        <CharString name="colon">
          -217 223 85 rmoveto
          -19 29 -45 36 -30 16 -36 -16 -42 -37 -17 -28 16 -30 49 -50 30 -20 30 20 49 50 15 30 rrcurveto
          339 vmoveto
          -19 29 -45 36 -30 16 -36 -16 -42 -37 -17 -28 16 -30 49 -50 30 -20 30 20 49 50 15 30 rrcurveto
          endchar
        </CharString>
        <CharString name="comma">
          -217 223 85 rmoveto
          -19 29 -45 36 -30 16 -36 -16 -42 -37 -17 -28 12 -23 35 -38 24 -20 -6 -57 -28 -56 -42 -40 16 -20 rcurveline
          78 45 100 119 90 vvcurveto
          endchar
        </CharString>
        <CharString name="commaaccent">
          -280 191 -95 rmoveto
          -18 24 -37 26 -28 11 -28 -11 -38 -26 -18 -24 9 -27 22 -29 24 -20 -11 -23 -22 -16 -31 -17 10 -24 rcurveline
          91 20 65 66 10 70 rrcurveto
          endchar
        </CharString>
        <CharString name="copyright">
          291 42 325 rmoveto
          -188 152 -152 188 188 153 152 188 188 -153 153 -188 -188 -152 -153 -188 vhcurveto
          53 hmoveto
          159 128 131 159 159 129 -131 -159 -159 -129 -130 -159 -159 -128 130 159 vhcurveto
          302 -140 rmoveto
          -71 -2 78 71 34 6 63 14 33 hvcurveto
          7 8 15 3 13 hhcurveto
          24 28 -10 -16 17 hvcurveto
          1 -17 4 -18 5 -16 rrcurveto
          18 hlineto
          32 4 34 11 32 vhcurveto
          4 9 11 2 10 hhcurveto
          1 18 rlineto
          7 -37 -52 5 -39 hhcurveto
          -114 -38 -79 -88 -118 vvcurveto
          -114 62 -54 114 vhcurveto
          49 18 43 33 31 40 -12 11 rcurveline
          -21 -29 -25 -15 -38 hhcurveto
          endchar
        </CharString>
        <CharString name="currency">
          93 81 286 rmoveto
          -40 12 -32 20 -26 vhcurveto
          -30 -27 -32 -29 -26 -22 3 -15 25 -21 10 -11 rrcurveto
          5 hlineto
          88 86 rlineto
          -22 37 46 -11 50 hhcurveto
          43 9 38 17 32 23 98 -102 rcurveline
          15 5 35 8 17 3 2 4 rcurveline
          -32 29 -40 37 -55 53 rrcurveto
          34 40 20 50 58 vvcurveto
          41 -11 34 -19 26 vhcurveto
          42 42 33 30 28 25 -2 4 rcurveline
          -17 3 -35 8 -15 5 -27 -28 -24 -26 -24 -24 rrcurveto
          21 -33 -43 12 -48 hhcurveto
          -49 -9 -45 -18 -36 -28 -103 100 rcurveline
          -5 hlineto
          -10 -11 -25 -21 -3 -15 31 -27 39 -35 35 -32 rrcurveto
          -31 -39 -18 -47 -55 vvcurveto
          195 164 rmoveto
          87 43 -56 -84 -32 -11 -43 -16 -26 hvcurveto
          -14 -18 -33 -6 -27 hhcurveto
          -86 -44 58 82 32 12 42 16 26 hvcurveto
          14 18 32 7 27 hhcurveto
          endchar
        </CharString>
        <CharString name="d">
          126 288 -15 rmoveto
          162 30 122 139 164 vvcurveto
          164 -92 62 -164 vhcurveto
          -83 -105 -7 -83 hhcurveto
          -24 vlineto
          13 -3 15 -5 11 -7 rrcurveto
          4 -28 7 -91 -113 vvcurveto
          -89 -6 -111 -17 -83 vhcurveto
          20 -5 5 14 8 16 8 10 rlinecurve
          -17 50 71 -16 54 hhcurveto
          -4 511 rmoveto
          108 17 -126 -108 -64 -8 -73 -23 -56 hvcurveto
          -11 -18 -17 -3 -19 hhcurveto
          -24 -28 8 14 -20 hvcurveto
          -3 56 -2 78 55 vvcurveto
          121 2 48 4 57 vhcurveto
          3 10 10 1 11 hhcurveto
          endchar
        </CharString>
        <CharString name="degree">
          -107 45 509 rmoveto
          -75 64 -38 75 vhcurveto
          81 17 57 58 81 vvcurveto
          75 -55 40 -75 vhcurveto
          -83 -14 -64 -60 -84 vvcurveto
          129 105 rmoveto
          55 24 -35 -54 -20 -5 -27 -8 -17 hvcurveto
          -8 -10 -22 -4 -15 hhcurveto
          -54 -25 36 53 20 5 27 8 17 hvcurveto
          8 10 22 4 15 hhcurveto
          endchar
        </CharString>
        <CharString name="dieresis">
          -73 179 688 rmoveto
          -18 27 -43 34 -28 15 -34 -15 -40 -35 -16 -26 15 -29 46 -47 29 -19 28 19 47 47 14 29 rrcurveto
          222 hmoveto
          -18 27 -43 34 -28 15 -34 -15 -40 -35 -16 -26 15 -29 46 -47 29 -19 28 19 47 47 14 29 rrcurveto
          endchar
        </CharString>
        <CharString name="dieresis.cap">
          -73 179 809 rmoveto
          -18 27 -43 34 -28 15 -34 -15 -40 -35 -16 -26 15 -29 46 -47 29 -19 28 19 47 47 14 29 rrcurveto
          222 hmoveto
          -18 27 -43 34 -28 15 -34 -15 -40 -35 -16 -26 15 -29 46 -47 29 -19 28 19 47 47 14 29 rrcurveto
          endchar
        </CharString>
        <CharString name="divide">
          102 343 390 rmoveto
          28 -27 28 -28 -27 -29 -28 -28 -27 29 -30 27 28 27 30 27 vhcurveto
          -283 vmoveto
          28 -27 28 -28 -27 -29 -28 -28 -27 29 -30 27 28 27 30 27 vhcurveto
          177 171 rmoveto
          -6 6 rlineto
          -2 -26 -33 -1 -26 hhcurveto
          -113 -137 3 6 -113 hvcurveto
          -9 -66 8 -7 rlineto
          446 hlineto
          endchar
        </CharString>
        <CharString name="dollar">
          66 248 204 rmoveto
          -8 -134 -37 5 -29 16 -24 23 rlinecurve
          -2 -4 34 25 vvcurveto
          -25 hlineto
          -63 -18 -71 -42 -47 vhcurveto
          18 -17 11 13 11 11 13 7 rlinecurve
          41 -11 38 -6 42 -2 -9 -80 rcurveline
          10 -10 13 -6 12 -1 6 1 rcurveline
          5 105 rlineto
          75 40 111 115 73 vvcurveto
          45 -75 41 -66 39 vhcurveto
          6 125 22 -5 21 -9 18 -14 rlinecurve
          4 -17 1 -32 -19 vvcurveto
          26 hlineto
          3 45 15 69 33 30 rrcurveto
          16 vlineto
          -43 11 -50 7 -46 1 2 23 2 21 3 24 -6 3 rcurveline
          -11 -9 -14 -8 -14 -6 rrcurveto
          -20 0 -18 1 -18 vhcurveto
          -84 -34 -98 -97 -82 vvcurveto
          -47 75 -43 65 -40 vhcurveto
          -31 228 rmoveto
          32 40 12 32 vhcurveto
          -4 -110 rlineto
          -39 23 -29 22 21 vvcurveto
          122 -312 rmoveto
          -34 -30 -15 -33 -2 vhcurveto
          1 vlineto
          6 112 rlineto
          32 -22 25 -21 -19 vvcurveto
          endchar
        </CharString>
        <CharString name="dotaccentcmb">
          -285 189 681 rmoveto
          -19 29 -45 36 -30 16 -36 -16 -42 -37 -17 -28 16 -30 49 -50 30 -20 30 20 49 50 15 30 rrcurveto
          endchar
        </CharString>
        <CharString name="dotaccentcmb.cap">
          -285 189 804 rmoveto
          -19 29 -45 36 -30 16 -36 -16 -42 -37 -17 -28 16 -30 49 -50 30 -20 30 20 49 50 15 30 rrcurveto
          endchar
        </CharString>
        <CharString name="dotlessi">
          -129 86 31 rmoveto
          -12 -4 -14 -5 -11 -6 4 -24 rcurveline
          6 40 41 2 40 hhcurveto
          43 46 -1 -6 43 hvcurveto
          2 23 -15 5 -18 5 -15 3 rlinecurve
          -4 28 -8 92 131 vvcurveto
          103 7 101 4 27 vhcurveto
          15 3 18 5 15 7 -2 22 rcurveline
          -6 -43 -47 -2 -42 hhcurveto
          -40 -43 3 6 -40 hvcurveto
          -3 -24 11 -6 15 -6 12 -4 rlinecurve
          4 -31 8 -103 -103 vvcurveto
          -140 -7 -76 -4 -25 vhcurveto
          endchar
        </CharString>
        <CharString name="dotlessj">
          -178 265 509 rmoveto
          12 4 15 6 11 6 -3 24 rcurveline
          -6 -40 -43 -3 -40 hhcurveto
          -42 -47 2 6 -43 hvcurveto
          -2 -22 15 -7 18 -5 15 -3 rlinecurve
          4 -28 7 -110 -90 vvcurveto
          -165 vlineto
          -123 -23 -85 -98 -74 vhcurveto
          15 -18 94 43 110 67 63 80 rlinecurve
          -3 26 -8 103 146 vvcurveto
          90 9 104 4 32 vhcurveto
          endchar
        </CharString>
        <CharString name="e">
          -17 302 74 rmoveto
          -94 -17 80 94 hvcurveto
          6 26 34 2 17 hhcurveto
          21 25 -1 -4 21 hvcurveto
          4 -19 7 -26 7 -16 24 4 rcurveline
          -5 23 -4 27 25 vvcurveto
          23 4 24 7 23 vhcurveto
          -21 6 rlineto
          -24 -24 -25 -7 -41 hhcurveto
          -25 -32 5 6 -18 hvcurveto
          2 41 10 66 16 39 rrcurveto
          10 15 21 4 21 hhcurveto
          33 40 -13 -22 24 hvcurveto
          1 -23 4 -26 6 -22 rrcurveto
          25 hlineto
          1 45 9 44 15 40 rrcurveto
          5 13 11 3 14 hhcurveto
          1 23 rlineto
          9 -51 -72 7 -53 hhcurveto
          -159 -39 -112 -135 -162 vvcurveto
          -152 95 -82 153 vhcurveto
          66 22 59 49 43 53 -17 17 rcurveline
          -32 -39 -35 -20 -51 hhcurveto
          endchar
        </CharString>
        <CharString name="eacute">
          -17 302 74 rmoveto
          -94 -17 80 94 hvcurveto
          6 26 34 2 17 hhcurveto
          21 25 -1 -4 21 hvcurveto
          4 -19 7 -26 7 -16 24 4 rcurveline
          -5 23 -4 27 25 vvcurveto
          23 4 24 7 23 vhcurveto
          -21 6 rlineto
          -24 -24 -25 -7 -41 hhcurveto
          -25 -32 5 6 -18 hvcurveto
          2 41 10 66 16 39 rrcurveto
          10 15 21 4 21 hhcurveto
          33 40 -13 -22 24 hvcurveto
          1 -23 4 -26 6 -22 rrcurveto
          25 hlineto
          1 45 9 44 15 40 rrcurveto
          5 13 11 3 14 hhcurveto
          1 23 rlineto
          9 -51 -72 7 -53 hhcurveto
          -159 -39 -112 -135 -162 vvcurveto
          -152 95 -82 153 vhcurveto
          66 22 59 49 43 53 -17 17 rcurveline
          -32 -39 -35 -20 -51 hhcurveto
          177 590 rmoveto
          -1 33 -11 66 -13 22 rrcurveto
          1 -3 -6 1 -7 hhcurveto
          -13 -13 -1 -2 -6 hvcurveto
          -44 -75 -64 -69 -91 -49 10 -24 rcurveline
          endchar
        </CharString>
        <CharString name="ecircumflex">
          -17 302 74 rmoveto
          -94 -17 80 94 hvcurveto
          6 26 34 2 17 hhcurveto
          21 25 -1 -4 21 hvcurveto
          4 -19 7 -26 7 -16 24 4 rcurveline
          -5 23 -4 27 25 vvcurveto
          23 4 24 7 23 vhcurveto
          -21 6 rlineto
          -24 -24 -25 -7 -41 hhcurveto
          -25 -32 5 6 -18 hvcurveto
          2 41 10 66 16 39 rrcurveto
          10 15 21 4 21 hhcurveto
          33 40 -13 -22 24 hvcurveto
          1 -23 4 -26 6 -22 rrcurveto
          25 hlineto
          1 45 9 44 15 40 rrcurveto
          5 13 11 3 14 hhcurveto
          1 23 rlineto
          9 -51 -72 7 -53 hhcurveto
          -159 -39 -112 -135 -162 vvcurveto
          -152 95 -82 153 vhcurveto
          66 22 59 49 43 53 -17 17 rcurveline
          -32 -39 -35 -20 -51 hhcurveto
          191 500 rmoveto
          10 24 -81 49 -70 70 -44 75 rlinecurve
          1 -3 -6 1 -12 hhcurveto
          -12 -6 -1 -1 -3 hvcurveto
          -44 -75 -70 -70 -81 -49 10 -24 rcurveline
          206 79 rlineto
          endchar
        </CharString>
        <CharString name="edieresis">
          -17 265 688 rmoveto
          -18 27 -43 34 -28 15 -34 -15 -40 -35 -16 -26 15 -29 46 -47 29 -19 28 19 47 47 14 29 rrcurveto
          222 hmoveto
          -18 27 -43 34 -28 15 -34 -15 -40 -35 -16 -26 15 -29 46 -47 29 -19 28 19 47 47 14 29 rrcurveto
          -185 -614 rmoveto
          -94 -17 80 94 hvcurveto
          6 26 34 2 17 hhcurveto
          21 25 -1 -4 21 hvcurveto
          4 -19 7 -26 7 -16 24 4 rcurveline
          -5 23 -4 27 25 vvcurveto
          23 4 24 7 23 vhcurveto
          -21 6 rlineto
          -24 -24 -25 -7 -41 hhcurveto
          -25 -32 5 6 -18 hvcurveto
          2 41 10 66 16 39 rrcurveto
          10 15 21 4 21 hhcurveto
          33 40 -13 -22 24 hvcurveto
          1 -23 4 -26 6 -22 rrcurveto
          25 hlineto
          1 45 9 44 15 40 rrcurveto
          5 13 11 3 14 hhcurveto
          1 23 rlineto
          9 -51 -72 7 -53 hhcurveto
          -159 -39 -112 -135 -162 vvcurveto
          -152 95 -82 153 vhcurveto
          66 22 59 49 43 53 -17 17 rcurveline
          -32 -39 -35 -20 -51 hhcurveto
          endchar
        </CharString>
        <CharString name="egrave">
          -17 302 74 rmoveto
          -94 -17 80 94 hvcurveto
          6 26 34 2 17 hhcurveto
          21 25 -1 -4 21 hvcurveto
          4 -19 7 -26 7 -16 24 4 rcurveline
          -5 23 -4 27 25 vvcurveto
          23 4 24 7 23 vhcurveto
          -21 6 rlineto
          -24 -24 -25 -7 -41 hhcurveto
          -25 -32 5 6 -18 hvcurveto
          2 41 10 66 16 39 rrcurveto
          10 15 21 4 21 hhcurveto
          33 40 -13 -22 24 hvcurveto
          1 -23 4 -26 6 -22 rrcurveto
          25 hlineto
          1 45 9 44 15 40 rrcurveto
          5 13 11 3 14 hhcurveto
          1 23 rlineto
          9 -51 -72 7 -53 hhcurveto
          -159 -39 -112 -135 -162 vvcurveto
          -152 95 -82 153 vhcurveto
          66 22 59 49 43 53 -17 17 rcurveline
          -32 -39 -35 -20 -51 hhcurveto
          51 493 rmoveto
          10 24 -91 49 -64 69 -44 75 rlinecurve
          2 -6 -13 1 -13 hhcurveto
          -7 -6 -1 -1 -3 hvcurveto
          -13 -22 -11 -66 -1 -33 rrcurveto
          endchar
        </CharString>
        <CharString name="eight">
          66 66 123 rmoveto
          -100 105 -39 100 vhcurveto
          90 24 77 76 38 74 rrcurveto
          107 -68 42 -64 33 vhcurveto
          46 32 42 49 43 vvcurveto
          67 -61 29 -85 vhcurveto
          -67 -14 -92 -55 -38 -57 rrcurveto
          -88 39 -46 48 -33 vhcurveto
          -63 -44 -47 -48 -52 vvcurveto
          265 -1 rmoveto
          -30 -3 -21 -5 -19 vhcurveto
          -7 -7 -19 -1 -11 hhcurveto
          -56 -43 41 56 38 14 36 15 27 hvcurveto
          59 -32 56 -25 -63 vvcurveto
          -103 335 rmoveto
          15 2 11 4 10 vhcurveto
          5 5 16 2 10 hhcurveto
          35 25 -18 -34 -27 -9 -35 -15 -24 hvcurveto
          -42 23 -31 25 47 vvcurveto
          endchar
        </CharString>
        <CharString name="ellipsis">
          242 223 85 rmoveto
          -19 29 -45 36 -30 16 -36 -16 -42 -37 -17 -28 16 -30 49 -50 30 -20 30 20 49 50 15 30 rrcurveto
          229 hmoveto
          -19 29 -45 36 -30 16 -36 -16 -42 -37 -17 -28 16 -30 49 -50 30 -20 30 20 49 50 15 30 rrcurveto
          230 hmoveto
          -19 29 -45 36 -30 16 -36 -16 -42 -37 -17 -28 16 -30 49 -50 30 -20 30 20 49 50 15 30 rrcurveto
          endchar
        </CharString>
        <CharString name="emdash">
          182 649 294 rmoveto
          -6 6 rlineto
          -2 -26 -104 -1 -26 hhcurveto
          -113 -246 3 6 -113 hvcurveto
          -8 -59 8 -7 rlineto
          626 hlineto
          endchar
        </CharString>
        <CharString name="endash">
          -18 449 294 rmoveto
          -6 6 rlineto
          -2 -26 -54 -1 -26 hhcurveto
          -143 -96 3 6 -83 hvcurveto
          -8 -59 8 -7 rlineto
          426 hlineto
          endchar
        </CharString>
        <CharString name="equal">
          102 519 196 rmoveto
          -6 6 rlineto
          -2 -26 -33 -1 -26 hhcurveto
          -113 -137 3 6 -113 hvcurveto
          -9 -66 8 -7 rlineto
          446 hlineto
          9 220 rmoveto
          -6 6 rlineto
          -2 -26 -33 -1 -26 hhcurveto
          -113 -137 3 6 -113 hvcurveto
          -9 -66 8 -7 rlineto
          446 hlineto
          endchar
        </CharString>
        <CharString name="eth">
          126 288 -15 rmoveto
          162 30 122 139 164 vvcurveto
          164 -92 62 -164 vhcurveto
          -83 -105 -7 -83 hhcurveto
          -24 vlineto
          13 -3 15 -5 11 -7 3 -26 7 -77 1 -98 -50 -2 rcurveline
          -1 -13 -3 -15 -3 -10 3 -4 rcurveline
          13 2 19 2 22 2 -1 -88 -6 -107 -16 -81 20 -5 rcurveline
          5 14 8 16 8 10 rrcurveto
          -17 50 71 -16 54 hhcurveto
          -4 511 rmoveto
          108 17 -126 -108 -64 -8 -73 -23 -56 hvcurveto
          -11 -18 -17 -3 -19 hhcurveto
          -24 -28 8 14 -20 hvcurveto
          -3 55 -2 77 55 vvcurveto
          88 2 rlineto
          5 vlineto
          -4 9 -3 15 -2 13 -22 -3 -33 -1 -24 -1 rrcurveto
          93 2 45 4 51 vhcurveto
          3 10 10 1 11 hhcurveto
          endchar
        </CharString>
        <CharString name="exclam">
          -214 223 85 rmoveto
          -19 29 -45 36 -30 16 -36 -16 -42 -37 -17 -28 16 -30 49 -50 30 -20 30 20 49 50 15 30 rrcurveto
          -121 156 rmoveto
          46 5 27 161 24 96 54 148 rlinecurve
          -14 25 -22 21 -23 14 -46 1 -45 -11 -39 -23 rrcurveto
          endchar
        </CharString>
        <CharString name="exclamdown">
          -184 67 424 rmoveto
          15 -30 49 -50 30 -20 30 20 49 50 16 30 -17 28 -42 37 -36 16 -30 -16 -45 -36 -19 -29 rrcurveto
          121 -175 rmoveto
          -46 -5 -27 -161 -24 -90 -54 -148 rlinecurve
          14 -25 22 -21 23 -14 46 -1 45 11 39 23 rrcurveto
          endchar
        </CharString>
        <CharString name="f">
          -30 251 540 rmoveto
          -80 -79 2 6 -40 hvcurveto
          -4 -24 11 -6 14 -5 12 -4 rlinecurve
          4 -30 8 -106 -103 vvcurveto
          -140 -7 -74 -4 -25 vhcurveto
          -12 -4 -15 -6 -11 -6 3 -24 rcurveline
          6 40 43 3 40 hhcurveto
          42 47 -2 -6 43 hvcurveto
          2 22 -15 7 -18 5 -15 3 rlinecurve
          -4 26 -7 72 -1 111 rrcurveto
          2 12 17 1 13 hhcurveto
          21 21 -1 -4 20 hvcurveto
          4 -19 7 -25 7 -17 24 4 rcurveline
          -5 24 -4 25 24 vvcurveto
          23 4 27 7 22 vhcurveto
          -21 6 rlineto
          -25 -23 -29 -6 -40 hhcurveto
          -11 -12 1 3 -12 hvcurveto
          70 4 61 3 42 vhcurveto
          3 9 31 2 9 hhcurveto
          25 29 -2 -12 23 hvcurveto
          -23 3 -23 5 -23 vhcurveto
          26 hlineto
          2 46 9 48 25 39 -6 21 rcurveline
          -7 -48 -98 -5 -48 hhcurveto
          endchar
        </CharString>
        <CharString name="five">
          66 376 428 rmoveto
          9 -12 6 -14 5 -16 24 5 rcurveline
          -3 18 -3 19 29 vvcurveto
          37 4 34 9 27 vhcurveto
          -11 9 -81 -18 -89 -7 -91 -2 rlinecurve
          -10 28 -22 -4 3 -22 2 -34 -3 -54 rlinecurve
          -10 -187 12 -10 rlineto
          6 23 23 2 26 hhcurveto
          68 39 -42 -68 -28 -3 -32 -10 -24 hvcurveto
          -4 -6 -14 -1 -10 hhcurveto
          -55 -45 36 46 -30 hvcurveto
          -2 23 0 18 22 vvcurveto
          -25 hlineto
          -3 -41 -13 -92 -28 -32 rrcurveto
          -14 vlineto
          -24 52 79 -20 56 hhcurveto
          81 27 96 72 51 68 rrcurveto
          123 -74 66 -123 6 vhcurveto
          -37 -7 -46 -13 -33 -13 22 113 rcurveline
          4 3 rlineto
          0 14 -7 9 -3 vhcurveto
          51 60 2 6 52 hvcurveto
          endchar
        </CharString>
        <CharString name="four">
          66 251 32 rmoveto
          -20 -3 -23 -7 -18 -7 4 -23 rcurveline
          8 47 47 0 48 hhcurveto
          40 41 -3 -6 40 hvcurveto
          4 24 -11 2 -21 8 -12 6 rlinecurve
          -5 24 -2 37 31 vvcurveto
          21 25 0 -3 32 hvcurveto
          5 2 rlineto
          52 2 40 8 42 vhcurveto
          -18 4 rlineto
          -40 -15 -16 -3 -45 hhcurveto
          -1 34 -1 22 81 vvcurveto
          50 5 98 10 49 vhcurveto
          -9 4 -31 -13 -96 -10 -44 -1 rlinecurve
          -62 -145 -66 -123 -95 -118 8 -22 rcurveline
          230 hlineto
          -30 -2 -31 -4 -30 vhcurveto
          2 422 rmoveto
          7 hlineto
          -3 -234 -40 1 -25 2 -40 4 rlinecurve
          44 69 31 81 26 77 rrcurveto
          endchar
        </CharString>
        <CharString name="fraction">
          94 41 -42 rmoveto
          398 552 62 86 41 57 33 41 rlinecurve
          -4 3 -17 1 -33 2 -17 4 rlinecurve
          -46 -70 -37 -55 -49 -68 -254 -351 rcurveline
          -36 -49 -51 -64 -38 -48 7 -15 24 -15 12 -10 rrcurveto
          endchar
        </CharString>
        <CharString name="g">
          35 302 74 rmoveto
          -105 -6 102 105 50 11 93 19 46 hvcurveto
          10 14 30 5 17 hhcurveto
          40 41 -11 -28 30 hvcurveto
          1 -23 4 -26 6 -22 rrcurveto
          25 hlineto
          45 10 43 15 41 vhcurveto
          5 13 12 3 13 hhcurveto
          1 23 rlineto
          13 -61 -71 7 -62 hhcurveto
          -159 -39 -112 -135 -161 vvcurveto
          -153 96 -82 152 vhcurveto
          45 15 49 26 35 33 10 -20 6 -23 6 -22 rrcurveto
          21 hlineto
          4 84 6 82 9 84 7 13 10 10 11 9 -11 17 rcurveline
          -28 -44 -79 -15 -50 hhcurveto
          -12 -12 1 2 -13 hvcurveto
          -2 -21 17 -3 20 -5 14 -8 rlinecurve
          5 -17 2 -21 1 -18 4 -83 rcurveline
          -2 -10 -11 -1 -12 hhcurveto
          endchar
        </CharString>
        <CharString name="germandbls">
          348 79 114 rmoveto
          -2 -4 34 25 vvcurveto
          -25 hlineto
          -63 -18 -71 -42 -47 vhcurveto
          18 -17 11 13 11 11 13 7 rlinecurve
          -13 47 43 -6 50 hhcurveto
          74 30 130 128 79 81 -241 70 59 vvcurveto
          32 41 12 32 33 35 -11 -21 26 vhcurveto
          4 -17 1 -32 -19 vvcurveto
          26 hlineto
          3 45 15 69 33 30 rrcurveto
          16 vlineto
          13 -48 -56 6 -50 hhcurveto
          -87 -24 -117 -107 -90 -82 231 -72 -60 vvcurveto
          -37 -37 -14 -37 -49 -37 17 28 -29 vhcurveto
          411 hmoveto
          -2 -4 34 25 vvcurveto
          -25 hlineto
          -63 -18 -71 -42 -47 vhcurveto
          18 -17 11 13 11 11 13 7 rlinecurve
          -13 47 43 -6 50 hhcurveto
          74 30 130 128 79 81 -241 70 59 vvcurveto
          32 41 12 32 33 35 -11 -21 26 vhcurveto
          4 -17 1 -32 -19 vvcurveto
          26 hlineto
          3 45 15 69 33 30 rrcurveto
          16 vlineto
          13 -48 -56 6 -50 hhcurveto
          -87 -24 -117 -107 -90 -82 231 -72 -60 vvcurveto
          -37 -37 -14 -37 -49 -37 17 28 -29 vhcurveto
          endchar
        </CharString>
        <CharString name="grave">
          -202 262 567 rmoveto
          10 24 -91 49 -64 69 -44 75 rlinecurve
          2 -6 -13 1 -13 hhcurveto
          -7 -6 -1 -1 -3 hvcurveto
          -13 -22 -11 -66 -1 -33 rrcurveto
          endchar
        </CharString>
        <CharString name="grave.cap">
          -202 262 717 rmoveto
          10 24 -91 43 -64 43 -44 66 rlinecurve
          2 -7 -10 1 -9 hhcurveto
          -9 -8 -1 -2 -5 hvcurveto
          -13 -22 -11 -55 -1 -33 rrcurveto
          endchar
        </CharString>
        <CharString name="greater">
          102 507 286 rmoveto
          -45 14 -50 18 -91 34 -85 32 -85 38 -72 37 -24 -66 rcurveline
          5 -10 349 -129 rlineto
          -4 vlineto
          -349 -128 -5 -10 26 -67 72 36 80 36 88 35 rlinecurve
          75 30 61 21 64 19 rrcurveto
          endchar
        </CharString>
        <CharString name="guillemotleft">
          17 143 297 rmoveto
          112 193 -19 13 -69 -78 -63 -76 -76 -46 rlinecurve
          -20 vlineto
          80 -52 55 -75 73 -81 20 14 rcurveline
          77 208 rmoveto
          112 173 -19 13 -69 -68 -63 -66 -76 -46 rlinecurve
          -20 vlineto
          80 -52 55 -65 73 -71 20 14 rcurveline
          endchar
        </CharString>
        <CharString name="guillemotright">
          17 235 89 rmoveto
          20 -14 73 81 55 75 80 52 rlinecurve
          20 vlineto
          -76 46 -63 76 -69 78 -19 -13 rcurveline
          112 -193 rlineto
          -303 -188 rmoveto
          20 -14 73 71 55 65 80 52 rlinecurve
          20 vlineto
          -76 46 -63 66 -69 68 -19 -13 rcurveline
          112 -173 rlineto
          endchar
        </CharString>
        <CharString name="guilsinglleft">
          -173 143 297 rmoveto
          112 193 -19 13 -69 -78 -63 -66 -76 -56 rlinecurve
          -20 vlineto
          80 -62 55 -65 73 -81 20 14 rcurveline
          endchar
        </CharString>
        <CharString name="guilsinglright">
          -173 45 89 rmoveto
          20 -14 73 81 55 75 80 52 rlinecurve
          20 vlineto
          -76 46 -63 76 -69 78 -19 -13 rcurveline
          112 -193 rlineto
          endchar
        </CharString>
        <CharString name="h">
          400 36 rmoveto
          -12 -4 -14 -5 -11 -6 4 -24 rcurveline
          6 40 41 2 40 hhcurveto
          43 46 -1 -6 43 hvcurveto
          2 23 -15 5 -18 5 -15 3 rlinecurve
          -5 28 -8 74 141 vvcurveto
          102 8 109 5 28 vhcurveto
          15 3 18 5 15 7 -2 22 rcurveline
          -6 -43 -47 -2 -42 hhcurveto
          -40 -43 3 6 -40 hvcurveto
          -3 -24 11 -6 15 -6 12 -4 rlinecurve
          3 -26 5 -71 1 -81 rrcurveto
          -4 -17 -28 -3 -34 hhcurveto
          -35 -28 4 4 -18 hvcurveto
          80 4 73 5 26 vhcurveto
          15 3 18 5 15 7 -2 22 rcurveline
          -6 -43 -47 -2 -42 hhcurveto
          -40 -42 3 6 -40 hvcurveto
          -3 -24 11 -6 15 -6 12 -4 rlinecurve
          4 -30 8 -105 -102 vvcurveto
          -140 -7 -76 -3 -25 vhcurveto
          -12 -4 -14 -5 -11 -6 4 -24 rcurveline
          6 40 40 2 40 hhcurveto
          43 46 -1 -6 43 hvcurveto
          2 23 -15 5 -18 5 -15 3 rlinecurve
          -4 28 -7 75 128 vvcurveto
          4 20 30 2 31 hhcurveto
          31 27 -2 -4 21 hvcurveto
          -1 -128 -5 -75 -3 -26 rrcurveto
          endchar
        </CharString>
        <CharString name="hbar">
          400 36 rmoveto
          -12 -4 -14 -5 -11 -6 4 -24 rcurveline
          6 40 41 2 40 hhcurveto
          43 46 -1 -6 43 hvcurveto
          2 23 -15 5 -18 5 -15 3 rlinecurve
          -5 28 -8 74 141 vvcurveto
          46 1 48 2 41 vhcurveto
          70 1 rlineto
          5 vlineto
          -4 9 -3 15 -2 13 -16 -2 -22 -1 -20 -1 2 30 3 24 2 11 15 3 18 5 15 7 -2 22 rcurveline
          -6 -43 -47 -2 -42 hhcurveto
          -40 -43 3 6 -40 hvcurveto
          -3 -24 11 -6 15 -6 12 -4 rlinecurve
          5 -69 -154 -6 1 35 3 28 3 14 rlinecurve
          15 3 18 5 15 7 -2 22 rcurveline
          -6 -43 -47 -2 -42 hhcurveto
          -40 -42 3 6 -40 hvcurveto
          -3 -24 11 -6 15 -6 12 -4 rlinecurve
          2 -14 2 -30 3 -37 -56 -2 rcurveline
          -1 -13 -3 -15 -3 -10 3 -4 rcurveline
          14 2 23 3 25 1 rrcurveto
          2 -36 1 -42 -40 vvcurveto
          -140 -7 -76 -3 -25 vhcurveto
          -12 -4 -14 -5 -11 -6 4 -24 rcurveline
          6 40 40 2 40 hhcurveto
          43 46 -1 -6 43 hvcurveto
          2 23 -15 5 -18 5 -15 3 rlinecurve
          -4 28 -7 75 128 vvcurveto
          4 20 30 2 31 hhcurveto
          31 27 -2 -4 21 hvcurveto
          -1 -128 -5 -75 -3 -26 rrcurveto
          9 300 rmoveto
          -4 -17 -28 -3 -34 hhcurveto
          -35 -28 4 4 -18 hvcurveto
          64 vlineto
          158 6 rlineto
          endchar
        </CharString>
        <CharString name="hyphen">
          -174 276 303 rmoveto
          -8 5 rlineto
          -7 -59 -74 -3 -59 hhcurveto
          -46 hlineto
          -6 -66 9 -6 237 15 rlineto
          endchar
        </CharString>
        <CharString name="i">
          -129 86 31 rmoveto
          -12 -4 -14 -5 -11 -6 4 -24 rcurveline
          6 40 41 2 40 hhcurveto
          43 46 -1 -6 43 hvcurveto
          2 23 -15 5 -18 5 -15 3 rlinecurve
          -4 28 -8 92 131 vvcurveto
          103 7 101 4 27 vhcurveto
          15 3 18 5 15 7 -2 22 rcurveline
          -6 -43 -47 -2 -42 hhcurveto
          -40 -43 3 6 -40 hvcurveto
          -3 -24 11 -6 15 -6 12 -4 rlinecurve
          4 -31 8 -103 -103 vvcurveto
          -140 -7 -76 -4 -25 vhcurveto
          endchar
        </CharString>
        <CharString name="iacute">
          -129 86 31 rmoveto
          -12 -4 -14 -5 -11 -6 4 -24 rcurveline
          6 40 41 2 40 hhcurveto
          43 46 -1 -6 43 hvcurveto
          2 23 -15 5 -18 5 -15 3 rlinecurve
          -4 28 -8 92 131 vvcurveto
          103 7 101 4 27 vhcurveto
          15 3 18 5 15 7 -2 22 rcurveline
          -6 -43 -47 -2 -42 hhcurveto
          -40 -43 3 6 -40 hvcurveto
          -3 -24 11 -6 15 -6 12 -4 rlinecurve
          4 -31 8 -103 -103 vvcurveto
          -140 -7 -76 -4 -25 vhcurveto
          258 633 rmoveto
          -1 33 -11 66 -13 22 rrcurveto
          1 -3 -6 1 -7 hhcurveto
          -13 -13 -1 -2 -6 hvcurveto
          -44 -75 -64 -69 -91 -49 10 -24 rcurveline
          endchar
        </CharString>
        <CharString name="icircumflex">
          -129 362 574 rmoveto
          10 24 -81 49 -50 70 -44 75 rlinecurve
          1 -3 -6 1 -12 hhcurveto
          -12 -6 -1 -1 -3 hvcurveto
          -44 -75 -50 -70 -81 -49 10 -24 rcurveline
          186 79 rlineto
          -90 -622 rmoveto
          -12 -4 -14 -5 -11 -6 4 -24 rcurveline
          6 40 41 2 40 hhcurveto
          43 46 -1 -6 43 hvcurveto
          2 23 -15 5 -18 5 -15 3 rlinecurve
          -4 28 -8 92 131 vvcurveto
          103 7 101 4 27 vhcurveto
          15 3 18 5 15 7 -2 22 rcurveline
          -6 -43 -47 -2 -42 hhcurveto
          -40 -43 3 6 -40 hvcurveto
          -3 -24 11 -6 15 -6 12 -4 rlinecurve
          4 -31 8 -103 -103 vvcurveto
          -140 -7 -76 -4 -25 vhcurveto
          endchar
        </CharString>
        <CharString name="idieresis">
          -129 86 31 rmoveto
          -12 -4 -14 -5 -11 -6 4 -24 rcurveline
          6 40 41 2 40 hhcurveto
          43 46 -1 -6 43 hvcurveto
          2 23 -15 5 -18 5 -15 3 rlinecurve
          -4 28 -8 92 131 vvcurveto
          103 7 101 4 27 vhcurveto
          15 3 18 5 15 7 -2 22 rcurveline
          -6 -43 -47 -2 -42 hhcurveto
          -40 -43 3 6 -40 hvcurveto
          -3 -24 11 -6 15 -6 12 -4 rlinecurve
          4 -31 8 -103 -103 vvcurveto
          -140 -7 -76 -4 -25 vhcurveto
          66 657 rmoveto
          -18 27 -43 34 -28 15 -34 -15 -40 -35 -16 -26 15 -29 46 -47 29 -19 28 19 47 47 14 29 rrcurveto
          222 hmoveto
          -18 27 -43 34 -28 15 -34 -15 -40 -35 -16 -26 15 -29 46 -47 29 -19 28 19 47 47 14 29 rrcurveto
          endchar
        </CharString>
        <CharString name="igrave">
          -129 86 31 rmoveto
          -12 -4 -14 -5 -11 -6 4 -24 rcurveline
          6 40 41 2 40 hhcurveto
          43 46 -1 -6 43 hvcurveto
          2 23 -15 5 -18 5 -15 3 rlinecurve
          -4 28 -8 92 131 vvcurveto
          103 7 101 4 27 vhcurveto
          15 3 18 5 15 7 -2 22 rcurveline
          -6 -43 -47 -2 -42 hhcurveto
          -40 -43 3 6 -40 hvcurveto
          -3 -24 11 -6 15 -6 12 -4 rlinecurve
          4 -31 8 -103 -103 vvcurveto
          -140 -7 -76 -4 -25 vhcurveto
          176 536 rmoveto
          10 24 -91 49 -64 69 -44 75 rlinecurve
          2 -6 -13 1 -13 hhcurveto
          -7 -6 -1 -1 -3 hvcurveto
          -13 -22 -11 -66 -1 -33 rrcurveto
          endchar
        </CharString>
        <CharString name="ij">
          170 86 31 rmoveto
          -12 -4 -14 -5 -11 -6 4 -24 rcurveline
          6 40 41 2 40 hhcurveto
          43 46 -1 -6 43 hvcurveto
          2 23 -15 5 -18 5 -15 3 rlinecurve
          -4 28 -8 92 131 vvcurveto
          103 7 101 4 27 vhcurveto
          15 3 18 5 15 7 -2 22 rcurveline
          -6 -43 -47 -2 -42 hhcurveto
          -40 -43 3 6 -40 hvcurveto
          -3 -24 11 -6 15 -6 12 -4 rlinecurve
          4 -31 8 -103 -103 vvcurveto
          -140 -7 -76 -4 -25 vhcurveto
          474 478 rmoveto
          12 4 15 6 11 6 -3 24 rcurveline
          -6 -40 -43 -3 -40 hhcurveto
          -42 -47 2 6 -43 hvcurveto
          -2 -22 15 -7 18 -5 15 -3 rlinecurve
          4 -28 7 -110 -90 vvcurveto
          -165 vlineto
          -123 -23 -85 -98 -74 vhcurveto
          15 -18 94 43 110 67 63 80 rlinecurve
          -3 26 -8 103 146 vvcurveto
          90 9 104 4 32 vhcurveto
          endchar
        </CharString>
        <CharString name="itilde">
          -129 14 618 rmoveto
          31 20 30 8 32 57 70 -52 45 hhcurveto
          56 30 41 50 41 56 -24 17 rcurveline
          -33 -23 -28 -6 -35 hhcurveto
          -54 -35 20 31 -48 hvcurveto
          -67 -24 -58 -50 -44 -61 rrcurveto
          96 -604 rmoveto
          -12 -4 -14 -5 -11 -6 4 -24 rcurveline
          6 40 41 2 40 hhcurveto
          43 46 -1 -6 43 hvcurveto
          2 23 -15 5 -18 5 -15 3 rlinecurve
          -4 28 -8 92 131 vvcurveto
          103 7 101 4 27 vhcurveto
          15 3 18 5 15 7 -2 22 rcurveline
          -6 -43 -47 -2 -42 hhcurveto
          -40 -43 3 6 -40 hvcurveto
          -3 -24 11 -6 15 -6 12 -4 rlinecurve
          4 -31 8 -103 -103 vvcurveto
          -140 -7 -76 -4 -25 vhcurveto
          endchar
        </CharString>
        <CharString name="j">
          -125 265 509 rmoveto
          12 4 15 6 11 6 -3 24 rcurveline
          -6 -40 -43 -3 -40 hhcurveto
          -42 -47 2 6 -43 hvcurveto
          -2 -22 15 -7 18 -5 15 -3 rlinecurve
          4 -28 7 -110 -90 vvcurveto
          -165 vlineto
          -123 -23 -85 -98 -74 vhcurveto
          15 -18 94 43 110 67 63 80 rlinecurve
          -3 26 -8 103 146 vvcurveto
          90 9 104 4 32 vhcurveto
          endchar
        </CharString>
        <CharString name="jcircumflex">
          -130 357 574 rmoveto
          10 24 -81 49 -50 70 -44 75 rlinecurve
          1 -3 -6 1 -12 hhcurveto
          -12 -6 -1 -1 -3 hvcurveto
          -44 -75 -50 -70 -81 -49 10 -24 rcurveline
          186 79 rlineto
          89 -144 rmoveto
          12 4 15 6 11 6 -3 24 rcurveline
          -6 -40 -43 -3 -40 hhcurveto
          -42 -47 2 6 -43 hvcurveto
          -2 -22 15 -7 18 -5 15 -3 rlinecurve
          4 -28 7 -110 -90 vvcurveto
          -165 vlineto
          -123 -23 -85 -98 -74 vhcurveto
          15 -18 94 43 110 67 63 80 rlinecurve
          -3 26 -8 103 146 vvcurveto
          90 9 104 4 32 vhcurveto
          endchar
        </CharString>
        <CharString name="k">
          95 246 511 rmoveto
          15 3 18 5 15 7 -2 22 rcurveline
          -6 -43 -47 -2 -42 hhcurveto
          -40 -43 3 6 -40 hvcurveto
          -3 -24 11 -6 15 -6 12 -4 rlinecurve
          4 -31 8 -106 -103 vvcurveto
          -139 -7 -74 -4 -25 vhcurveto
          -12 -4 -14 -5 -11 -6 4 -24 rcurveline
          6 40 41 2 40 hhcurveto
          43 46 -1 -6 43 hvcurveto
          2 23 -15 5 -18 5 -15 3 rlinecurve
          -3 23 -7 66 -2 99 59 59 rcurveline
          59 -139 12 -37 -35 vvcurveto
          -25 -7 -21 -8 -8 vhcurveto
          3 -16 rlineto
          4 34 44 1 34 hhcurveto
          36 60 -2 -7 36 hvcurveto
          4 24 -11 6 -25 8 -11 2 rlinecurve
          -182 314 164 164 15 3 16 5 15 7 rlinecurve
          -3 24 rlineto
          -7 -33 -62 -1 -33 hhcurveto
          -29 -52 2 4 -29 hvcurveto
          -3 -15 rlineto
          14 -8 4 -13 -16 vvcurveto
          -32 -11 -40 -110 -144 vhcurveto
          104 7 103 4 26 vhcurveto
          endchar
        </CharString>
        <CharString name="kcommaaccent">
          95 246 511 rmoveto
          15 3 18 5 15 7 -2 22 rcurveline
          -6 -43 -47 -2 -42 hhcurveto
          -40 -43 3 6 -40 hvcurveto
          -3 -24 11 -6 15 -6 12 -4 rlinecurve
          4 -31 8 -106 -103 vvcurveto
          -139 -7 -74 -4 -25 vhcurveto
          -12 -4 -14 -5 -11 -6 4 -24 rcurveline
          6 40 41 2 40 hhcurveto
          43 46 -1 -6 43 hvcurveto
          2 23 -15 5 -18 5 -15 3 rlinecurve
          -3 23 -7 66 -2 99 59 59 rcurveline
          59 -139 12 -37 -35 vvcurveto
          -25 -7 -21 -8 -8 vhcurveto
          3 -16 rlineto
          4 34 44 1 34 hhcurveto
          36 60 -2 -7 36 hvcurveto
          4 24 -11 6 -25 8 -11 2 rlinecurve
          -182 314 164 164 15 3 16 5 15 7 rlinecurve
          -3 24 rlineto
          -7 -33 -62 -1 -33 hhcurveto
          -29 -52 2 4 -29 hvcurveto
          -3 -15 rlineto
          14 -8 4 -13 -16 vvcurveto
          -32 -11 -40 -110 -144 vhcurveto
          104 7 103 4 26 vhcurveto
          152 -606 rmoveto
          -18 24 -37 26 -28 11 -28 -11 -38 -26 -18 -24 9 -27 22 -29 24 -20 -11 -23 -22 -16 -31 -17 10 -24 rcurveline
          91 20 65 66 10 70 rrcurveto
          endchar
        </CharString>
        <CharString name="kgreenlandic">
          84 84 319 rmoveto
          -189 -7 -74 -4 -25 vhcurveto
          -12 -4 -14 -5 -11 -6 4 -24 rcurveline
          6 40 41 2 40 hhcurveto
          43 46 -1 -6 43 hvcurveto
          2 23 -15 5 -18 5 -15 3 rlinecurve
          -3 23 -7 66 -2 99 rrcurveto
          16 vlineto
          5 8 7 7 6 8 rrcurveto
          109 -199 2 -4 -60 vvcurveto
          10 -5 52 12 94 8 75 2 rlinecurve
          24 vlineto
          -16 1 -14 4 -15 4 -29 26 -45 71 -50 92 -68 124 rcurveline
          19 25 18 12 13 hhcurveto
          12 17 -5 -5 11 hvcurveto
          7 -24 2 -20 2 -27 rrcurveto
          27 hlineto
          4 84 7 58 50 70 rrcurveto
          17 vlineto
          13 -32 -39 7 -34 hhcurveto
          -78 -48 -88 -144 -44 -80 -11 1 rcurveline
          2 101 17 112 12 50 -8 8 rcurveline
          -15 -66 -80 -7 -67 hhcurveto
          -24 vlineto
          15 -2 14 -5 10 -7 rrcurveto
          5 -46 3 -54 -76 vvcurveto
          endchar
        </CharString>
        <CharString name="l">
          -60 85 31 rmoveto
          -12 -4 -14 -5 -11 -6 4 -24 rcurveline
          6 60 67 2 70 hhcurveto
          48 88 -4 -7 48 hvcurveto
          5 18 rlineto
          -27 32 -5 46 54 vvcurveto
          -26 hlineto
          -2 -27 -3 -16 -7 -25 rrcurveto
          -9 -18 -23 -3 -28 hhcurveto
          -9 -26 3 3 -9 hvcurveto
          -4 41 -3 71 101 vvcurveto
          103 6 104 4 26 vhcurveto
          1 hlineto
          15 3 18 5 15 7 -2 22 rcurveline
          -6 -43 -47 -2 -42 hhcurveto
          -40 -43 3 6 -40 hvcurveto
          -3 -24 11 -6 15 -6 12 -4 rlinecurve
          4 -31 8 -105 -103 vvcurveto
          -141 -9 -74 -3 -24 vhcurveto
          endchar
        </CharString>
        <CharString name="ldot">
          -60 455 311 rmoveto
          -18 27 -43 34 -28 15 -34 -15 -40 -35 -16 -26 15 -29 46 -47 29 -19 28 19 47 47 14 29 rrcurveto
          -370 -280 rmoveto
          -12 -4 -14 -5 -11 -6 4 -24 rcurveline
          6 60 67 2 70 hhcurveto
          48 88 -4 -7 48 hvcurveto
          5 18 rlineto
          -27 32 -5 46 54 vvcurveto
          -26 hlineto
          -2 -27 -3 -16 -7 -25 rrcurveto
          -9 -18 -23 -3 -28 hhcurveto
          -9 -26 3 3 -9 hvcurveto
          -4 41 -3 71 101 vvcurveto
          103 6 104 4 26 vhcurveto
          1 hlineto
          15 3 18 5 15 7 -2 22 rcurveline
          -6 -43 -47 -2 -42 hhcurveto
          -40 -43 3 6 -40 hvcurveto
          -3 -24 11 -6 15 -6 12 -4 rlinecurve
          4 -31 8 -105 -103 vvcurveto
          -141 -9 -74 -3 -24 vhcurveto
          endchar
        </CharString>
        <CharString name="less">
          102 55 222 rmoveto
          64 -19 61 -21 75 -30 88 -35 80 -36 72 -36 26 67 rcurveline
          -5 10 -349 128 rlineto
          4 vlineto
          349 129 5 10 -24 66 -72 -37 -85 -38 -85 -32 rlinecurve
          -91 -34 -50 -18 -45 -14 rrcurveto
          endchar
        </CharString>
        <CharString name="logicalnot">
          102 517 82 rmoveto
          5 6 rlineto
          -2 53 -3 28 120 vvcurveto
          -6 6 rlineto
          -2 -26 -53 -1 -26 hhcurveto
          -113 -117 3 6 -113 hvcurveto
          -9 -66 8 -7 rlineto
          388 -137 hlineto
          endchar
        </CharString>
        <CharString name="lslash">
          -60 85 31 rmoveto
          -12 -4 -14 -5 -11 -6 4 -24 rcurveline
          6 60 67 2 70 hhcurveto
          48 88 -4 -7 48 hvcurveto
          5 18 rlineto
          -27 32 -5 46 54 vvcurveto
          -26 hlineto
          -2 -27 -3 -16 -7 -25 rrcurveto
          -9 -18 -23 -3 -28 hhcurveto
          -9 -26 3 3 -9 hvcurveto
          -4 41 -3 71 101 vvcurveto
          15 vlineto
          109 56 -2 4 -9 7 -8 11 -5 9 rlinecurve
          -22 -14 -38 -23 -25 -13 2 84 4 75 4 22 rrcurveto
          1 hlineto
          15 3 18 5 15 7 -2 22 rcurveline
          -6 -43 -47 -2 -42 hhcurveto
          -40 -43 3 6 -40 hvcurveto
          -3 -24 11 -6 15 -6 12 -4 rlinecurve
          4 -31 8 -105 -103 vvcurveto
          -12 vlineto
          -57 -29 rlineto
          4 -10 1 -16 -13 vvcurveto
          4 -3 10 7 18 12 19 11 rlinecurve
          -2 -107 -7 -58 -2 -21 rrcurveto
          endchar
        </CharString>
        <CharString name="m">
          296 533 31 rmoveto
          -12 -4 -14 -5 -11 -6 4 -24 rcurveline
          6 40 40 2 40 hhcurveto
          43 46 -1 -6 43 hvcurveto
          2 23 -15 5 -18 5 -15 3 rlinecurve
          -17 88 -27 242 90 vvcurveto
          16 1 29 4 15 vhcurveto
          12 4 17 6 11 5 -6 23 rcurveline
          -6 -46 -56 -1 -37 hhcurveto
          -33 -53 2 4 -29 hvcurveto
          -3 -18 rlineto
          13 -4 8 -11 -13 vvcurveto
          -72 -261 -1 -7 -1 -15 -8 -2 rcurveline
          -5 23 rlineto
          -39 180 -15 60 24 vvcurveto
          18 11 6 18 4 vhcurveto
          -3 17 rlineto
          -5 -41 -50 -2 -42 hhcurveto
          -41 -44 2 7 -41 hvcurveto
          -6 -23 12 -8 21 -8 14 -4 rlinecurve
          -78 -475 -12 -2 -24 -7 -11 -6 rlinecurve
          3 -22 rlineto
          5 34 33 1 33 hhcurveto
          23 35 -1 -3 24 hvcurveto
          2 14 rlineto
          -30 15 -5 34 32 vvcurveto
          35 9 96 8 65 vhcurveto
          13 108 7 1 rlineto
          31 -87 43 -148 -92 vvcurveto
          -28 vlineto
          10 -6 41 25 56 20 49 8 rlinecurve
          50 3 37 71 221 vhcurveto
          6 -1 17 -116 9 -131 1 -117 rlinecurve
          endchar
        </CharString>
        <CharString name="macron">
          -151 323 725 rmoveto
          -8 5 rlineto
          -3 -34 -43 -2 -34 hhcurveto
          -32 -82 2 2 -33 hvcurveto
          -45 3 -12 -84 9 -6 302 3 rlineto
          endchar
        </CharString>
        <CharString name="mu">
          55 43 193 rmoveto
          -214 -18 -101 -8 -86 vhcurveto
          7 -7 40 13 52 13 45 3 rlinecurve
          7 6 -10 38 -9 50 -1 86 rlinecurve
          42 -9 56 37 49 75 25 63 rlinecurve
          10 -1 rlineto
          -56 -6 -55 -13 -56 vhcurveto
          7 -7 rlineto
          16 90 70 4 61 hhcurveto
          22 vlineto
          -17 1 -24 5 -15 7 -5 41 -2 45 -1 42 rrcurveto
          139 8 115 6 30 vhcurveto
          3 16 2 9 5 20 -14 8 rcurveline
          -13 -60 -56 -6 -61 hhcurveto
          9 -46 5 -67 -146 vvcurveto
          -76 -26 -41 -50 -31 hhcurveto
          -24 -5 43 87 84 13 127 18 56 hvcurveto
          -7 7 rlineto
          -13 -60 -63 -6 -61 hhcurveto
          -7 -6 rlineto
          10 -38 5 -52 -119 vvcurveto
          endchar
        </CharString>
        <CharString name="multiply">
          102 437 441 rmoveto
          -8 -1 -138 -152 -60 63 -51 53 -33 37 rlinecurve
          -8 1 -52 -50 154 -153 -62 -64 -54 -40 -48 -44 rlinecurve
          42 -53 rlineto
          11 hlineto
          156 157 160 -156 11 -1 42 54 -49 43 -54 41 -63 65 rlinecurve
          156 152 rlineto
          endchar
        </CharString>
        <CharString name="n">
          173 85 31 rmoveto
          -12 -4 -14 -5 -11 -6 4 -24 rcurveline
          6 40 39 2 40 hhcurveto
          43 16 -1 -6 43 hvcurveto
          2 23 -15 5 -18 5 -15 3 rlinecurve
          -45 39 -4 96 147 vvcurveto
          65 vlineto
          4 1 rlineto
          179 -297 27 -40 -45 vvcurveto
          3 21 43 2 28 hhcurveto
          43 43 -1 -6 43 hvcurveto
          2 23 -15 5 -18 5 -15 3 rlinecurve
          -8 49 -5 52 140 vvcurveto
          102 5 92 8 47 vhcurveto
          15 3 18 5 15 7 -2 22 rcurveline
          -5 -35 -34 -3 -39 hhcurveto
          -64 -24 4 3 -19 hvcurveto
          -3 -19 rlineto
          70 -17 8 -61 -177 vvcurveto
          -79 vlineto
          -3 -2 rlineto
          -165 269 -6 19 25 vvcurveto
          12 9 10 10 4 vhcurveto
          -3 17 rlineto
          -5 -28 -54 -3 -51 hhcurveto
          -40 -50 3 6 -40 hvcurveto
          -3 -24 11 -6 15 -6 12 -4 rlinecurve
          7 -50 7 -111 -78 vvcurveto
          -115 -6 -78 -6 -46 vhcurveto
          endchar
        </CharString>
        <CharString name="nacute">
          173 85 31 rmoveto
          -12 -4 -14 -5 -11 -6 4 -24 rcurveline
          6 40 39 2 40 hhcurveto
          43 16 -1 -6 43 hvcurveto
          2 23 -15 5 -18 5 -15 3 rlinecurve
          -45 39 -4 96 147 vvcurveto
          65 vlineto
          4 1 rlineto
          179 -297 27 -40 -45 vvcurveto
          3 21 43 2 28 hhcurveto
          43 43 -1 -6 43 hvcurveto
          2 23 -15 5 -18 5 -15 3 rlinecurve
          -8 49 -5 52 140 vvcurveto
          102 5 92 8 47 vhcurveto
          15 3 18 5 15 7 -2 22 rcurveline
          -5 -35 -34 -3 -39 hhcurveto
          -64 -24 4 3 -19 hvcurveto
          -3 -19 rlineto
          70 -17 8 -61 -177 vvcurveto
          -79 vlineto
          -3 -2 rlineto
          -165 269 -6 19 25 vvcurveto
          12 9 10 10 4 vhcurveto
          -3 17 rlineto
          -5 -28 -54 -3 -51 hhcurveto
          -40 -50 3 6 -40 hvcurveto
          -3 -24 11 -6 15 -6 12 -4 rlinecurve
          7 -50 7 -111 -78 vvcurveto
          -115 -6 -78 -6 -46 vhcurveto
          485 633 rmoveto
          -1 33 -11 66 -13 22 rrcurveto
          1 -3 -6 1 -7 hhcurveto
          -13 -13 -1 -2 -6 hvcurveto
          -44 -75 -64 -69 -91 -49 10 -24 rcurveline
          endchar
        </CharString>
        <CharString name="nbspace">
          -294 endchar
        </CharString>
        <CharString name="nine">
          66 319 335 rmoveto
          -160 -63 -100 -138 -85 vhcurveto
          13 -18 rlineto
          183 54 170 154 188 vvcurveto
          120 -63 74 -149 vhcurveto
          -90 -27 -90 -66 -55 -76 rrcurveto
          -147 75 -67 112 vhcurveto
          14 33 21 29 27 27 rrcurveto
          8 vlineto
          -77 -8 51 75 23 4 34 7 21 hvcurveto
          10 11 17 3 14 hhcurveto
          58 7 -85 -73 hvcurveto
          endchar
        </CharString>
        <CharString name="ntilde">
          173 85 31 rmoveto
          -12 -4 -14 -5 -11 -6 4 -24 rcurveline
          6 40 39 2 40 hhcurveto
          43 16 -1 -6 43 hvcurveto
          2 23 -15 5 -18 5 -15 3 rlinecurve
          -45 39 -4 96 147 vvcurveto
          65 vlineto
          4 1 rlineto
          179 -297 27 -40 -45 vvcurveto
          3 21 43 2 28 hhcurveto
          43 43 -1 -6 43 hvcurveto
          2 23 -15 5 -18 5 -15 3 rlinecurve
          -8 49 -5 52 140 vvcurveto
          102 5 92 8 47 vhcurveto
          15 3 18 5 15 7 -2 22 rcurveline
          -5 -35 -34 -3 -39 hhcurveto
          -64 -24 4 3 -19 hvcurveto
          -3 -19 rlineto
          70 -17 8 -61 -177 vvcurveto
          -79 vlineto
          -3 -2 rlineto
          -165 269 -6 19 25 vvcurveto
          12 9 10 10 4 vhcurveto
          -3 17 rlineto
          -5 -28 -54 -3 -51 hhcurveto
          -40 -50 3 6 -40 hvcurveto
          -3 -24 11 -6 15 -6 12 -4 rlinecurve
          7 -50 7 -111 -78 vvcurveto
          -115 -6 -78 -6 -46 vhcurveto
          74 587 rmoveto
          31 20 30 8 32 57 80 -52 55 hhcurveto
          56 30 41 50 41 56 -24 17 rcurveline
          -33 -23 -28 -6 -35 hhcurveto
          -54 -55 20 31 -48 hvcurveto
          -67 -24 -58 -50 -44 -61 rrcurveto
          endchar
        </CharString>
        <CharString name="numbersign">
          76 483 187 rmoveto
          -7 5 -22 -1 -40 1 -45 1 rlinecurve
          14 121 117 -3 10 63 -7 6 -23 -1 -42 1 -47 1 rlinecurve
          8 73 10 62 14 73 -4 3 rcurveline
          -2 -10 -37 -3 -11 hhcurveto
          -25 -205 -101 4 9 71 10 60 13 72 rlinecurve
          -4 3 rlineto
          -2 -10 -37 -3 -11 hhcurveto
          -25 -199 -24 1 -21 2 -13 1 rlinecurve
          -45 4 -10 -68 8 -6 97 -3 -15 -119 -25 1 -22 2 -14 1 rlinecurve
          -46 4 -10 -67 8 -7 101 -3 -8 -74 -9 -54 -13 -74 rlinecurve
          10 -9 32 -9 13 -3 rrcurveto
          5 hlineto
          26 222 100 -2 -9 -72 -8 -54 -13 -73 rlinecurve
          10 -9 32 -9 13 -3 rrcurveto
          5 hlineto
          26 218 112 -3 rlineto
          -260 74 rmoveto
          14 121 101 -2 -15 -122 rlineto
          endchar
        </CharString>
        <CharString name="o">
          102 28 219 rmoveto
          -138 104 -96 156 vhcurveto
          158 39 102 135 162 vvcurveto
          154 -95 80 -154 vhcurveto
          -158 -39 -113 -135 -162 vvcurveto
          242 265 rmoveto
          106 8 -122 -105 -54 -8 -81 -23 -52 hvcurveto
          -9 -14 -16 -5 -18 hhcurveto
          -95 -18 130 94 57 9 81 22 53 hvcurveto
          9 14 17 4 16 hhcurveto
          endchar
        </CharString>
        <CharString name="oacute">
          102 28 219 rmoveto
          -138 104 -96 156 vhcurveto
          158 39 102 135 162 vvcurveto
          154 -95 80 -154 vhcurveto
          -158 -39 -113 -135 -162 vvcurveto
          242 265 rmoveto
          106 8 -122 -105 -54 -8 -81 -23 -52 hvcurveto
          -9 -14 -16 -5 -18 hhcurveto
          -95 -18 130 94 57 9 81 22 53 hvcurveto
          9 14 17 4 16 hhcurveto
          210 180 rmoveto
          -1 33 -11 66 -13 22 rrcurveto
          1 -3 -6 1 -7 hhcurveto
          -13 -13 -1 -2 -6 hvcurveto
          -44 -75 -64 -69 -91 -49 10 -24 rcurveline
          endchar
        </CharString>
        <CharString name="ocircumflex">
          102 28 219 rmoveto
          -138 104 -96 156 vhcurveto
          158 39 102 135 162 vvcurveto
          154 -95 80 -154 vhcurveto
          -158 -39 -113 -135 -162 vvcurveto
          242 265 rmoveto
          106 8 -122 -105 -54 -8 -81 -23 -52 hvcurveto
          -9 -14 -16 -5 -18 hhcurveto
          -95 -18 130 94 57 9 81 22 53 hvcurveto
          9 14 17 4 16 hhcurveto
          241 90 rmoveto
          10 24 -81 49 -70 70 -44 75 rlinecurve
          1 -3 -6 1 -12 hhcurveto
          -12 -6 -1 -1 -3 hvcurveto
          -44 -75 -70 -70 -81 -49 10 -24 rcurveline
          206 79 rlineto
          endchar
        </CharString>
        <CharString name="odieresis">
          102 28 219 rmoveto
          -138 104 -96 156 vhcurveto
          158 39 102 135 162 vvcurveto
          154 -95 80 -154 vhcurveto
          -158 -39 -113 -135 -162 vvcurveto
          242 265 rmoveto
          106 8 -122 -105 -54 -8 -81 -23 -52 hvcurveto
          -9 -14 -16 -5 -18 hhcurveto
          -95 -18 130 94 57 9 81 22 53 hvcurveto
          9 14 17 4 16 hhcurveto
          14 204 rmoveto
          -18 27 -43 34 -28 15 -34 -15 -40 -35 -16 -26 15 -29 46 -47 29 -19 28 19 47 47 14 29 rrcurveto
          222 hmoveto
          -18 27 -43 34 -28 15 -34 -15 -40 -35 -16 -26 15 -29 46 -47 29 -19 28 19 47 47 14 29 rrcurveto
          endchar
        </CharString>
        <CharString name="oe">
          248 296 553 rmoveto
          -156 -43 -112 -131 -161 vvcurveto
          -130 84 -103 130 vhcurveto
          42 9 46 19 43 32 rrcurveto
          -40 27 46 -20 79 hhcurveto
          73 19 59 43 44 60 -16 19 rcurveline
          -28 -35 -32 -25 -44 hhcurveto
          -84 -3 80 100 hvcurveto
          3 12 22 1 13 hhcurveto
          21 21 -1 -4 20 hvcurveto
          4 -19 7 -25 7 -17 24 4 rcurveline
          -5 24 -4 25 24 vvcurveto
          23 4 27 7 22 vhcurveto
          -21 6 rlineto
          -25 -23 -29 -6 -40 hhcurveto
          -11 -15 1 3 -12 hvcurveto
          1 vlineto
          1 41 7 79 15 38 rrcurveto
          2 13 16 1 7 hhcurveto
          25 29 -2 -12 23 hvcurveto
          -23 3 -23 5 -23 vhcurveto
          26 hlineto
          2 46 9 48 25 39 -6 21 rcurveline
          -40 -6 -95 -7 -88 1 rrcurveto
          1 -51 -42 12 -77 hhcurveto
          2 -486 rmoveto
          -108 -3 104 110 49 10 92 21 47 hvcurveto
          10 14 22 4 21 hhcurveto
          23 25 -6 -12 22 hvcurveto
          -1 -52 -8 -92 -114 vvcurveto
          -92 -3 -36 -21 -12 vhcurveto
          endchar
        </CharString>
        <CharString name="ograve">
          102 28 219 rmoveto
          -138 104 -96 156 vhcurveto
          158 39 102 135 162 vvcurveto
          154 -95 80 -154 vhcurveto
          -158 -39 -113 -135 -162 vvcurveto
          242 265 rmoveto
          106 8 -122 -105 -54 -8 -81 -23 -52 hvcurveto
          -9 -14 -16 -5 -18 hhcurveto
          -95 -18 130 94 57 9 81 22 53 hvcurveto
          9 14 17 4 16 hhcurveto
          104 83 rmoveto
          10 24 -91 49 -64 69 -44 75 rlinecurve
          2 -6 -13 1 -13 hhcurveto
          -7 -6 -1 -1 -3 hvcurveto
          -13 -22 -11 -66 -1 -33 rrcurveto
          endchar
        </CharString>
        <CharString name="one">
          66 376 552 rmoveto
          -3 3 rlineto
          -10 -28 -3 -1 -7 hvcurveto
          -53 -49 -75 -40 -71 -15 rrcurveto
          -1 -4 -3 -21 -5 vvcurveto
          3 -3 rlineto
          77 hlineto
          2 -40 1 -46 -48 vvcurveto
          -131 -8 -92 -4 -28 vhcurveto
          -15 -3 -18 -5 -15 -5 2 -23 rcurveline
          6 43 46 1 43 hhcurveto
          40 41 -2 -6 40 hvcurveto
          4 24 -11 6 -14 5 -12 4 rlinecurve
          -4 25 -7 76 140 vvcurveto
          103 8 116 9 61 vhcurveto
          endchar
        </CharString>
        <CharString name="onehalf">
          376 169 -42 rmoveto
          398 552 62 86 41 57 33 41 rlinecurve
          -4 3 -17 1 -33 2 -17 4 rlinecurve
          -46 -70 -37 -55 -49 -68 -254 -351 rcurveline
          -36 -49 -51 -64 -38 -48 7 -15 24 -15 12 -10 rrcurveto
          -69 341 rmoveto
          -14 -3 -22 -7 -14 -6 2 -23 rcurveline
          6 28 50 5 48 hhcurveto
          49 37 -5 -6 37 hvcurveto
          3 23 -13 6 -19 8 -13 4 rlinecurve
          -3 23 -3 93 42 vvcurveto
          43 5 117 6 44 vhcurveto
          -3 2 rlineto
          -8 -22 -2 -1 -6 hvcurveto
          -42 -39 -81 -31 -57 -12 rrcurveto
          -1 -3 -2 -17 -4 vvcurveto
          2 -2 rlineto
          61 hlineto
          2 -31 1 -34 -33 vvcurveto
          -41 -5 -90 -3 -26 vhcurveto
          534 107 rmoveto
          -52 -24 -102 -97 -57 vvcurveto
          -15 7 -9 16 vhcurveto
          21 20 17 14 23 9 rrcurveto
          6 vlineto
          -6 4 -3 8 11 vvcurveto
          7 2 14 3 7 vhcurveto
          6 7 12 2 12 hhcurveto
          31 19 -15 -31 -99 -132 -64 -47 -96 hvcurveto
          20 -10 9 12 16 15 11 5 rlinecurve
          108 74 -12 -18 97 hvcurveto
          10 7 rlineto
          -4 18 -3 35 15 vvcurveto
          22 4 39 6 20 vhcurveto
          -21 6 -6 -17 -6 -15 -8 -15 rlinecurve
          -45 6 -35 4 -45 -2 rrcurveto
          -8 -2 -13 -7 0 vvcurveto
          -4 5 52 35 80 65 41 38 rlinecurve
          118 -40 32 -118 vhcurveto
          endchar
        </CharString>
        <CharString name="onequarter">
          376 740 262 rmoveto
          35 2 69 7 37 vhcurveto
          -9 3 -52 -13 -31 -2 -55 -5 rlinecurve
          -49 -100 -52 -77 -73 -83 7 -36 rcurveline
          169 hlineto
          -24 -1 -3 -4 -23 vhcurveto
          -15 -3 -26 -8 -14 -6 3 -21 rcurveline
          6 25 46 4 44 hhcurveto
          53 40 -3 -5 33 hvcurveto
          4 23 -11 3 -26 7 -9 5 rlinecurve
          -4 20 -1 2 26 vvcurveto
          15 31 0 -2 24 hvcurveto
          4 2 -1 25 1 54 5 24 rlinecurve
          -14 4 rlineto
          -28 -10 -25 -4 -31 hhcurveto
          -648 135 rmoveto
          -14 -3 -22 -7 -14 -6 2 -23 rcurveline
          6 28 45 5 48 hhcurveto
          49 32 -5 -6 37 hvcurveto
          3 23 -13 6 -19 8 -13 4 rlinecurve
          -3 23 -3 93 42 vvcurveto
          43 5 117 6 44 vhcurveto
          -3 2 rlineto
          -8 -22 -2 -1 -6 hvcurveto
          -42 -39 -71 -31 -57 -12 rrcurveto
          -1 -3 -2 -17 -4 vvcurveto
          2 -2 rlineto
          61 hlineto
          2 -31 1 -34 -33 vvcurveto
          -41 -5 -90 -3 -26 vhcurveto
          77 -342 rmoveto
          398 552 62 86 41 57 33 41 rlinecurve
          -4 3 -17 1 -33 2 -17 4 rlinecurve
          -46 -70 -37 -55 -49 -68 -254 -351 rcurveline
          -36 -49 -51 -64 -38 -48 7 -15 24 -15 12 -10 rrcurveto
          437 351 rmoveto
          5 hlineto
          -2 -144 rlineto
          -21 -34 2 4 -23 hvcurveto
          35 48 17 35 23 55 rrcurveto
          endchar
        </CharString>
        <CharString name="onesuperior">
          -158 82 380 rmoveto
          -14 -3 -22 -7 -14 -6 2 -23 rcurveline
          6 28 45 5 48 hhcurveto
          49 32 -5 -6 37 hvcurveto
          3 23 -13 6 -19 8 -13 4 rlinecurve
          -3 23 -3 93 42 vvcurveto
          43 5 117 6 44 vhcurveto
          -3 2 rlineto
          -8 -22 -2 -1 -6 hvcurveto
          -42 -39 -71 -31 -57 -12 rrcurveto
          -1 -3 -2 -17 -4 vvcurveto
          2 -2 rlineto
          61 hlineto
          2 -31 1 -34 -33 vvcurveto
          -41 -5 -90 -3 -26 vhcurveto
          endchar
        </CharString>
        <CharString name="ordfeminine">
          -23 24 421 rmoveto
          -81 53 -81 84 vhcurveto
          43 36 36 47 19 50 7 -1 rcurveline
          -44 -5 -39 -10 -43 vhcurveto
          5 -6 rlineto
          12 74 60 3 49 hhcurveto
          18 vlineto
          -14 -19 5 5 -11 hvcurveto
          -6 41 -1 45 41 vvcurveto
          132 8 83 10 43 vhcurveto
          -21 6 -5 -15 -13 -23 -9 -11 rlinecurve
          12 -41 -56 10 -40 hhcurveto
          -104 -42 -93 -93 -110 vvcurveto
          139 36 rmoveto
          42 3 55 10 41 vhcurveto
          3 9 9 1 9 hhcurveto
          18 19 -8 -15 11 hvcurveto
          1 -24 1 -11 -93 vvcurveto
          -65 -23 -27 -27 -14 hhcurveto
          -18 -8 35 66 hvcurveto
          endchar
        </CharString>
        <CharString name="ordmasculine">
          -49 24 426 rmoveto
          -102 74 -65 115 vhcurveto
          102 41 86 93 106 vvcurveto
          107 -59 60 -120 vhcurveto
          -102 -41 -96 -93 -106 vvcurveto
          181 176 rmoveto
          46 7 -65 -82 -39 -3 -48 -9 -38 hvcurveto
          -5 -7 -9 -2 -9 hhcurveto
          -47 -7 65 82 39 3 48 9 38 hvcurveto
          5 8 9 2 9 hhcurveto
          endchar
        </CharString>
        <CharString name="oslash">
          102 28 219 rmoveto
          -95 49 -76 82 -37 vhcurveto
          -32 -74 8 -9 14 -10 11 -5 rlinecurve
          5 hlineto
          32 84 rlineto
          -8 27 31 -4 33 hhcurveto
          158 39 102 135 162 vvcurveto
          115 -53 74 -92 30 vhcurveto
          12 30 10 26 10 22 -4 3 rcurveline
          -13 -4 -18 -3 -14 -1 -21 -64 rcurveline
          4 -21 -22 2 -23 hhcurveto
          -158 -39 -113 -135 -162 vvcurveto
          324 187 rmoveto
          2 7 3 7 3 6 rrcurveto
          21 -45 3 -65 -59 vvcurveto
          -54 -8 -81 -23 -52 vhcurveto
          -9 -14 -16 -5 -18 hhcurveto
          -32 -23 14 23 -17 hvcurveto
          37 391 rmoveto
          27 21 -8 -14 16 hvcurveto
          -26 -69 -95 -250 rlineto
          -1 -2 -1 -2 -2 vvcurveto
          -15 44 -4 53 46 vvcurveto
          57 9 81 22 53 vhcurveto
          9 14 17 4 16 hhcurveto
          endchar
        </CharString>
        <CharString name="otilde">
          102 28 219 rmoveto
          -138 104 -96 156 vhcurveto
          158 39 102 135 162 vvcurveto
          154 -95 80 -154 vhcurveto
          -158 -39 -113 -135 -162 vvcurveto
          242 265 rmoveto
          106 8 -122 -105 -54 -8 -81 -23 -52 hvcurveto
          -9 -14 -16 -5 -18 hhcurveto
          -95 -18 130 94 57 9 81 22 53 hvcurveto
          9 14 17 4 16 hhcurveto
          -140 134 rmoveto
          31 20 30 8 32 57 80 -52 55 hhcurveto
          56 30 41 50 41 56 -24 17 rcurveline
          -33 -23 -28 -6 -35 hhcurveto
          -54 -55 20 31 -48 hvcurveto
          -67 -24 -58 -50 -44 -61 rrcurveto
          endchar
        </CharString>
        <CharString name="p">
          52 86 31 rmoveto
          -12 -4 -14 -5 -11 -6 4 -24 rcurveline
          6 40 41 2 40 hhcurveto
          43 46 -1 -6 43 hvcurveto
          2 23 -15 5 -18 5 -15 3 rlinecurve
          -1 hlineto
          -4 31 -7 88 129 vvcurveto
          92 4 93 5 37 vhcurveto
          2 9 13 2 9 hhcurveto
          60 14 -47 -60 -57 -11 -66 -57 hvcurveto
          -10 hlineto
          -5 -41 rlineto
          -1 8 9 0 6 hhcurveto
          109 114 68 110 118 -97 18 -118 -1 hvcurveto
          -68 -127 -8 -69 hhcurveto
          -23 vlineto
          13 -3 15 -5 11 -7 rrcurveto
          4 -38 8 -97 -94 vvcurveto
          -139 -8 -73 -3 -26 vhcurveto
          endchar
        </CharString>
        <CharString name="paragraph">
          114 348 651 rmoveto
          3 -59 -46 4 -47 hhcurveto
          -140 -61 -74 -82 -98 90 -109 148 12 10 0 1 12 hvcurveto
          -165 vlineto
          -50 -5 -54 -17 -47 vhcurveto
          -7 -15 -24 -2 -18 hhcurveto
          -13 -16 3 9 -10 hvcurveto
          -7 -1 -11 -18 -29 -36 -17 -16 rlinecurve
          -16 15 -11 36 108 87 90 206 vhcurveto
          144 vlineto
          155 5 86 11 78 vhcurveto
          21 -645 rmoveto
          1 20 18 0 19 hhcurveto
          47 44 -2 -6 46 hvcurveto
          4 25 -22 7 -30 11 -23 3 rlinecurve
          -5 34 -8 132 121 vvcurveto
          135 8 110 4 34 vhcurveto
          10 30 18 6 29 hhcurveto
          25 -36 vlineto
          -45 -59 1 3 -32 hvcurveto
          -11 -86 -1 -132 -106 vvcurveto
          -256 -5 -28 -12 -38 vhcurveto
          endchar
        </CharString>
        <CharString name="parenleft">
          -177 31 262 rmoveto
          -175 93 -195 126 -107 vhcurveto
          13 13 rlineto
          -93 127 -47 173 164 vvcurveto
          164 49 144 93 127 vhcurveto
          -15 14 rlineto
          -126 -107 -93 -170 -172 vvcurveto
          endchar
        </CharString>
        <CharString name="parenright">
          -177 266 262 rmoveto
          172 -93 170 -126 107 vhcurveto
          -15 -14 rlineto
          93 -127 49 -144 -164 vvcurveto
          -164 -47 -173 -93 -127 vhcurveto
          13 -13 rlineto
          126 107 93 195 175 vvcurveto
          endchar
        </CharString>
        <CharString name="percent">
          270 1 389 rmoveto
          -94 26 74 -68 77 hhcurveto
          60 89 65 116 26 hvcurveto
          -15 54 -30 45 -37 29 3 3 rcurveline
          -21 46 53 -22 50 hhcurveto
          27 30 12 20 19 hvcurveto
          4 -1 -30 -51 -31 -50 -33 -50 rlinecurve
          -175 -274 -33 -51 -53 -70 -36 -49 rlinecurve
          8 -12 32 -14 13 -6 rrcurveto
          5 hlineto
          305 478 58 90 57 84 30 43 rlinecurve
          -3 3 -20 -6 -39 -3 -20 -1 rlinecurve
          -6 -10 rlineto
          -32 -19 -31 -6 -36 -123 -86 30 -59 hhcurveto
          -59 -92 -65 -116 -26 hvcurveto
          391 -242 rmoveto
          -94 26 74 -68 77 hhcurveto
          60 89 65 116 26 hvcurveto
          94 -26 -71 68 -78 hhcurveto
          -59 -92 -65 -116 -26 hvcurveto
          177 144 rmoveto
          27 -15 15 -62 -58 vvcurveto
          -56 -15 -63 -27 -15 vhcurveto
          -27 15 -15 63 56 vvcurveto
          58 15 62 27 15 vhcurveto
          -391 242 rmoveto
          27 -15 15 -62 -58 vvcurveto
          -56 -15 -63 -27 -15 vhcurveto
          -27 15 -15 63 56 vvcurveto
          58 15 62 27 15 vhcurveto
          endchar
        </CharString>
        <CharString name="period">
          -217 223 85 rmoveto
          -19 29 -45 36 -30 16 -36 -16 -42 -37 -17 -28 16 -30 49 -50 30 -20 30 20 49 50 15 30 rrcurveto
          endchar
        </CharString>
        <CharString name="periodcentered">
          -217 223 285 rmoveto
          -19 29 -45 36 -30 16 -36 -16 -42 -37 -17 -28 16 -30 49 -50 30 -20 30 20 49 50 15 30 rrcurveto
          endchar
        </CharString>
        <CharString name="plus">
          102 520 278 rmoveto
          -6 6 rlineto
          -2 -26 -33 -1 -26 hhcurveto
          -37 -35 0 1 -37 hvcurveto
          1 vlineto
          114 3 39 2 53 vhcurveto
          -5 6 -71 -9 rlineto
          -203 vlineto
          -62 1 -60 3 -61 3 -9 -71 rcurveline
          8 -7 rlineto
          184 -224 hlineto
          10 -7 70 9 rlineto
          -5 53 -4 66 103 vvcurveto
          191 hlineto
          endchar
        </CharString>
        <CharString name="plusminus">
          102 524 328 rmoveto
          -6 6 rlineto
          -2 -26 -33 -1 -26 hhcurveto
          -37 -35 0 1 -37 hvcurveto
          1 vlineto
          64 2 39 3 53 vhcurveto
          -5 6 -71 -9 rlineto
          -153 vlineto
          -62 1 -60 3 -61 3 -9 -71 rcurveline
          8 -7 rlineto
          184 -174 hlineto
          10 -2 70 4 rlineto
          -5 53 -4 46 73 vvcurveto
          191 hlineto
          1 -216 rmoveto
          -6 6 rlineto
          -2 -26 -43 -1 -26 hhcurveto
          -113 -127 3 6 -113 hvcurveto
          -9 -61 8 -7 rlineto
          446 hlineto
          endchar
        </CharString>
        <CharString name="q">
          92 539 -60 rmoveto
          -70 5 -75 47 -70 8 rrcurveto
          135 52 79 124 144 vvcurveto
          155 -93 80 -150 vhcurveto
          -158 -39 -110 -137 -162 vvcurveto
          -128 90 -91 133 -12 vhcurveto
          -45 -17 -46 -33 -33 -36 18 -17 rcurveline
          23 27 32 9 32 hhcurveto
          74 74 -42 -57 70 hvcurveto
          21 -17 30 51 37 53 49 34 rlinecurve
          -14 19 -10 -7 -15 -6 -12 -3 rlinecurve
          -274 544 rmoveto
          104 9 -123 -106 -55 -9 -79 -23 -53 hvcurveto
          -9 -12 -16 -5 -19 hhcurveto
          -91 -19 129 96 58 9 82 20 51 hvcurveto
          10 13 17 4 17 hhcurveto
          endchar
        </CharString>
        <CharString name="question">
          -123 261 85 rmoveto
          -19 29 -45 36 -30 16 -36 -16 -42 -37 -17 -28 16 -30 49 -50 30 -20 30 20 49 50 15 30 rrcurveto
          -121 159 rmoveto
          48 5 7 58 6 30 9 55 rlinecurve
          61 45 65 54 45 61 rrcurveto
          108 -88 51 -108 vhcurveto
          -84 -19 -108 -92 -86 vvcurveto
          -17 9 -11 17 -1 vhcurveto
          27 24 27 14 34 12 1 7 rcurveline
          -8 7 -3 13 17 vvcurveto
          14 3 22 5 14 vhcurveto
          5 13 16 3 13 hhcurveto
          40 18 -22 -40 -76 -28 -57 -59 -49 hvcurveto
          -19 vlineto
          endchar
        </CharString>
        <CharString name="questiondown">
          -123 90 430 rmoveto
          15 -30 49 -50 30 -20 30 20 49 50 16 30 -17 28 -42 37 -36 16 -30 -16 -45 -36 -19 -29 rrcurveto
          121 -178 rmoveto
          -48 -5 -7 -58 -6 -30 -9 -55 rlinecurve
          -61 -45 -65 -54 -45 -61 rrcurveto
          -108 88 -51 108 vhcurveto
          84 19 108 92 86 vvcurveto
          17 -9 11 -17 1 vhcurveto
          -27 -24 -27 -14 -34 -12 -1 -7 rcurveline
          8 -7 3 -13 -17 vvcurveto
          -14 -3 -22 -5 -14 vhcurveto
          -5 -13 -16 -3 -13 hhcurveto
          -40 -18 22 40 76 28 57 59 49 hvcurveto
          19 vlineto
          endchar
        </CharString>
        <CharString name="quotedbl">
          -55 102 378 rmoveto
          43 5 15 104 15 75 34 99 rlinecurve
          -15 20 rlineto
          -34 -50 -11 -19 -30 hvcurveto
          188 -273 rmoveto
          43 5 15 104 15 75 34 99 rlinecurve
          -15 20 rlineto
          -34 -50 -11 -19 -30 hvcurveto
          endchar
        </CharString>
        <CharString name="quotedblbase">
          -2 223 85 rmoveto
          -19 29 -45 36 -30 16 -36 -16 -42 -37 -17 -28 12 -23 35 -38 24 -20 -6 -49 -28 -48 -42 -35 17 -22 rcurveline
          78 41 99 111 83 vvcurveto
          215 hmoveto
          -19 29 -45 36 -30 16 -36 -16 -42 -37 -17 -28 12 -23 35 -38 24 -20 -6 -49 -28 -48 -42 -35 17 -22 rcurveline
          78 41 99 111 83 vvcurveto
          endchar
        </CharString>
        <CharString name="quotedblleft">
          -2 34 427 rmoveto
          19 -29 45 -36 30 -16 36 16 42 37 17 28 -12 23 -35 38 -24 20 6 57 28 56 42 40 -16 20 rcurveline
          -78 -45 -100 -119 -90 vvcurveto
          215 hmoveto
          19 -29 45 -36 30 -16 36 16 42 37 17 28 -12 23 -35 38 -24 20 6 57 28 56 42 40 -16 20 rcurveline
          -78 -45 -100 -119 -90 vvcurveto
          endchar
        </CharString>
        <CharString name="quotedblright">
          -2 438 600 rmoveto
          -19 29 -45 36 -30 16 -36 -16 -42 -37 -17 -28 12 -23 35 -38 24 -20 -6 -57 -28 -56 -42 -40 16 -20 rcurveline
          78 45 100 119 90 vvcurveto
          -215 hmoveto
          -19 29 -45 36 -30 16 -36 -16 -42 -37 -17 -28 12 -23 35 -38 24 -20 -6 -57 -28 -56 -42 -40 16 -20 rcurveline
          78 45 100 119 90 vvcurveto
          endchar
        </CharString>
        <CharString name="quoteleft">
          -217 34 427 rmoveto
          19 -29 45 -36 30 -16 36 16 42 37 17 28 -12 23 -35 38 -24 20 6 57 28 56 42 40 -16 20 rcurveline
          -78 -45 -100 -119 -90 vvcurveto
          endchar
        </CharString>
        <CharString name="quoteright">
          -217 223 600 rmoveto
          -19 29 -45 36 -30 16 -36 -16 -42 -37 -17 -28 12 -23 35 -38 24 -20 -6 -57 -28 -56 -42 -40 16 -20 rcurveline
          78 45 100 119 90 vvcurveto
          endchar
        </CharString>
        <CharString name="quotesinglbase">
          -217 223 85 rmoveto
          -19 29 -45 36 -30 16 -36 -16 -42 -37 -17 -28 12 -23 35 -38 24 -20 -6 -49 -28 -48 -42 -35 17 -22 rcurveline
          78 41 99 111 83 vvcurveto
          endchar
        </CharString>
        <CharString name="quotesingle">
          -214 102 378 rmoveto
          43 5 15 104 15 75 34 99 rlinecurve
          -15 20 rlineto
          -34 -50 -11 -19 -30 hvcurveto
          endchar
        </CharString>
        <CharString name="r">
          109 309 544 rmoveto
          -68 -126 -8 -69 hhcurveto
          -23 vlineto
          13 -3 15 -5 11 -7 rrcurveto
          4 -39 8 -97 -93 vvcurveto
          -137 -9 -74 -3 -27 vhcurveto
          -12 -4 -14 -5 -11 -6 4 -24 rcurveline
          6 40 41 2 40 hhcurveto
          43 46 -1 -6 43 hvcurveto
          2 23 -15 5 -18 5 -15 3 rlinecurve
          -1 hlineto
          -4 30 -6 90 128 vvcurveto
          92 5 94 4 36 vhcurveto
          2 9 12 1 9 hhcurveto
          57 16 -49 -57 -53 -15 -52 -52 hvcurveto
          -10 hlineto
          -4 -41 rlineto
          12 18 -1 -2 12 hvcurveto
          37 -99 12 -51 -35 vvcurveto
          -24 -8 -20 -7 -7 vhcurveto
          3 -16 rlineto
          4 34 43 1 34 hhcurveto
          36 59 -2 -7 36 hvcurveto
          4 24 -11 6 -25 8 -11 2 rlinecurve
          -129 235 rlineto
          55 28 41 53 61 vvcurveto
          120 -95 16 -120 vhcurveto
          endchar
        </CharString>
        <CharString name="rcaron">
          98 309 544 rmoveto
          -68 -126 -8 -69 hhcurveto
          -23 vlineto
          13 -3 15 -5 11 -7 rrcurveto
          4 -39 8 -97 -93 vvcurveto
          -137 -9 -74 -3 -27 vhcurveto
          -12 -4 -14 -5 -11 -6 4 -24 rcurveline
          6 40 41 2 40 hhcurveto
          43 46 -1 -6 43 hvcurveto
          2 23 -15 5 -18 5 -15 3 rlinecurve
          -1 hlineto
          -4 30 -6 90 128 vvcurveto
          92 5 94 4 36 vhcurveto
          2 9 12 1 9 hhcurveto
          57 16 -49 -57 -53 -15 -52 -52 hvcurveto
          -10 hlineto
          -4 -41 rlineto
          12 18 -1 -2 12 hvcurveto
          37 -99 12 -51 -35 vvcurveto
          -24 -8 -20 -7 -7 vhcurveto
          3 -16 rlineto
          4 34 43 1 34 hhcurveto
          36 59 -2 -7 36 hvcurveto
          4 24 -11 6 -25 8 -11 2 rlinecurve
          -129 235 rlineto
          55 28 41 53 61 vvcurveto
          120 -95 16 -120 vhcurveto
          -11 171 rmoveto
          -206 79 -10 -24 81 -49 70 -70 44 -75 rlinecurve
          -1 3 6 -1 12 hhcurveto
          12 6 1 1 3 hvcurveto
          44 75 70 70 81 49 -10 24 rcurveline
          endchar
        </CharString>
        <CharString name="rcommaaccent">
          98 309 544 rmoveto
          -68 -126 -8 -69 hhcurveto
          -23 vlineto
          13 -3 15 -5 11 -7 rrcurveto
          4 -39 8 -97 -93 vvcurveto
          -137 -9 -74 -3 -27 vhcurveto
          -12 -4 -14 -5 -11 -6 4 -24 rcurveline
          6 40 41 2 40 hhcurveto
          43 46 -1 -6 43 hvcurveto
          2 23 -15 5 -18 5 -15 3 rlinecurve
          -1 hlineto
          -4 30 -6 90 128 vvcurveto
          92 5 94 4 36 vhcurveto
          2 9 12 1 9 hhcurveto
          57 16 -49 -57 -53 -15 -52 -52 hvcurveto
          -10 hlineto
          -4 -41 rlineto
          12 18 -1 -2 12 hvcurveto
          37 -99 12 -51 -35 vvcurveto
          -24 -8 -20 -7 -7 vhcurveto
          3 -16 rlineto
          4 34 43 1 34 hhcurveto
          36 59 -2 -7 36 hvcurveto
          4 24 -11 6 -25 8 -11 2 rlinecurve
          -129 235 rlineto
          55 28 41 53 61 vvcurveto
          120 -95 16 -120 vhcurveto
          97 -639 rmoveto
          -18 24 -37 26 -28 11 -28 -11 -38 -26 -18 -24 9 -27 22 -29 24 -20 -11 -23 -22 -16 -31 -17 10 -24 rcurveline
          91 20 65 66 10 70 rrcurveto
          endchar
        </CharString>
        <CharString name="registered">
          -40 21 500 rmoveto
          -109 87 -87 109 109 87 87 109 109 -87 87 -109 -109 -87 -87 -109 vhcurveto
          41 hmoveto
          87 68 68 87 87 66 -68 -87 -87 -66 -70 -87 -87 -68 70 87 vhcurveto
          140 9 rmoveto
          34 1 32 2 13 vhcurveto
          1 3 6 1 3 hhcurveto
          18 3 -18 -19 -19 -4 -20 -19 hvcurveto
          -3 hlineto
          -1 -15 rlineto
          16 hlineto
          12 -36 3 -20 -13 vvcurveto
          -8 -3 -7 -3 -4 vhcurveto
          1 -6 rlineto
          1 10 18 1 10 hhcurveto
          15 18 -1 -2 12 hvcurveto
          2 9 -4 2 -9 3 -4 1 rlinecurve
          -43 87 rlineto
          20 10 15 20 22 vvcurveto
          42 -32 8 -43 vhcurveto
          -30 -38 -2 -29 hhcurveto
          -9 vlineto
          6 5 -2 -3 6 hvcurveto
          1 -13 3 -37 -36 vvcurveto
          -49 -3 -29 -1 -9 vhcurveto
          -16 -6 1 -9 rlineto
          2 14 17 1 14 hhcurveto
          19 15 -1 -2 17 hvcurveto
          1 9 -5 2 -9 2 -4 1 rlinecurve
          -2 10 -2 34 47 vvcurveto
          endchar
        </CharString>
        <CharString name="ring">
          -253 659 vmoveto
          -57 53 -26 58 vhcurveto
          60 18 50 42 63 vvcurveto
          61 -43 23 -60 vhcurveto
          -65 -14 -53 -46 -64 vvcurveto
          101 76 rmoveto
          37 22 -23 -36 -14 -2 -17 -5 -13 hvcurveto
          -5 -7 -17 -4 -9 hhcurveto
          -37 -22 25 35 14 2 17 5 13 hvcurveto
          5 7 17 3 9 hhcurveto
          endchar
        </CharString>
        <CharString name="ring.cap">
          -253 772 vmoveto
          -57 53 -26 58 vhcurveto
          60 18 50 42 63 vvcurveto
          61 -43 23 -60 vhcurveto
          -65 -14 -53 -46 -64 vvcurveto
          101 76 rmoveto
          37 22 -23 -36 -14 -2 -17 -5 -13 hvcurveto
          -5 -7 -17 -4 -9 hhcurveto
          -37 -22 25 35 14 2 17 5 13 hvcurveto
          5 7 17 3 9 hhcurveto
          endchar
        </CharString>
        <CharString name="s">
          -49 88 114 rmoveto
          -2 -4 34 25 vvcurveto
          -25 hlineto
          -63 -18 -71 -42 -47 vhcurveto
          18 -17 11 13 11 11 13 7 rlinecurve
          -13 47 43 -6 50 hhcurveto
          74 30 130 128 79 81 -241 70 59 vvcurveto
          32 41 12 32 33 35 -11 -21 26 vhcurveto
          4 -17 1 -32 -19 vvcurveto
          26 hlineto
          3 45 15 69 33 30 rrcurveto
          16 vlineto
          13 -48 -56 6 -50 hhcurveto
          -87 -24 -117 -107 -90 -82 231 -72 -60 vvcurveto
          -37 -37 -14 -37 -49 -37 17 28 -29 vhcurveto
          endchar
        </CharString>
        <CharString name="section">
          -2 355 165 rmoveto
          41 43 28 45 20 52 rrcurveto
          104 -268 59 74 vvcurveto
          25 18 18 25 47 57 -34 -30 37 vhcurveto
          10 2 13 46 17 25 33 33 rlinecurve
          16 vlineto
          18 -53 -61 5 -56 hhcurveto
          -84 -37 -63 -62 -48 -79 rrcurveto
          -114 268 -38 -114 vvcurveto
          -14 -2 -13 -6 -11 vhcurveto
          -211 200 rmoveto
          -41 -43 -28 -45 -20 -52 rrcurveto
          -104 268 -59 -74 vvcurveto
          -25 -18 -18 -25 -47 -57 34 30 -37 vhcurveto
          -10 -2 -13 -46 -17 -25 -33 -33 rlinecurve
          -16 vlineto
          -18 53 61 -5 56 hhcurveto
          84 37 63 62 48 79 rrcurveto
          114 -258 38 -10 114 vhcurveto
          -1 14 3 13 6 11 rrcurveto
          endchar
        </CharString>
        <CharString name="semicolon">
          -217 223 85 rmoveto
          -19 29 -45 36 -30 16 -36 -16 -42 -37 -17 -28 12 -23 35 -38 24 -20 -6 -57 -28 -56 -42 -40 16 -20 rcurveline
          78 45 100 119 90 vvcurveto
          339 vmoveto
          -19 29 -45 36 -30 16 -36 -16 -42 -37 -17 -28 16 -30 49 -50 30 -20 30 20 49 50 15 30 rrcurveto
          endchar
        </CharString>
        <CharString name="seven">
          66 147 27 rmoveto
          -11 -7 -21 -8 -11 -3 5 -24 rcurveline
          12 62 58 3 62 hhcurveto
          26 25 -1 -3 26 hvcurveto
          3 23 -18 6 -24 6 -20 3 rlinecurve
          82 23 86 54 133 vhcurveto
          33 81 34 65 38 66 -24 12 rcurveline
          -6 -10 -7 -9 -7 -7 rrcurveto
          -102 -124 6 21 -100 hvcurveto
          -11 -9 rlineto
          9 -27 4 -41 -28 vvcurveto
          -40 -3 -39 -3 -18 vhcurveto
          24 -5 5 21 6 20 9 22 rlinecurve
          55 -6 63 -3 53 3 rrcurveto
          13 4 14 7 0 vvcurveto
          4 -4 -65 -103 -109 -172 -31 -59 -11 -56 rlinecurve
          endchar
        </CharString>
        <CharString name="six">
          66 221 212 rmoveto
          160 63 100 138 85 vhcurveto
          -13 18 rlineto
          -183 -54 -170 -154 -188 vvcurveto
          -120 63 -74 149 vhcurveto
          90 27 90 66 55 76 rrcurveto
          147 -75 67 -112 vhcurveto
          -14 -33 -21 -29 -27 -27 rrcurveto
          -8 vlineto
          77 8 -51 -75 -23 -4 -34 -7 -21 hvcurveto
          -10 -11 -17 -3 -14 hhcurveto
          -58 -7 85 73 hvcurveto
          endchar
        </CharString>
        <CharString name="slash">
          -120 68 -41 rmoveto
          202 532 37 99 25 65 21 48 rlinecurve
          -4 3 -17 -4 -35 -3 -17 -1 rlinecurve
          -26 -80 -22 -63 -30 -78 -117 -299 rcurveline
          -22 -57 -29 -76 -25 -56 10 -12 30 -12 14 -6 rrcurveto
          endchar
        </CharString>
        <CharString name="space">
          -294 endchar
        </CharString>
        <CharString name="sterling">
          66 110 302 rmoveto
          -65 hlineto
          -3 -49 8 -6 55 5 rlineto
          -55 13 -68 -15 -60 vhcurveto
          -15 -25 -20 -31 -10 -28 23 -10 rcurveline
          9 16 12 17 12 11 rrcurveto
          133 91 -10 -27 131 hvcurveto
          12 8 rlineto
          -6 22 -4 39 21 vvcurveto
          25 4 44 8 26 vhcurveto
          -22 7 -7 -21 -8 -19 -9 -17 rlinecurve
          13 -73 -58 4 -65 hhcurveto
          -12 -3 -21 -13 0 vvcurveto
          9 vlineto
          26 38 22 52 5 47 160 13 rcurveline
          4 46 -6 5 -26 -5 -31 -3 -32 -3 rlinecurve
          -67 -6 3 52 10 67 18 41 rlinecurve
          10 13 19 4 18 hhcurveto
          33 30 -13 -22 23 hvcurveto
          1 -23 4 -26 6 -22 rrcurveto
          25 hlineto
          1 43 9 47 15 39 rrcurveto
          5 13 13 3 12 hhcurveto
          1 23 rlineto
          9 -50 -55 7 -53 hhcurveto
          -132 -33 -99 -97 -31 -123 rrcurveto
          endchar
        </CharString>
        <CharString name="t">
          2 157 31 rmoveto
          -12 -4 -15 -6 -11 -6 3 -24 rcurveline
          6 40 43 3 40 hhcurveto
          42 47 -2 -6 43 hvcurveto
          2 22 -15 7 -18 5 -15 3 rlinecurve
          -1 hlineto
          -4 28 -8 89 132 vvcurveto
          73 4 78 3 47 vhcurveto
          3 9 20 2 9 hhcurveto
          25 19 -2 -12 23 hvcurveto
          -23 3 -23 5 -23 vhcurveto
          26 hlineto
          2 46 9 48 25 39 -6 21 rcurveline
          -7 -48 -100 -5 -108 hhcurveto
          -107 -97 5 7 -48 hvcurveto
          -6 -21 25 -39 9 -48 2 -46 rlinecurve
          28 hlineto
          23 3 23 5 23 vhcurveto
          10 19 28 4 21 hhcurveto
          11 16 -1 -3 12 hvcurveto
          4 -48 4 -83 -77 vvcurveto
          -139 -7 -74 -3 -25 vhcurveto
          endchar
        </CharString>
        <CharString name="thorn">
          73 251 403 rmoveto
          2 9 13 2 9 hhcurveto
          60 14 -47 -60 -57 -11 -66 -57 hvcurveto
          -10 hlineto
          -5 -41 rlineto
          -1 8 9 0 6 hhcurveto
          109 114 68 110 118 -97 18 -118 -1 hvcurveto
          -51 -1 2 30 2 23 2 11 rlinecurve
          15 3 18 5 15 7 -2 22 rcurveline
          -6 -43 -47 -2 -42 hhcurveto
          -40 -43 3 6 -40 hvcurveto
          -3 -24 11 -6 15 -6 12 -4 rlinecurve
          4 -31 8 -103 -103 vvcurveto
          -140 -7 -76 -4 -25 vhcurveto
          -12 -4 -14 -5 -11 -6 4 -24 rcurveline
          6 40 41 2 40 hhcurveto
          43 46 -1 -6 43 hvcurveto
          2 23 -15 5 -18 5 -15 3 rlinecurve
          -4 28 -8 92 131 vvcurveto
          43 1 43 2 37 vhcurveto
          endchar
        </CharString>
        <CharString name="three">
          66 134 560 rmoveto
          -12 -9 rlineto
          8 -24 3 -22 -38 vvcurveto
          -42 -4 -33 -4 -24 vhcurveto
          22 -6 6 22 8 21 9 20 rlinecurve
          -4 38 44 -3 38 hhcurveto
          12 3 16 7 0 vvcurveto
          2 -4 -119 -149 13 -8 rlineto
          80 37 -35 -80 -28 -3 -32 -10 -24 hvcurveto
          -4 -9 -16 -1 -9 hhcurveto
          -44 -49 29 63 -43 hvcurveto
          -2 23 0 18 22 vvcurveto
          -25 hlineto
          -3 -41 -13 -92 -28 -32 rrcurveto
          -14 vlineto
          -24 52 89 -30 56 hhcurveto
          81 27 96 72 51 68 rrcurveto
          127 -43 71 -126 17 vhcurveto
          183 189 -21 16 -13 -14 -27 -15 -23 -10 rlinecurve
          -104 -92 6 21 -102 hvcurveto
          endchar
        </CharString>
        <CharString name="threequarters">
          376 740 262 rmoveto
          35 2 69 7 37 vhcurveto
          -9 3 -52 -13 -31 -2 -55 -5 rlinecurve
          -49 -100 -52 -77 -73 -83 7 -36 rcurveline
          169 hlineto
          -24 -1 -3 -4 -23 vhcurveto
          -15 -3 -26 -8 -14 -6 3 -21 rcurveline
          6 25 46 4 44 hhcurveto
          53 40 -3 -5 33 hvcurveto
          4 23 -11 3 -26 7 -9 5 rlinecurve
          -4 20 -1 2 26 vvcurveto
          15 31 0 -2 24 hvcurveto
          4 2 -1 25 1 54 5 24 rlinecurve
          -14 4 rlineto
          -28 -10 -25 -4 -31 hhcurveto
          -668 500 rmoveto
          -9 -6 rlineto
          5 -16 4 -18 -35 vvcurveto
          -37 -4 -20 -3 -17 vhcurveto
          19 -6 4 15 5 14 7 13 rlinecurve
          -3 30 39 -2 34 hhcurveto
          8 2 11 5 0 vvcurveto
          2 -3 -86 -100 4 -6 rlineto
          49 24 -24 -49 -16 -2 -17 -6 -17 hvcurveto
          -5 -6 -8 -2 -14 hhcurveto
          -30 -32 27 33 -19 hvcurveto
          -1 15 0 13 14 vvcurveto
          -20 hlineto
          -2 -40 -11 -44 -22 -31 rrcurveto
          -12 vlineto
          -18 37 56 -13 41 hhcurveto
          82 29 60 34 48 50 rrcurveto
          79 -49 62 -75 7 vhcurveto
          122 133 -19 14 -7 -8 -7 -7 -9 -5 rlinecurve
          -98 -55 4 14 -97 hvcurveto
          97 -707 rmoveto
          398 552 62 86 41 57 33 41 rlinecurve
          -4 3 -17 1 -33 2 -17 4 rlinecurve
          -46 -70 -37 -55 -49 -68 -254 -351 rcurveline
          -36 -49 -51 -64 -38 -48 7 -15 24 -15 12 -10 rrcurveto
          437 351 rmoveto
          5 hlineto
          -2 -144 rlineto
          -21 -34 2 4 -23 hvcurveto
          35 48 17 35 23 55 rrcurveto
          endchar
        </CharString>
        <CharString name="threesuperior">
          -94 62 745 rmoveto
          -9 -6 rlineto
          5 -16 4 -18 -35 vvcurveto
          -37 -4 -20 -3 -17 vhcurveto
          19 -6 4 15 5 14 7 13 rlinecurve
          -3 30 39 -2 34 hhcurveto
          8 2 11 5 0 vvcurveto
          2 -3 -86 -100 4 -6 rlineto
          49 24 -24 -49 -16 -2 -17 -6 -17 hvcurveto
          -5 -6 -8 -2 -14 hhcurveto
          -30 -32 27 33 -19 hvcurveto
          -1 15 0 13 14 vvcurveto
          -20 hlineto
          -2 -40 -11 -44 -22 -31 rrcurveto
          -12 vlineto
          -18 37 56 -13 41 hhcurveto
          82 29 60 34 48 50 rrcurveto
          79 -49 62 -75 7 vhcurveto
          122 133 -19 14 -7 -8 -7 -7 -9 -5 rlinecurve
          -98 -55 4 14 -97 hvcurveto
          endchar
        </CharString>
        <CharString name="tilde">
          -38 24 618 rmoveto
          31 20 30 8 32 57 80 -52 55 hhcurveto
          56 30 41 50 41 56 -24 17 rcurveline
          -33 -23 -28 -6 -35 hhcurveto
          -54 -55 20 31 -48 hvcurveto
          -67 -24 -58 -50 -44 -61 rrcurveto
          endchar
        </CharString>
        <CharString name="tilde.cap">
          -38 24 734 rmoveto
          31 20 30 8 32 57 80 -52 55 hhcurveto
          56 30 41 50 41 56 -24 17 rcurveline
          -33 -23 -28 -6 -35 hhcurveto
          -54 -55 20 31 -48 hvcurveto
          -67 -24 -58 -50 -44 -61 rrcurveto
          endchar
        </CharString>
        <CharString name="two">
          66 255 555 rmoveto
          -92 -21 -110 -94 -97 vvcurveto
          -18 10 -12 19 -1 vhcurveto
          26 23 27 16 33 11 1 8 rcurveline
          -8 8 -4 13 18 vvcurveto
          16 4 25 5 15 vhcurveto
          6 14 17 3 15 hhcurveto
          48 15 -25 -48 -150 -196 -125 -54 -140 hvcurveto
          23 -11 10 18 17 20 16 10 rlinecurve
          141 93 -11 -29 138 hvcurveto
          14 8 rlineto
          -7 24 -4 39 23 vvcurveto
          28 4 44 9 28 vhcurveto
          -24 8 -8 -23 -9 -21 -10 -19 rlinecurve
          14 -76 -45 5 -77 hhcurveto
          -13 -3 -23 -15 0 vvcurveto
          11 vlineto
          89 64 104 90 70 86 rrcurveto
          127 -75 54 -127 vhcurveto
          endchar
        </CharString>
        <CharString name="twosuperior">
          -78 186 746 rmoveto
          -52 -24 -102 -97 -57 vvcurveto
          -15 7 -9 16 vhcurveto
          21 20 17 14 23 9 rrcurveto
          6 vlineto
          -6 4 -3 8 11 vvcurveto
          7 2 14 3 7 vhcurveto
          6 7 12 2 12 hhcurveto
          31 19 -15 -31 -99 -132 -64 -47 -96 hvcurveto
          20 -10 9 12 16 15 11 5 rlinecurve
          108 74 -12 -18 97 hvcurveto
          10 7 rlineto
          -4 18 -3 35 15 vvcurveto
          22 4 39 6 20 vhcurveto
          -21 6 -6 -17 -6 -15 -8 -15 rlinecurve
          -45 6 -35 4 -45 -2 rrcurveto
          -8 -2 -13 -7 0 vvcurveto
          -4 5 52 35 80 65 41 38 rlinecurve
          118 -40 32 -118 vhcurveto
          endchar
        </CharString>
        <CharString name="u">
          169 557 511 rmoveto
          15 3 18 5 15 7 -2 22 rcurveline
          -6 -43 -47 -2 -42 hhcurveto
          -40 -43 3 6 -40 hvcurveto
          -3 -24 11 -6 15 -6 12 -4 rlinecurve
          4 -30 8 -104 -104 vvcurveto
          -105 -1 -37 -1 -25 vhcurveto
          -16 -22 -24 -12 -29 hhcurveto
          -74 -3 70 84 60 3 104 6 59 hvcurveto
          4 41 6 20 28 16 -3 16 rcurveline
          -5 -33 -36 -1 -32 hhcurveto
          -35 -51 2 5 -36 hvcurveto
          -4 -24 9 -5 18 -6 11 -3 rlinecurve
          7 -16 0 -13 -17 -33 -13 -147 -83 vvcurveto
          -144 45 -69 145 vhcurveto
          41 16 38 22 31 30 -2 -20 -4 -20 -5 -8 4 -16 rcurveline
          6 36 43 3 36 hhcurveto
          38 29 -1 -6 38 hvcurveto
          2 23 -15 5 -18 5 -15 3 rlinecurve
          -4 29 -7 91 131 vvcurveto
          102 5 100 4 29 vhcurveto
          endchar
        </CharString>
        <CharString name="uacute">
          169 557 511 rmoveto
          15 3 18 5 15 7 -2 22 rcurveline
          -6 -43 -47 -2 -42 hhcurveto
          -40 -43 3 6 -40 hvcurveto
          -3 -24 11 -6 15 -6 12 -4 rlinecurve
          4 -30 8 -104 -104 vvcurveto
          -105 -1 -37 -1 -25 vhcurveto
          -16 -22 -24 -12 -29 hhcurveto
          -74 -3 70 84 60 3 104 6 59 hvcurveto
          4 41 6 20 28 16 -3 16 rcurveline
          -5 -33 -36 -1 -32 hhcurveto
          -35 -51 2 5 -36 hvcurveto
          -4 -24 9 -5 18 -6 11 -3 rlinecurve
          7 -16 0 -13 -17 -33 -13 -147 -83 vvcurveto
          -144 45 -69 145 vhcurveto
          41 16 38 22 31 30 -2 -20 -4 -20 -5 -8 4 -16 rcurveline
          6 36 43 3 36 hhcurveto
          38 29 -1 -6 38 hvcurveto
          2 23 -15 5 -18 5 -15 3 rlinecurve
          -4 29 -7 91 131 vvcurveto
          102 5 100 4 29 vhcurveto
          -8 153 rmoveto
          -1 33 -11 66 -13 22 rrcurveto
          1 -3 -6 1 -7 hhcurveto
          -13 -13 -1 -2 -6 hvcurveto
          -44 -75 -64 -69 -91 -49 10 -24 rcurveline
          endchar
        </CharString>
        <CharString name="ucircumflex">
          169 557 511 rmoveto
          15 3 18 5 15 7 -2 22 rcurveline
          -6 -43 -47 -2 -42 hhcurveto
          -40 -43 3 6 -40 hvcurveto
          -3 -24 11 -6 15 -6 12 -4 rlinecurve
          4 -30 8 -104 -104 vvcurveto
          -105 -1 -37 -1 -25 vhcurveto
          -16 -22 -24 -12 -29 hhcurveto
          -74 -3 70 84 60 3 104 6 59 hvcurveto
          4 41 6 20 28 16 -3 16 rcurveline
          -5 -33 -36 -1 -32 hhcurveto
          -35 -51 2 5 -36 hvcurveto
          -4 -24 9 -5 18 -6 11 -3 rlinecurve
          7 -16 0 -13 -17 -33 -13 -147 -83 vvcurveto
          -144 45 -69 145 vhcurveto
          41 16 38 22 31 30 -2 -20 -4 -20 -5 -8 4 -16 rcurveline
          6 36 43 3 36 hhcurveto
          38 29 -1 -6 38 hvcurveto
          2 23 -15 5 -18 5 -15 3 rlinecurve
          -4 29 -7 91 131 vvcurveto
          102 5 100 4 29 vhcurveto
          -15 63 rmoveto
          10 24 -81 49 -70 70 -44 75 rlinecurve
          1 -3 -6 1 -12 hhcurveto
          -12 -6 -1 -1 -3 hvcurveto
          -44 -75 -70 -70 -81 -49 10 -24 rcurveline
          206 79 rlineto
          endchar
        </CharString>
        <CharString name="udieresis">
          169 557 511 rmoveto
          15 3 18 5 15 7 -2 22 rcurveline
          -6 -43 -47 -2 -42 hhcurveto
          -40 -43 3 6 -40 hvcurveto
          -3 -24 11 -6 15 -6 12 -4 rlinecurve
          4 -30 8 -104 -104 vvcurveto
          -105 -1 -37 -1 -25 vhcurveto
          -16 -22 -24 -12 -29 hhcurveto
          -74 -3 70 84 60 3 104 6 59 hvcurveto
          4 41 6 20 28 16 -3 16 rcurveline
          -5 -33 -36 -1 -32 hhcurveto
          -35 -51 2 5 -36 hvcurveto
          -4 -24 9 -5 18 -6 11 -3 rlinecurve
          7 -16 0 -13 -17 -33 -13 -147 -83 vvcurveto
          -144 45 -69 145 vhcurveto
          41 16 38 22 31 30 -2 -20 -4 -20 -5 -8 4 -16 rcurveline
          6 36 43 3 36 hhcurveto
          38 29 -1 -6 38 hvcurveto
          2 23 -15 5 -18 5 -15 3 rlinecurve
          -4 29 -7 91 131 vvcurveto
          102 5 100 4 29 vhcurveto
          -248 177 rmoveto
          -18 27 -43 34 -28 15 -34 -15 -40 -35 -16 -26 15 -29 46 -47 29 -19 28 19 47 47 14 29 rrcurveto
          222 hmoveto
          -18 27 -43 34 -28 15 -34 -15 -40 -35 -16 -26 15 -29 46 -47 29 -19 28 19 47 47 14 29 rrcurveto
          endchar
        </CharString>
        <CharString name="ugrave">
          169 557 511 rmoveto
          15 3 18 5 15 7 -2 22 rcurveline
          -6 -43 -47 -2 -42 hhcurveto
          -40 -43 3 6 -40 hvcurveto
          -3 -24 11 -6 15 -6 12 -4 rlinecurve
          4 -30 8 -104 -104 vvcurveto
          -105 -1 -37 -1 -25 vhcurveto
          -16 -22 -24 -12 -29 hhcurveto
          -74 -3 70 84 60 3 104 6 59 hvcurveto
          4 41 6 20 28 16 -3 16 rcurveline
          -5 -33 -36 -1 -32 hhcurveto
          -35 -51 2 5 -36 hvcurveto
          -4 -24 9 -5 18 -6 11 -3 rlinecurve
          7 -16 0 -13 -17 -33 -13 -147 -83 vvcurveto
          -144 45 -69 145 vhcurveto
          41 16 38 22 31 30 -2 -20 -4 -20 -5 -8 4 -16 rcurveline
          6 36 43 3 36 hhcurveto
          38 29 -1 -6 38 hvcurveto
          2 23 -15 5 -18 5 -15 3 rlinecurve
          -4 29 -7 91 131 vvcurveto
          102 5 100 4 29 vhcurveto
          -188 56 rmoveto
          10 24 -91 49 -64 69 -44 75 rlinecurve
          2 -6 -13 1 -13 hhcurveto
          -7 -6 -1 -1 -3 hvcurveto
          -13 -22 -11 -66 -1 -33 rrcurveto
          endchar
        </CharString>
        <CharString name="underscore">
          182 649 -141 rmoveto
          -6 6 rlineto
          -2 -26 -104 -1 -26 hhcurveto
          -113 -246 3 6 -113 hvcurveto
          -8 -59 8 -7 rlineto
          626 hlineto
          endchar
        </CharString>
        <CharString name="uni0018">
          -474 endchar
        </CharString>
        <CharString name="v">
          106 367 28 rmoveto
          130 235 38 92 81 vvcurveto
          25 -3 26 -12 23 vhcurveto
          16 4 17 5 13 6 -3 23 rcurveline
          -6 -33 -41 -2 -33 hhcurveto
          -39 -44 3 4 -36 hvcurveto
          -2 -17 rlineto
          38 -18 11 -33 -49 vvcurveto
          -54 -8 -90 -57 -220 vhcurveto
          -54 200 -26 153 -9 92 15 3 18 6 15 6 -3 22 rcurveline
          -6 -37 -59 -2 -37 hhcurveto
          -40 -52 2 6 -39 hvcurveto
          -4 -24 11 -6 16 -4 12 -3 rlinecurve
          13 -21 8 -26 7 -25 rrcurveto
          79 -307 11 -66 -33 vvcurveto
          -14 -16 -7 -12 -3 vhcurveto
          1 -16 rlineto
          4 40 55 3 39 hhcurveto
          46 49 -2 -8 46 hvcurveto
          3 23 -13 5 -20 6 -15 4 rlinecurve
          endchar
        </CharString>
        <CharString name="w">
          381 642 28 rmoveto
          130 235 38 88 81 vvcurveto
          26 -3 28 -12 24 vhcurveto
          16 4 16 5 14 6 -3 23 rcurveline
          -6 -39 -32 -2 -40 hhcurveto
          -38 -41 3 4 -36 hvcurveto
          -2 -17 rlineto
          38 -18 11 -34 -48 vvcurveto
          -55 -8 -89 -51 -220 vhcurveto
          -54 201 -27 153 -8 91 15 3 18 6 15 6 -3 22 rcurveline
          -8 -92 -91 -1 -93 hhcurveto
          -97 -108 2 7 -64 hvcurveto
          -4 -24 10 -5 18 -6 11 -2 rlinecurve
          13 -22 8 -25 7 -25 rrcurveto
          79 -306 11 -65 -32 vvcurveto
          -14 -14 -8 -14 -3 vhcurveto
          1 -17 rlineto
          5 40 50 1 30 hhcurveto
          39 54 -1 -6 39 hvcurveto
          4 25 -12 2 -16 5 -10 7 rlinecurve
          27 79 20 59 17 53 rrcurveto
          29 -127 3 -36 -23 vvcurveto
          -15 -15 -10 -15 -3 vhcurveto
          1 -16 rlineto
          4 40 54 3 39 hhcurveto
          39 54 -3 -7 39 hvcurveto
          3 23 -14 5 -19 6 -15 4 rlinecurve
          -328 479 rmoveto
          57 8 -25 -57 -55 -9 -84 -51 -220 hvcurveto
          -54 201 -25 139 -8 91 rrcurveto
          6 26 31 4 25 hhcurveto
          endchar
        </CharString>
        <CharString name="x">
          57 294 548 rmoveto
          -7 -50 -55 -1 -50 hhcurveto
          -40 -50 3 6 -39 hvcurveto
          -3 -24 10 -6 15 -5 12 -3 rlinecurve
          146 -241 -61 -85 -46 -68 -59 -88 rlinecurve
          -12 -3 -15 -5 -11 -6 3 -24 rcurveline
          7 37 43 2 37 hhcurveto
          35 45 -3 -6 33 hvcurveto
          2 23 -13 6 -17 5 -15 3 rlinecurve
          1 24 3 28 51 128 rrcurveto
          74 -118 11 -36 -26 vvcurveto
          -8 -2 -8 -3 -4 vhcurveto
          3 -13 rlineto
          4 33 39 1 33 hhcurveto
          39 60 -3 -6 39 hvcurveto
          4 24 -14 7 -18 5 -18 4 rlinecurve
          -169 281 70 92 51 58 47 47 rlinecurve
          15 3 19 6 12 6 -3 24 rcurveline
          -6 -32 -49 -2 -32 hhcurveto
          -34 -33 2 4 -33 hvcurveto
          -3 -15 rlineto
          13 -7 5 -13 -15 vvcurveto
          -22 -9 -24 -44 -79 vhcurveto
          -50 86 -4 20 34 vvcurveto
          15 3 19 5 14 7 rrcurveto
          endchar
        </CharString>
        <CharString name="y">
          22 202 511 rmoveto
          15 3 18 6 15 6 -3 22 rcurveline
          -6 -37 -59 -2 -37 hhcurveto
          -40 -52 2 6 -39 hvcurveto
          -4 -24 11 -6 16 -4 12 -3 rlinecurve
          25 -21 20 -14 109 -227 rrcurveto
          -22 vlineto
          -115 -8 -56 -3 -25 vhcurveto
          -12 -4 -14 -5 -11 -6 4 -24 rcurveline
          6 40 41 2 40 hhcurveto
          43 46 -1 -6 43 hvcurveto
          2 23 -15 5 -18 5 -15 3 rlinecurve
          -4 30 -8 75 137 vvcurveto
          154 236 16 3 20 6 12 7 rlinecurve
          -3 24 rlineto
          -6 -32 -43 -1 -32 hhcurveto
          -31 -34 2 4 -30 hvcurveto
          -3 -15 rlineto
          13 -6 5 -13 -17 vvcurveto
          -24 -5 -27 -48 -144 vhcurveto
          -33 61 -24 82 -23 68 rrcurveto
          endchar
        </CharString>
        <CharString name="yacute">
          22 202 511 rmoveto
          15 3 18 6 15 6 -3 22 rcurveline
          -6 -37 -59 -2 -37 hhcurveto
          -40 -52 2 6 -39 hvcurveto
          -4 -24 11 -6 16 -4 12 -3 rlinecurve
          25 -21 20 -14 109 -227 rrcurveto
          -22 vlineto
          -115 -8 -56 -3 -25 vhcurveto
          -12 -4 -14 -5 -11 -6 4 -24 rcurveline
          6 40 41 2 40 hhcurveto
          43 46 -1 -6 43 hvcurveto
          2 23 -15 5 -18 5 -15 3 rlinecurve
          -4 30 -8 75 137 vvcurveto
          154 236 16 3 20 6 12 7 rlinecurve
          -3 24 rlineto
          -6 -32 -43 -1 -32 hhcurveto
          -31 -34 2 4 -30 hvcurveto
          -3 -15 rlineto
          13 -6 5 -13 -17 vvcurveto
          -24 -5 -27 -48 -144 vhcurveto
          -33 61 -24 82 -23 68 rrcurveto
          302 153 rmoveto
          -1 33 -11 66 -13 22 rrcurveto
          1 -3 -6 1 -7 hhcurveto
          -13 -13 -1 -2 -6 hvcurveto
          -44 -75 -64 -69 -91 -49 10 -24 rcurveline
          endchar
        </CharString>
        <CharString name="ydieresis">
          22 202 511 rmoveto
          15 3 18 6 15 6 -3 22 rcurveline
          -6 -37 -59 -2 -37 hhcurveto
          -40 -52 2 6 -39 hvcurveto
          -4 -24 11 -6 16 -4 12 -3 rlinecurve
          25 -21 20 -14 109 -227 rrcurveto
          -22 vlineto
          -115 -8 -56 -3 -25 vhcurveto
          -12 -4 -14 -5 -11 -6 4 -24 rcurveline
          6 40 41 2 40 hhcurveto
          43 46 -1 -6 43 hvcurveto
          2 23 -15 5 -18 5 -15 3 rlinecurve
          -4 30 -8 75 137 vvcurveto
          154 236 16 3 20 6 12 7 rlinecurve
          -3 24 rlineto
          -6 -32 -43 -1 -32 hhcurveto
          -31 -34 2 4 -30 hvcurveto
          -3 -15 rlineto
          13 -6 5 -13 -17 vvcurveto
          -24 -5 -27 -48 -144 vhcurveto
          -33 61 -24 82 -23 68 rrcurveto
          46 177 rmoveto
          -18 27 -43 34 -28 15 -34 -15 -40 -35 -16 -26 15 -29 46 -47 29 -19 28 19 47 47 14 29 rrcurveto
          222 hmoveto
          -18 27 -43 34 -28 15 -34 -15 -40 -35 -16 -26 15 -29 46 -47 29 -19 28 19 47 47 14 29 rrcurveto
          endchar
        </CharString>
        <CharString name="yen">
          66 53 228 rmoveto
          95 3 42 1 rlineto
          -42 -123 vlineto
          -3 -11 -7 -13 -7 -12 3 -6 rcurveline
          95 3 41 1 -3 -66 -5 -36 -2 -19 rlinecurve
          -12 -4 -14 -5 -11 -6 4 -24 rcurveline
          6 40 41 2 40 hhcurveto
          43 46 -1 -6 43 hvcurveto
          2 23 -15 5 -18 5 -15 3 rlinecurve
          -3 20 -5 40 -2 66 rrcurveto
          1 47 52 1 31 hhcurveto
          6 vlineto
          -6 13 0 6 -4 13 -32 -2 -46 -2 -43 -1 rrcurveto
          -1 14 0 15 16 vvcurveto
          1 48 52 1 32 hhcurveto
          6 vlineto
          -6 13 0 6 -4 13 -32 -2 -47 -2 -43 -1 rrcurveto
          1 vlineto
          154 236 16 3 20 6 12 7 rlinecurve
          -3 24 rlineto
          -6 -32 -43 -1 -32 hhcurveto
          -31 -34 2 4 -30 hvcurveto
          -3 -15 rlineto
          13 -6 5 -13 -17 vvcurveto
          -24 -5 -27 -48 -144 vhcurveto
          -33 61 -24 82 -23 68 15 3 18 6 15 6 -3 22 rcurveline
          -6 -37 -59 -2 -37 hhcurveto
          -40 -52 2 6 -39 hvcurveto
          -4 -24 11 -6 16 -4 12 -3 rlinecurve
          24 -21 20 -14 100 -206 rrcurveto
          -113 hlineto
          -3 -11 -7 -13 -7 -12 rrcurveto
          endchar
        </CharString>
        <CharString name="z">
          -31 348 533 rmoveto
          -132 -137 22 -69 hhcurveto
          -5 -26 14 -3 12 -4 12 -7 rlinecurve
          6 -21 2 -26 -21 vvcurveto
          -15 -1 -30 -3 -16 vhcurveto
          25 -5 9 18 8 23 6 21 rlinecurve
          27 24 33 4 36 hhcurveto
          70 hlineto
          4 -5 -216 -373 -22 -38 -26 -44 -16 -17 rlinecurve
          18 -15 rlineto
          26 21 49 6 58 hhcurveto
          91 115 -6 -13 87 hvcurveto
          6 -5 6 -5 5 -6 22 14 rcurveline
          -44 45 -14 69 -5 63 -25 -2 rcurveline
          -19 0 -22 -4 -17 vhcurveto
          -27 -22 -37 -10 -36 hhcurveto
          -48 hlineto
          -4 3 185 381 21 43 21 35 16 14 rlinecurve
          -18 15 rlineto
          -24 -26 -21 -7 -51 hhcurveto
          endchar
        </CharString>
</ttFont>
